%TF.GenerationSoftware,KiCad,Pcbnew,(5.1.10)-1*%
%TF.CreationDate,2021-07-12T12:55:46+02:00*%
%TF.ProjectId,buckLM5575,6275636b-4c4d-4353-9537-352e6b696361,rev?*%
%TF.SameCoordinates,Original*%
%TF.FileFunction,Copper,L2,Bot*%
%TF.FilePolarity,Positive*%
%FSLAX46Y46*%
G04 Gerber Fmt 4.6, Leading zero omitted, Abs format (unit mm)*
G04 Created by KiCad (PCBNEW (5.1.10)-1) date 2021-07-12 12:55:46*
%MOMM*%
%LPD*%
G01*
G04 APERTURE LIST*
%TA.AperFunction,ComponentPad*%
%ADD10C,2.600000*%
%TD*%
%TA.AperFunction,ComponentPad*%
%ADD11R,2.600000X2.600000*%
%TD*%
%TA.AperFunction,ComponentPad*%
%ADD12R,2.400000X2.400000*%
%TD*%
%TA.AperFunction,ComponentPad*%
%ADD13C,2.400000*%
%TD*%
%TA.AperFunction,ViaPad*%
%ADD14C,0.800000*%
%TD*%
%TA.AperFunction,Conductor*%
%ADD15C,0.250000*%
%TD*%
%TA.AperFunction,Conductor*%
%ADD16C,0.254000*%
%TD*%
%TA.AperFunction,Conductor*%
%ADD17C,0.100000*%
%TD*%
G04 APERTURE END LIST*
D10*
%TO.P,J2,2*%
%TO.N,+5V*%
X174752000Y-56896000D03*
D11*
%TO.P,J2,1*%
%TO.N,GND*%
X174752000Y-61976000D03*
%TD*%
D10*
%TO.P,J1,2*%
%TO.N,VCC*%
X92837000Y-62992000D03*
D11*
%TO.P,J1,1*%
%TO.N,GND*%
X92837000Y-57912000D03*
%TD*%
D12*
%TO.P,C1,1*%
%TO.N,VCC*%
X109220000Y-61468000D03*
D13*
%TO.P,C1,2*%
%TO.N,GND*%
X104220000Y-61468000D03*
%TD*%
D14*
%TO.N,GND*%
X129286000Y-55880000D03*
X135128000Y-64680000D03*
X133858000Y-70358000D03*
X133858000Y-71882000D03*
X140208000Y-71120000D03*
X161290000Y-63754000D03*
X164846000Y-64516000D03*
X166624000Y-61214000D03*
X124714000Y-70866000D03*
X117856000Y-57404000D03*
X144272000Y-69596000D03*
X141478000Y-63881000D03*
X130810000Y-60198000D03*
X129540000Y-61087000D03*
X131953000Y-61087000D03*
X130810000Y-63881000D03*
X130810000Y-62229997D03*
%TD*%
D15*
%TO.N,GND*%
X142748000Y-67310000D02*
X141478000Y-66040000D01*
X161290000Y-65278000D02*
X159258000Y-67310000D01*
X159258000Y-67310000D02*
X142748000Y-67310000D01*
X138225000Y-71120000D02*
X138430000Y-71325000D01*
X103450000Y-62238000D02*
X104220000Y-61468000D01*
X140208000Y-71120000D02*
X142494000Y-68834000D01*
X142494000Y-68834000D02*
X142494000Y-67564000D01*
X142494000Y-67564000D02*
X142748000Y-67310000D01*
X133350000Y-72390000D02*
X133858000Y-71882000D01*
X132080000Y-72390000D02*
X133350000Y-72390000D01*
X132080000Y-72390000D02*
X132080000Y-71120000D01*
X134784000Y-65024000D02*
X135128000Y-64680000D01*
X133858000Y-70358000D02*
X133858000Y-65024000D01*
X133858000Y-65024000D02*
X134784000Y-65024000D01*
X136652000Y-71120000D02*
X138225000Y-71120000D01*
X161290000Y-65278000D02*
X161290000Y-63754000D01*
X132080000Y-71120000D02*
X136652000Y-71120000D01*
X131826000Y-70866000D02*
X132080000Y-71120000D01*
X105745001Y-59942999D02*
X104220000Y-61468000D01*
X129286000Y-55880000D02*
X130048000Y-55880000D01*
X129032000Y-57404000D02*
X130302000Y-56134000D01*
X117856000Y-57404000D02*
X129032000Y-57404000D01*
X130048000Y-55880000D02*
X130302000Y-56134000D01*
X105745001Y-59942999D02*
X112269001Y-59942999D01*
X114808000Y-57404000D02*
X117856000Y-57404000D01*
X112269001Y-59942999D02*
X114808000Y-57404000D01*
X164846000Y-62992000D02*
X166624000Y-61214000D01*
X164846000Y-64516000D02*
X164846000Y-62992000D01*
X136652000Y-72390000D02*
X136652000Y-71120000D01*
X137160000Y-72898000D02*
X136652000Y-72390000D01*
X140208000Y-72136000D02*
X140208000Y-71120000D01*
X139446000Y-72898000D02*
X140208000Y-72136000D01*
X137160000Y-72898000D02*
X139446000Y-72898000D01*
X113618000Y-70866000D02*
X104220000Y-61468000D01*
X124714000Y-70866000D02*
X113618000Y-70866000D01*
X133858000Y-59690000D02*
X130302000Y-56134000D01*
X133858000Y-65024000D02*
X133858000Y-59690000D01*
X142748000Y-71120000D02*
X140208000Y-71120000D01*
X144272000Y-69596000D02*
X142748000Y-71120000D01*
X141478000Y-66040000D02*
X141478000Y-63881000D01*
X96393000Y-61468000D02*
X92837000Y-57912000D01*
X104220000Y-61468000D02*
X96393000Y-61468000D01*
X130810000Y-62484000D02*
X130810000Y-62229997D01*
X167386000Y-61976000D02*
X166624000Y-61214000D01*
X167386000Y-61976000D02*
X174752000Y-61976000D01*
%TD*%
D16*
%TO.N,GND*%
X175641000Y-55169807D02*
X175316419Y-55035361D01*
X174942581Y-54961000D01*
X174561419Y-54961000D01*
X174187581Y-55035361D01*
X173835434Y-55181225D01*
X173518509Y-55392987D01*
X173248987Y-55662509D01*
X173037225Y-55979434D01*
X172891361Y-56331581D01*
X172817000Y-56705419D01*
X172817000Y-57086581D01*
X172891361Y-57460419D01*
X173037225Y-57812566D01*
X173248987Y-58129491D01*
X173518509Y-58399013D01*
X173835434Y-58610775D01*
X174187581Y-58756639D01*
X174561419Y-58831000D01*
X174942581Y-58831000D01*
X175316419Y-58756639D01*
X175641000Y-58622193D01*
X175641000Y-60039173D01*
X175037750Y-60041000D01*
X174879000Y-60199750D01*
X174879000Y-61849000D01*
X174899000Y-61849000D01*
X174899000Y-62103000D01*
X174879000Y-62103000D01*
X174879000Y-63752250D01*
X175037750Y-63911000D01*
X175641000Y-63912827D01*
X175641000Y-73533000D01*
X91567000Y-73533000D01*
X91567000Y-64458504D01*
X91603509Y-64495013D01*
X91920434Y-64706775D01*
X92272581Y-64852639D01*
X92646419Y-64927000D01*
X93027581Y-64927000D01*
X93401419Y-64852639D01*
X93753566Y-64706775D01*
X94070491Y-64495013D01*
X94340013Y-64225491D01*
X94551775Y-63908566D01*
X94697639Y-63556419D01*
X94772000Y-63182581D01*
X94772000Y-62801419D01*
X94760973Y-62745980D01*
X103121626Y-62745980D01*
X103241514Y-63030836D01*
X103565210Y-63191699D01*
X103914069Y-63286322D01*
X104274684Y-63311067D01*
X104633198Y-63264985D01*
X104975833Y-63149846D01*
X105198486Y-63030836D01*
X105318374Y-62745980D01*
X104220000Y-61647605D01*
X103121626Y-62745980D01*
X94760973Y-62745980D01*
X94697639Y-62427581D01*
X94551775Y-62075434D01*
X94340013Y-61758509D01*
X94104188Y-61522684D01*
X102376933Y-61522684D01*
X102423015Y-61881198D01*
X102538154Y-62223833D01*
X102657164Y-62446486D01*
X102942020Y-62566374D01*
X104040395Y-61468000D01*
X104399605Y-61468000D01*
X105497980Y-62566374D01*
X105782836Y-62446486D01*
X105943699Y-62122790D01*
X106038322Y-61773931D01*
X106063067Y-61413316D01*
X106016985Y-61054802D01*
X105901846Y-60712167D01*
X105782836Y-60489514D01*
X105497980Y-60369626D01*
X104399605Y-61468000D01*
X104040395Y-61468000D01*
X102942020Y-60369626D01*
X102657164Y-60489514D01*
X102496301Y-60813210D01*
X102401678Y-61162069D01*
X102376933Y-61522684D01*
X94104188Y-61522684D01*
X94070491Y-61488987D01*
X93753566Y-61277225D01*
X93401419Y-61131361D01*
X93027581Y-61057000D01*
X92646419Y-61057000D01*
X92272581Y-61131361D01*
X91920434Y-61277225D01*
X91603509Y-61488987D01*
X91567000Y-61525496D01*
X91567000Y-60190020D01*
X103121626Y-60190020D01*
X104220000Y-61288395D01*
X105240394Y-60268000D01*
X107381928Y-60268000D01*
X107381928Y-62668000D01*
X107394188Y-62792482D01*
X107430498Y-62912180D01*
X107489463Y-63022494D01*
X107568815Y-63119185D01*
X107665506Y-63198537D01*
X107775820Y-63257502D01*
X107895518Y-63293812D01*
X108020000Y-63306072D01*
X110420000Y-63306072D01*
X110544482Y-63293812D01*
X110603200Y-63276000D01*
X172813928Y-63276000D01*
X172826188Y-63400482D01*
X172862498Y-63520180D01*
X172921463Y-63630494D01*
X173000815Y-63727185D01*
X173097506Y-63806537D01*
X173207820Y-63865502D01*
X173327518Y-63901812D01*
X173452000Y-63914072D01*
X174466250Y-63911000D01*
X174625000Y-63752250D01*
X174625000Y-62103000D01*
X172975750Y-62103000D01*
X172817000Y-62261750D01*
X172813928Y-63276000D01*
X110603200Y-63276000D01*
X110664180Y-63257502D01*
X110774494Y-63198537D01*
X110871185Y-63119185D01*
X110950537Y-63022494D01*
X111009502Y-62912180D01*
X111045812Y-62792482D01*
X111058072Y-62668000D01*
X111058072Y-60676000D01*
X172813928Y-60676000D01*
X172817000Y-61690250D01*
X172975750Y-61849000D01*
X174625000Y-61849000D01*
X174625000Y-60199750D01*
X174466250Y-60041000D01*
X173452000Y-60037928D01*
X173327518Y-60050188D01*
X173207820Y-60086498D01*
X173097506Y-60145463D01*
X173000815Y-60224815D01*
X172921463Y-60321506D01*
X172862498Y-60431820D01*
X172826188Y-60551518D01*
X172813928Y-60676000D01*
X111058072Y-60676000D01*
X111058072Y-60268000D01*
X111045812Y-60143518D01*
X111009502Y-60023820D01*
X110950537Y-59913506D01*
X110871185Y-59816815D01*
X110774494Y-59737463D01*
X110664180Y-59678498D01*
X110544482Y-59642188D01*
X110420000Y-59629928D01*
X108020000Y-59629928D01*
X107895518Y-59642188D01*
X107775820Y-59678498D01*
X107665506Y-59737463D01*
X107568815Y-59816815D01*
X107489463Y-59913506D01*
X107430498Y-60023820D01*
X107394188Y-60143518D01*
X107381928Y-60268000D01*
X105240394Y-60268000D01*
X105318374Y-60190020D01*
X105198486Y-59905164D01*
X104874790Y-59744301D01*
X104525931Y-59649678D01*
X104165316Y-59624933D01*
X103806802Y-59671015D01*
X103464167Y-59786154D01*
X103241514Y-59905164D01*
X103121626Y-60190020D01*
X91567000Y-60190020D01*
X91567000Y-59849981D01*
X92551250Y-59847000D01*
X92710000Y-59688250D01*
X92710000Y-58039000D01*
X92964000Y-58039000D01*
X92964000Y-59688250D01*
X93122750Y-59847000D01*
X94137000Y-59850072D01*
X94261482Y-59837812D01*
X94381180Y-59801502D01*
X94491494Y-59742537D01*
X94588185Y-59663185D01*
X94667537Y-59566494D01*
X94726502Y-59456180D01*
X94762812Y-59336482D01*
X94775072Y-59212000D01*
X94772000Y-58197750D01*
X94613250Y-58039000D01*
X92964000Y-58039000D01*
X92710000Y-58039000D01*
X92690000Y-58039000D01*
X92690000Y-57785000D01*
X92710000Y-57785000D01*
X92710000Y-56135750D01*
X92964000Y-56135750D01*
X92964000Y-57785000D01*
X94613250Y-57785000D01*
X94772000Y-57626250D01*
X94775072Y-56612000D01*
X94762812Y-56487518D01*
X94726502Y-56367820D01*
X94667537Y-56257506D01*
X94588185Y-56160815D01*
X94491494Y-56081463D01*
X94381180Y-56022498D01*
X94261482Y-55986188D01*
X94137000Y-55973928D01*
X93122750Y-55977000D01*
X92964000Y-56135750D01*
X92710000Y-56135750D01*
X92551250Y-55977000D01*
X91567000Y-55974019D01*
X91567000Y-50419000D01*
X175641000Y-50419000D01*
X175641000Y-55169807D01*
%TA.AperFunction,Conductor*%
D17*
G36*
X175641000Y-55169807D02*
G01*
X175316419Y-55035361D01*
X174942581Y-54961000D01*
X174561419Y-54961000D01*
X174187581Y-55035361D01*
X173835434Y-55181225D01*
X173518509Y-55392987D01*
X173248987Y-55662509D01*
X173037225Y-55979434D01*
X172891361Y-56331581D01*
X172817000Y-56705419D01*
X172817000Y-57086581D01*
X172891361Y-57460419D01*
X173037225Y-57812566D01*
X173248987Y-58129491D01*
X173518509Y-58399013D01*
X173835434Y-58610775D01*
X174187581Y-58756639D01*
X174561419Y-58831000D01*
X174942581Y-58831000D01*
X175316419Y-58756639D01*
X175641000Y-58622193D01*
X175641000Y-60039173D01*
X175037750Y-60041000D01*
X174879000Y-60199750D01*
X174879000Y-61849000D01*
X174899000Y-61849000D01*
X174899000Y-62103000D01*
X174879000Y-62103000D01*
X174879000Y-63752250D01*
X175037750Y-63911000D01*
X175641000Y-63912827D01*
X175641000Y-73533000D01*
X91567000Y-73533000D01*
X91567000Y-64458504D01*
X91603509Y-64495013D01*
X91920434Y-64706775D01*
X92272581Y-64852639D01*
X92646419Y-64927000D01*
X93027581Y-64927000D01*
X93401419Y-64852639D01*
X93753566Y-64706775D01*
X94070491Y-64495013D01*
X94340013Y-64225491D01*
X94551775Y-63908566D01*
X94697639Y-63556419D01*
X94772000Y-63182581D01*
X94772000Y-62801419D01*
X94760973Y-62745980D01*
X103121626Y-62745980D01*
X103241514Y-63030836D01*
X103565210Y-63191699D01*
X103914069Y-63286322D01*
X104274684Y-63311067D01*
X104633198Y-63264985D01*
X104975833Y-63149846D01*
X105198486Y-63030836D01*
X105318374Y-62745980D01*
X104220000Y-61647605D01*
X103121626Y-62745980D01*
X94760973Y-62745980D01*
X94697639Y-62427581D01*
X94551775Y-62075434D01*
X94340013Y-61758509D01*
X94104188Y-61522684D01*
X102376933Y-61522684D01*
X102423015Y-61881198D01*
X102538154Y-62223833D01*
X102657164Y-62446486D01*
X102942020Y-62566374D01*
X104040395Y-61468000D01*
X104399605Y-61468000D01*
X105497980Y-62566374D01*
X105782836Y-62446486D01*
X105943699Y-62122790D01*
X106038322Y-61773931D01*
X106063067Y-61413316D01*
X106016985Y-61054802D01*
X105901846Y-60712167D01*
X105782836Y-60489514D01*
X105497980Y-60369626D01*
X104399605Y-61468000D01*
X104040395Y-61468000D01*
X102942020Y-60369626D01*
X102657164Y-60489514D01*
X102496301Y-60813210D01*
X102401678Y-61162069D01*
X102376933Y-61522684D01*
X94104188Y-61522684D01*
X94070491Y-61488987D01*
X93753566Y-61277225D01*
X93401419Y-61131361D01*
X93027581Y-61057000D01*
X92646419Y-61057000D01*
X92272581Y-61131361D01*
X91920434Y-61277225D01*
X91603509Y-61488987D01*
X91567000Y-61525496D01*
X91567000Y-60190020D01*
X103121626Y-60190020D01*
X104220000Y-61288395D01*
X105240394Y-60268000D01*
X107381928Y-60268000D01*
X107381928Y-62668000D01*
X107394188Y-62792482D01*
X107430498Y-62912180D01*
X107489463Y-63022494D01*
X107568815Y-63119185D01*
X107665506Y-63198537D01*
X107775820Y-63257502D01*
X107895518Y-63293812D01*
X108020000Y-63306072D01*
X110420000Y-63306072D01*
X110544482Y-63293812D01*
X110603200Y-63276000D01*
X172813928Y-63276000D01*
X172826188Y-63400482D01*
X172862498Y-63520180D01*
X172921463Y-63630494D01*
X173000815Y-63727185D01*
X173097506Y-63806537D01*
X173207820Y-63865502D01*
X173327518Y-63901812D01*
X173452000Y-63914072D01*
X174466250Y-63911000D01*
X174625000Y-63752250D01*
X174625000Y-62103000D01*
X172975750Y-62103000D01*
X172817000Y-62261750D01*
X172813928Y-63276000D01*
X110603200Y-63276000D01*
X110664180Y-63257502D01*
X110774494Y-63198537D01*
X110871185Y-63119185D01*
X110950537Y-63022494D01*
X111009502Y-62912180D01*
X111045812Y-62792482D01*
X111058072Y-62668000D01*
X111058072Y-60676000D01*
X172813928Y-60676000D01*
X172817000Y-61690250D01*
X172975750Y-61849000D01*
X174625000Y-61849000D01*
X174625000Y-60199750D01*
X174466250Y-60041000D01*
X173452000Y-60037928D01*
X173327518Y-60050188D01*
X173207820Y-60086498D01*
X173097506Y-60145463D01*
X173000815Y-60224815D01*
X172921463Y-60321506D01*
X172862498Y-60431820D01*
X172826188Y-60551518D01*
X172813928Y-60676000D01*
X111058072Y-60676000D01*
X111058072Y-60268000D01*
X111045812Y-60143518D01*
X111009502Y-60023820D01*
X110950537Y-59913506D01*
X110871185Y-59816815D01*
X110774494Y-59737463D01*
X110664180Y-59678498D01*
X110544482Y-59642188D01*
X110420000Y-59629928D01*
X108020000Y-59629928D01*
X107895518Y-59642188D01*
X107775820Y-59678498D01*
X107665506Y-59737463D01*
X107568815Y-59816815D01*
X107489463Y-59913506D01*
X107430498Y-60023820D01*
X107394188Y-60143518D01*
X107381928Y-60268000D01*
X105240394Y-60268000D01*
X105318374Y-60190020D01*
X105198486Y-59905164D01*
X104874790Y-59744301D01*
X104525931Y-59649678D01*
X104165316Y-59624933D01*
X103806802Y-59671015D01*
X103464167Y-59786154D01*
X103241514Y-59905164D01*
X103121626Y-60190020D01*
X91567000Y-60190020D01*
X91567000Y-59849981D01*
X92551250Y-59847000D01*
X92710000Y-59688250D01*
X92710000Y-58039000D01*
X92964000Y-58039000D01*
X92964000Y-59688250D01*
X93122750Y-59847000D01*
X94137000Y-59850072D01*
X94261482Y-59837812D01*
X94381180Y-59801502D01*
X94491494Y-59742537D01*
X94588185Y-59663185D01*
X94667537Y-59566494D01*
X94726502Y-59456180D01*
X94762812Y-59336482D01*
X94775072Y-59212000D01*
X94772000Y-58197750D01*
X94613250Y-58039000D01*
X92964000Y-58039000D01*
X92710000Y-58039000D01*
X92690000Y-58039000D01*
X92690000Y-57785000D01*
X92710000Y-57785000D01*
X92710000Y-56135750D01*
X92964000Y-56135750D01*
X92964000Y-57785000D01*
X94613250Y-57785000D01*
X94772000Y-57626250D01*
X94775072Y-56612000D01*
X94762812Y-56487518D01*
X94726502Y-56367820D01*
X94667537Y-56257506D01*
X94588185Y-56160815D01*
X94491494Y-56081463D01*
X94381180Y-56022498D01*
X94261482Y-55986188D01*
X94137000Y-55973928D01*
X93122750Y-55977000D01*
X92964000Y-56135750D01*
X92710000Y-56135750D01*
X92551250Y-55977000D01*
X91567000Y-55974019D01*
X91567000Y-50419000D01*
X175641000Y-50419000D01*
X175641000Y-55169807D01*
G37*
%TD.AperFunction*%
%TD*%
M02*
