%TF.GenerationSoftware,KiCad,Pcbnew,(5.1.10)-1*%
%TF.CreationDate,2021-07-12T12:55:46+02:00*%
%TF.ProjectId,buckLM5575,6275636b-4c4d-4353-9537-352e6b696361,rev?*%
%TF.SameCoordinates,Original*%
%TF.FileFunction,Legend,Top*%
%TF.FilePolarity,Positive*%
%FSLAX46Y46*%
G04 Gerber Fmt 4.6, Leading zero omitted, Abs format (unit mm)*
G04 Created by KiCad (PCBNEW (5.1.10)-1) date 2021-07-12 12:55:46*
%MOMM*%
%LPD*%
G01*
G04 APERTURE LIST*
%ADD10C,0.200000*%
%ADD11C,0.120000*%
%ADD12C,0.150000*%
G04 APERTURE END LIST*
D10*
X181364000Y-62229904D02*
X181316380Y-62325142D01*
X181316380Y-62468000D01*
X181364000Y-62610857D01*
X181459238Y-62706095D01*
X181554476Y-62753714D01*
X181744952Y-62801333D01*
X181887809Y-62801333D01*
X182078285Y-62753714D01*
X182173523Y-62706095D01*
X182268761Y-62610857D01*
X182316380Y-62468000D01*
X182316380Y-62372761D01*
X182268761Y-62229904D01*
X182221142Y-62182285D01*
X181887809Y-62182285D01*
X181887809Y-62372761D01*
X182316380Y-61753714D02*
X181316380Y-61753714D01*
X182316380Y-61182285D01*
X181316380Y-61182285D01*
X182316380Y-60706095D02*
X181316380Y-60706095D01*
X181316380Y-60468000D01*
X181364000Y-60325142D01*
X181459238Y-60229904D01*
X181554476Y-60182285D01*
X181744952Y-60134666D01*
X181887809Y-60134666D01*
X182078285Y-60182285D01*
X182173523Y-60229904D01*
X182268761Y-60325142D01*
X182316380Y-60468000D01*
X182316380Y-60706095D01*
X181316380Y-56578476D02*
X181316380Y-57054666D01*
X181792571Y-57102285D01*
X181744952Y-57054666D01*
X181697333Y-56959428D01*
X181697333Y-56721333D01*
X181744952Y-56626095D01*
X181792571Y-56578476D01*
X181887809Y-56530857D01*
X182125904Y-56530857D01*
X182221142Y-56578476D01*
X182268761Y-56626095D01*
X182316380Y-56721333D01*
X182316380Y-56959428D01*
X182268761Y-57054666D01*
X182221142Y-57102285D01*
X181316380Y-56245142D02*
X182316380Y-55911809D01*
X181316380Y-55578476D01*
X84717000Y-58292904D02*
X84669380Y-58388142D01*
X84669380Y-58531000D01*
X84717000Y-58673857D01*
X84812238Y-58769095D01*
X84907476Y-58816714D01*
X85097952Y-58864333D01*
X85240809Y-58864333D01*
X85431285Y-58816714D01*
X85526523Y-58769095D01*
X85621761Y-58673857D01*
X85669380Y-58531000D01*
X85669380Y-58435761D01*
X85621761Y-58292904D01*
X85574142Y-58245285D01*
X85240809Y-58245285D01*
X85240809Y-58435761D01*
X85669380Y-57816714D02*
X84669380Y-57816714D01*
X85669380Y-57245285D01*
X84669380Y-57245285D01*
X85669380Y-56769095D02*
X84669380Y-56769095D01*
X84669380Y-56531000D01*
X84717000Y-56388142D01*
X84812238Y-56292904D01*
X84907476Y-56245285D01*
X85097952Y-56197666D01*
X85240809Y-56197666D01*
X85431285Y-56245285D01*
X85526523Y-56292904D01*
X85621761Y-56388142D01*
X85669380Y-56531000D01*
X85669380Y-56769095D01*
X84415380Y-64269809D02*
X85415380Y-63936476D01*
X84415380Y-63603142D01*
X85415380Y-63269809D02*
X84748714Y-63269809D01*
X84415380Y-63269809D02*
X84463000Y-63317428D01*
X84510619Y-63269809D01*
X84463000Y-63222190D01*
X84415380Y-63269809D01*
X84510619Y-63269809D01*
X84748714Y-62793619D02*
X85415380Y-62793619D01*
X84843952Y-62793619D02*
X84796333Y-62746000D01*
X84748714Y-62650761D01*
X84748714Y-62507904D01*
X84796333Y-62412666D01*
X84891571Y-62365047D01*
X85415380Y-62365047D01*
X93704190Y-48712380D02*
X93228000Y-48712380D01*
X93228000Y-47712380D01*
X94037523Y-48712380D02*
X94037523Y-47712380D01*
X94370857Y-48426666D01*
X94704190Y-47712380D01*
X94704190Y-48712380D01*
X95656571Y-47712380D02*
X95180380Y-47712380D01*
X95132761Y-48188571D01*
X95180380Y-48140952D01*
X95275619Y-48093333D01*
X95513714Y-48093333D01*
X95608952Y-48140952D01*
X95656571Y-48188571D01*
X95704190Y-48283809D01*
X95704190Y-48521904D01*
X95656571Y-48617142D01*
X95608952Y-48664761D01*
X95513714Y-48712380D01*
X95275619Y-48712380D01*
X95180380Y-48664761D01*
X95132761Y-48617142D01*
X96608952Y-47712380D02*
X96132761Y-47712380D01*
X96085142Y-48188571D01*
X96132761Y-48140952D01*
X96228000Y-48093333D01*
X96466095Y-48093333D01*
X96561333Y-48140952D01*
X96608952Y-48188571D01*
X96656571Y-48283809D01*
X96656571Y-48521904D01*
X96608952Y-48617142D01*
X96561333Y-48664761D01*
X96466095Y-48712380D01*
X96228000Y-48712380D01*
X96132761Y-48664761D01*
X96085142Y-48617142D01*
X96989904Y-47712380D02*
X97656571Y-47712380D01*
X97228000Y-48712380D01*
X98513714Y-47712380D02*
X98037523Y-47712380D01*
X97989904Y-48188571D01*
X98037523Y-48140952D01*
X98132761Y-48093333D01*
X98370857Y-48093333D01*
X98466095Y-48140952D01*
X98513714Y-48188571D01*
X98561333Y-48283809D01*
X98561333Y-48521904D01*
X98513714Y-48617142D01*
X98466095Y-48664761D01*
X98370857Y-48712380D01*
X98132761Y-48712380D01*
X98037523Y-48664761D01*
X97989904Y-48617142D01*
X99704190Y-48664761D02*
X99847047Y-48712380D01*
X100085142Y-48712380D01*
X100180380Y-48664761D01*
X100228000Y-48617142D01*
X100275619Y-48521904D01*
X100275619Y-48426666D01*
X100228000Y-48331428D01*
X100180380Y-48283809D01*
X100085142Y-48236190D01*
X99894666Y-48188571D01*
X99799428Y-48140952D01*
X99751809Y-48093333D01*
X99704190Y-47998095D01*
X99704190Y-47902857D01*
X99751809Y-47807619D01*
X99799428Y-47760000D01*
X99894666Y-47712380D01*
X100132761Y-47712380D01*
X100275619Y-47760000D01*
X100561333Y-47712380D02*
X101132761Y-47712380D01*
X100847047Y-48712380D02*
X100847047Y-47712380D01*
X101466095Y-48188571D02*
X101799428Y-48188571D01*
X101942285Y-48712380D02*
X101466095Y-48712380D01*
X101466095Y-47712380D01*
X101942285Y-47712380D01*
X102370857Y-48712380D02*
X102370857Y-47712380D01*
X102751809Y-47712380D01*
X102847047Y-47760000D01*
X102894666Y-47807619D01*
X102942285Y-47902857D01*
X102942285Y-48045714D01*
X102894666Y-48140952D01*
X102847047Y-48188571D01*
X102751809Y-48236190D01*
X102370857Y-48236190D01*
X103370857Y-48331428D02*
X104132761Y-48331428D01*
X104608952Y-48712380D02*
X104608952Y-47712380D01*
X104847047Y-47712380D01*
X104989904Y-47760000D01*
X105085142Y-47855238D01*
X105132761Y-47950476D01*
X105180380Y-48140952D01*
X105180380Y-48283809D01*
X105132761Y-48474285D01*
X105085142Y-48569523D01*
X104989904Y-48664761D01*
X104847047Y-48712380D01*
X104608952Y-48712380D01*
X105799428Y-47712380D02*
X105989904Y-47712380D01*
X106085142Y-47760000D01*
X106180380Y-47855238D01*
X106228000Y-48045714D01*
X106228000Y-48379047D01*
X106180380Y-48569523D01*
X106085142Y-48664761D01*
X105989904Y-48712380D01*
X105799428Y-48712380D01*
X105704190Y-48664761D01*
X105608952Y-48569523D01*
X105561333Y-48379047D01*
X105561333Y-48045714D01*
X105608952Y-47855238D01*
X105704190Y-47760000D01*
X105799428Y-47712380D01*
X106561333Y-47712380D02*
X106799428Y-48712380D01*
X106989904Y-47998095D01*
X107180380Y-48712380D01*
X107418476Y-47712380D01*
X107799428Y-48712380D02*
X107799428Y-47712380D01*
X108370857Y-48712380D01*
X108370857Y-47712380D01*
X109561333Y-48664761D02*
X109704190Y-48712380D01*
X109942285Y-48712380D01*
X110037523Y-48664761D01*
X110085142Y-48617142D01*
X110132761Y-48521904D01*
X110132761Y-48426666D01*
X110085142Y-48331428D01*
X110037523Y-48283809D01*
X109942285Y-48236190D01*
X109751809Y-48188571D01*
X109656571Y-48140952D01*
X109608952Y-48093333D01*
X109561333Y-47998095D01*
X109561333Y-47902857D01*
X109608952Y-47807619D01*
X109656571Y-47760000D01*
X109751809Y-47712380D01*
X109989904Y-47712380D01*
X110132761Y-47760000D01*
X110466095Y-47712380D02*
X110704190Y-48712380D01*
X110894666Y-47998095D01*
X111085142Y-48712380D01*
X111323238Y-47712380D01*
X111704190Y-48712380D02*
X111704190Y-47712380D01*
X112037523Y-47712380D02*
X112608952Y-47712380D01*
X112323238Y-48712380D02*
X112323238Y-47712380D01*
X113513714Y-48617142D02*
X113466095Y-48664761D01*
X113323238Y-48712380D01*
X113228000Y-48712380D01*
X113085142Y-48664761D01*
X112989904Y-48569523D01*
X112942285Y-48474285D01*
X112894666Y-48283809D01*
X112894666Y-48140952D01*
X112942285Y-47950476D01*
X112989904Y-47855238D01*
X113085142Y-47760000D01*
X113228000Y-47712380D01*
X113323238Y-47712380D01*
X113466095Y-47760000D01*
X113513714Y-47807619D01*
X113942285Y-48712380D02*
X113942285Y-47712380D01*
X113942285Y-48188571D02*
X114513714Y-48188571D01*
X114513714Y-48712380D02*
X114513714Y-47712380D01*
X114989904Y-48712380D02*
X114989904Y-47712380D01*
X115466095Y-48712380D02*
X115466095Y-47712380D01*
X116037523Y-48712380D01*
X116037523Y-47712380D01*
X117037523Y-47760000D02*
X116942285Y-47712380D01*
X116799428Y-47712380D01*
X116656571Y-47760000D01*
X116561333Y-47855238D01*
X116513714Y-47950476D01*
X116466095Y-48140952D01*
X116466095Y-48283809D01*
X116513714Y-48474285D01*
X116561333Y-48569523D01*
X116656571Y-48664761D01*
X116799428Y-48712380D01*
X116894666Y-48712380D01*
X117037523Y-48664761D01*
X117085142Y-48617142D01*
X117085142Y-48283809D01*
X116894666Y-48283809D01*
X118847047Y-48712380D02*
X118513714Y-48236190D01*
X118275619Y-48712380D02*
X118275619Y-47712380D01*
X118656571Y-47712380D01*
X118751809Y-47760000D01*
X118799428Y-47807619D01*
X118847047Y-47902857D01*
X118847047Y-48045714D01*
X118799428Y-48140952D01*
X118751809Y-48188571D01*
X118656571Y-48236190D01*
X118275619Y-48236190D01*
X119275619Y-48188571D02*
X119608952Y-48188571D01*
X119751809Y-48712380D02*
X119275619Y-48712380D01*
X119275619Y-47712380D01*
X119751809Y-47712380D01*
X120704190Y-47760000D02*
X120608952Y-47712380D01*
X120466095Y-47712380D01*
X120323238Y-47760000D01*
X120228000Y-47855238D01*
X120180380Y-47950476D01*
X120132761Y-48140952D01*
X120132761Y-48283809D01*
X120180380Y-48474285D01*
X120228000Y-48569523D01*
X120323238Y-48664761D01*
X120466095Y-48712380D01*
X120561333Y-48712380D01*
X120704190Y-48664761D01*
X120751809Y-48617142D01*
X120751809Y-48283809D01*
X120561333Y-48283809D01*
X121180380Y-47712380D02*
X121180380Y-48521904D01*
X121228000Y-48617142D01*
X121275619Y-48664761D01*
X121370857Y-48712380D01*
X121561333Y-48712380D01*
X121656571Y-48664761D01*
X121704190Y-48617142D01*
X121751809Y-48521904D01*
X121751809Y-47712380D01*
X122704190Y-48712380D02*
X122228000Y-48712380D01*
X122228000Y-47712380D01*
X122989904Y-48426666D02*
X123466095Y-48426666D01*
X122894666Y-48712380D02*
X123228000Y-47712380D01*
X123561333Y-48712380D01*
X123751809Y-47712380D02*
X124323238Y-47712380D01*
X124037523Y-48712380D02*
X124037523Y-47712380D01*
X124847047Y-47712380D02*
X125037523Y-47712380D01*
X125132761Y-47760000D01*
X125228000Y-47855238D01*
X125275619Y-48045714D01*
X125275619Y-48379047D01*
X125228000Y-48569523D01*
X125132761Y-48664761D01*
X125037523Y-48712380D01*
X124847047Y-48712380D01*
X124751809Y-48664761D01*
X124656571Y-48569523D01*
X124608952Y-48379047D01*
X124608952Y-48045714D01*
X124656571Y-47855238D01*
X124751809Y-47760000D01*
X124847047Y-47712380D01*
X126275619Y-48712380D02*
X125942285Y-48236190D01*
X125704190Y-48712380D02*
X125704190Y-47712380D01*
X126085142Y-47712380D01*
X126180380Y-47760000D01*
X126228000Y-47807619D01*
X126275619Y-47902857D01*
X126275619Y-48045714D01*
X126228000Y-48140952D01*
X126180380Y-48188571D01*
X126085142Y-48236190D01*
X125704190Y-48236190D01*
D11*
%TO.C,J2*%
X176432253Y-61947195D02*
G75*
G02*
X176287000Y-62660000I-1680253J-28805D01*
G01*
X175435042Y-63511426D02*
G75*
G02*
X174068000Y-63511000I-683042J1535426D01*
G01*
X173216574Y-62659042D02*
G75*
G02*
X173217000Y-61292000I1535426J683042D01*
G01*
X174068958Y-60440574D02*
G75*
G02*
X175436000Y-60441000I683042J-1535426D01*
G01*
X176286756Y-61292682D02*
G75*
G02*
X176432000Y-61976000I-1534756J-683318D01*
G01*
X176432000Y-56896000D02*
G75*
G03*
X176432000Y-56896000I-1680000J0D01*
G01*
X178852000Y-64576000D02*
X178852000Y-54296000D01*
X177352000Y-64576000D02*
X177352000Y-54296000D01*
X172451000Y-64576000D02*
X172451000Y-54296000D01*
X169491000Y-64576000D02*
X169491000Y-54296000D01*
X179412000Y-64576000D02*
X179412000Y-54296000D01*
X169491000Y-64576000D02*
X179412000Y-64576000D01*
X169491000Y-54296000D02*
X179412000Y-54296000D01*
X173683000Y-55621000D02*
X173729000Y-55668000D01*
X175991000Y-57930000D02*
X176026000Y-57965000D01*
X173477000Y-55826000D02*
X173513000Y-55861000D01*
X175775000Y-58123000D02*
X175821000Y-58170000D01*
X178912000Y-64816000D02*
X179652000Y-64816000D01*
X179652000Y-64816000D02*
X179652000Y-64316000D01*
%TO.C,J1*%
X91156747Y-57940805D02*
G75*
G02*
X91302000Y-57228000I1680253J28805D01*
G01*
X92153958Y-56376574D02*
G75*
G02*
X93521000Y-56377000I683042J-1535426D01*
G01*
X94372426Y-57228958D02*
G75*
G02*
X94372000Y-58596000I-1535426J-683042D01*
G01*
X93520042Y-59447426D02*
G75*
G02*
X92153000Y-59447000I-683042J1535426D01*
G01*
X91302244Y-58595318D02*
G75*
G02*
X91157000Y-57912000I1534756J683318D01*
G01*
X94517000Y-62992000D02*
G75*
G03*
X94517000Y-62992000I-1680000J0D01*
G01*
X88737000Y-55312000D02*
X88737000Y-65592000D01*
X90237000Y-55312000D02*
X90237000Y-65592000D01*
X95138000Y-55312000D02*
X95138000Y-65592000D01*
X98098000Y-55312000D02*
X98098000Y-65592000D01*
X88177000Y-55312000D02*
X88177000Y-65592000D01*
X98098000Y-55312000D02*
X88177000Y-55312000D01*
X98098000Y-65592000D02*
X88177000Y-65592000D01*
X93906000Y-64267000D02*
X93860000Y-64220000D01*
X91598000Y-61958000D02*
X91563000Y-61923000D01*
X94112000Y-64062000D02*
X94076000Y-64027000D01*
X91814000Y-61765000D02*
X91768000Y-61718000D01*
X88677000Y-55072000D02*
X87937000Y-55072000D01*
X87937000Y-55072000D02*
X87937000Y-55572000D01*
%TO.C,C2*%
X115130000Y-62375252D02*
X115130000Y-60052748D01*
X118550000Y-62375252D02*
X118550000Y-60052748D01*
%TO.C,C5*%
X123139252Y-67204000D02*
X121716748Y-67204000D01*
X123139252Y-65384000D02*
X121716748Y-65384000D01*
%TO.C,R7*%
X142151263Y-60494000D02*
X143598737Y-60494000D01*
X142151263Y-63204000D02*
X143598737Y-63204000D01*
%TO.C,C8*%
X125702748Y-56790000D02*
X127125252Y-56790000D01*
X125702748Y-54970000D02*
X127125252Y-54970000D01*
%TO.C,U1*%
X129310000Y-64779997D02*
X132310000Y-64779997D01*
X127309999Y-59529998D02*
X132310000Y-59529998D01*
%TO.C,R6*%
X145267000Y-71531564D02*
X145267000Y-70077436D01*
X147087000Y-71531564D02*
X147087000Y-70077436D01*
%TO.C,R5*%
X150273936Y-71353000D02*
X151728064Y-71353000D01*
X150273936Y-73173000D02*
X151728064Y-73173000D01*
%TO.C,R4*%
X121192936Y-60177000D02*
X122647064Y-60177000D01*
X121192936Y-61997000D02*
X122647064Y-61997000D01*
%TO.C,R3*%
X127783000Y-68553436D02*
X127783000Y-70007564D01*
X125963000Y-68553436D02*
X125963000Y-70007564D01*
%TO.C,L1*%
X163780000Y-54100000D02*
X163780000Y-57100000D01*
X163780000Y-57100000D02*
X151180000Y-57100000D01*
X151180000Y-57100000D02*
X151180000Y-54100000D01*
X151180000Y-47500000D02*
X151180000Y-44500000D01*
X151180000Y-44500000D02*
X163780000Y-44500000D01*
X163780000Y-44500000D02*
X163780000Y-47500000D01*
%TO.C,D1*%
X148408000Y-52884000D02*
X148408000Y-59384000D01*
X148408000Y-52884000D02*
X140008000Y-52884000D01*
X148408000Y-59384000D02*
X140008000Y-59384000D01*
%TO.C,C11*%
X150571252Y-62886000D02*
X149148748Y-62886000D01*
X150571252Y-61066000D02*
X149148748Y-61066000D01*
%TO.C,C10*%
X153750000Y-62695000D02*
X153750000Y-63695000D01*
X153250000Y-63195000D02*
X154250000Y-63195000D01*
X154490000Y-68600563D02*
X155554437Y-69665000D01*
X154490000Y-62209437D02*
X155554437Y-61145000D01*
X154490000Y-62209437D02*
X154490000Y-64195000D01*
X154490000Y-68600563D02*
X154490000Y-66615000D01*
X155554437Y-69665000D02*
X163010000Y-69665000D01*
X155554437Y-61145000D02*
X163010000Y-61145000D01*
X163010000Y-61145000D02*
X163010000Y-64195000D01*
X163010000Y-69665000D02*
X163010000Y-66615000D01*
%TO.C,C9*%
X167788000Y-57708748D02*
X167788000Y-59131252D01*
X165968000Y-57708748D02*
X165968000Y-59131252D01*
%TO.C,C7*%
X133426252Y-54970000D02*
X132003748Y-54970000D01*
X133426252Y-56790000D02*
X132003748Y-56790000D01*
%TO.C,C4*%
X139340000Y-69138748D02*
X139340000Y-70561252D01*
X137520000Y-69138748D02*
X137520000Y-70561252D01*
%TO.C,C3*%
X131170000Y-68933748D02*
X131170000Y-70356252D01*
X132990000Y-68933748D02*
X132990000Y-70356252D01*
%TO.C,C1*%
X113090000Y-61468000D02*
G75*
G03*
X113090000Y-61468000I-6370000J0D01*
G01*
X106720000Y-67798000D02*
X106720000Y-55138000D01*
X106680000Y-67798000D02*
X106680000Y-55138000D01*
X106640000Y-67798000D02*
X106640000Y-55138000D01*
X106600000Y-67797000D02*
X106600000Y-55139000D01*
X106560000Y-67796000D02*
X106560000Y-55140000D01*
X106520000Y-67795000D02*
X106520000Y-55141000D01*
X106480000Y-67794000D02*
X106480000Y-55142000D01*
X106440000Y-67792000D02*
X106440000Y-55144000D01*
X106400000Y-67790000D02*
X106400000Y-55146000D01*
X106360000Y-67788000D02*
X106360000Y-55148000D01*
X106320000Y-67786000D02*
X106320000Y-55150000D01*
X106280000Y-67783000D02*
X106280000Y-55153000D01*
X106240000Y-67780000D02*
X106240000Y-55156000D01*
X106200000Y-67777000D02*
X106200000Y-55159000D01*
X106160000Y-67774000D02*
X106160000Y-55162000D01*
X106120000Y-67770000D02*
X106120000Y-55166000D01*
X106080000Y-67766000D02*
X106080000Y-55170000D01*
X106040000Y-67762000D02*
X106040000Y-55174000D01*
X105999000Y-67758000D02*
X105999000Y-55178000D01*
X105959000Y-67753000D02*
X105959000Y-55183000D01*
X105919000Y-67748000D02*
X105919000Y-55188000D01*
X105879000Y-67743000D02*
X105879000Y-55193000D01*
X105839000Y-67737000D02*
X105839000Y-55199000D01*
X105799000Y-67732000D02*
X105799000Y-55204000D01*
X105759000Y-67726000D02*
X105759000Y-55210000D01*
X105719000Y-67720000D02*
X105719000Y-55216000D01*
X105679000Y-67713000D02*
X105679000Y-55223000D01*
X105639000Y-67706000D02*
X105639000Y-62908000D01*
X105639000Y-60028000D02*
X105639000Y-55230000D01*
X105599000Y-67699000D02*
X105599000Y-62908000D01*
X105599000Y-60028000D02*
X105599000Y-55237000D01*
X105559000Y-67692000D02*
X105559000Y-62908000D01*
X105559000Y-60028000D02*
X105559000Y-55244000D01*
X105519000Y-67684000D02*
X105519000Y-62908000D01*
X105519000Y-60028000D02*
X105519000Y-55252000D01*
X105479000Y-67677000D02*
X105479000Y-62908000D01*
X105479000Y-60028000D02*
X105479000Y-55259000D01*
X105439000Y-67669000D02*
X105439000Y-62908000D01*
X105439000Y-60028000D02*
X105439000Y-55267000D01*
X105399000Y-67660000D02*
X105399000Y-62908000D01*
X105399000Y-60028000D02*
X105399000Y-55276000D01*
X105359000Y-67652000D02*
X105359000Y-62908000D01*
X105359000Y-60028000D02*
X105359000Y-55284000D01*
X105319000Y-67643000D02*
X105319000Y-62908000D01*
X105319000Y-60028000D02*
X105319000Y-55293000D01*
X105279000Y-67634000D02*
X105279000Y-62908000D01*
X105279000Y-60028000D02*
X105279000Y-55302000D01*
X105239000Y-67624000D02*
X105239000Y-62908000D01*
X105239000Y-60028000D02*
X105239000Y-55312000D01*
X105199000Y-67614000D02*
X105199000Y-62908000D01*
X105199000Y-60028000D02*
X105199000Y-55322000D01*
X105159000Y-67605000D02*
X105159000Y-62908000D01*
X105159000Y-60028000D02*
X105159000Y-55331000D01*
X105119000Y-67594000D02*
X105119000Y-62908000D01*
X105119000Y-60028000D02*
X105119000Y-55342000D01*
X105079000Y-67584000D02*
X105079000Y-62908000D01*
X105079000Y-60028000D02*
X105079000Y-55352000D01*
X105039000Y-67573000D02*
X105039000Y-62908000D01*
X105039000Y-60028000D02*
X105039000Y-55363000D01*
X104999000Y-67562000D02*
X104999000Y-62908000D01*
X104999000Y-60028000D02*
X104999000Y-55374000D01*
X104959000Y-67551000D02*
X104959000Y-62908000D01*
X104959000Y-60028000D02*
X104959000Y-55385000D01*
X104919000Y-67539000D02*
X104919000Y-62908000D01*
X104919000Y-60028000D02*
X104919000Y-55397000D01*
X104879000Y-67527000D02*
X104879000Y-62908000D01*
X104879000Y-60028000D02*
X104879000Y-55409000D01*
X104839000Y-67515000D02*
X104839000Y-62908000D01*
X104839000Y-60028000D02*
X104839000Y-55421000D01*
X104799000Y-67502000D02*
X104799000Y-62908000D01*
X104799000Y-60028000D02*
X104799000Y-55434000D01*
X104759000Y-67489000D02*
X104759000Y-62908000D01*
X104759000Y-60028000D02*
X104759000Y-55447000D01*
X104719000Y-67476000D02*
X104719000Y-62908000D01*
X104719000Y-60028000D02*
X104719000Y-55460000D01*
X104679000Y-67463000D02*
X104679000Y-62908000D01*
X104679000Y-60028000D02*
X104679000Y-55473000D01*
X104639000Y-67449000D02*
X104639000Y-62908000D01*
X104639000Y-60028000D02*
X104639000Y-55487000D01*
X104599000Y-67435000D02*
X104599000Y-62908000D01*
X104599000Y-60028000D02*
X104599000Y-55501000D01*
X104559000Y-67421000D02*
X104559000Y-62908000D01*
X104559000Y-60028000D02*
X104559000Y-55515000D01*
X104519000Y-67407000D02*
X104519000Y-62908000D01*
X104519000Y-60028000D02*
X104519000Y-55529000D01*
X104479000Y-67392000D02*
X104479000Y-62908000D01*
X104479000Y-60028000D02*
X104479000Y-55544000D01*
X104439000Y-67376000D02*
X104439000Y-62908000D01*
X104439000Y-60028000D02*
X104439000Y-55560000D01*
X104399000Y-67361000D02*
X104399000Y-62908000D01*
X104399000Y-60028000D02*
X104399000Y-55575000D01*
X104359000Y-67345000D02*
X104359000Y-62908000D01*
X104359000Y-60028000D02*
X104359000Y-55591000D01*
X104319000Y-67329000D02*
X104319000Y-62908000D01*
X104319000Y-60028000D02*
X104319000Y-55607000D01*
X104279000Y-67313000D02*
X104279000Y-62908000D01*
X104279000Y-60028000D02*
X104279000Y-55623000D01*
X104239000Y-67296000D02*
X104239000Y-62908000D01*
X104239000Y-60028000D02*
X104239000Y-55640000D01*
X104199000Y-67279000D02*
X104199000Y-62908000D01*
X104199000Y-60028000D02*
X104199000Y-55657000D01*
X104159000Y-67261000D02*
X104159000Y-62908000D01*
X104159000Y-60028000D02*
X104159000Y-55675000D01*
X104119000Y-67244000D02*
X104119000Y-62908000D01*
X104119000Y-60028000D02*
X104119000Y-55692000D01*
X104079000Y-67226000D02*
X104079000Y-62908000D01*
X104079000Y-60028000D02*
X104079000Y-55710000D01*
X104039000Y-67207000D02*
X104039000Y-62908000D01*
X104039000Y-60028000D02*
X104039000Y-55729000D01*
X103999000Y-67189000D02*
X103999000Y-62908000D01*
X103999000Y-60028000D02*
X103999000Y-55747000D01*
X103959000Y-67170000D02*
X103959000Y-62908000D01*
X103959000Y-60028000D02*
X103959000Y-55766000D01*
X103919000Y-67150000D02*
X103919000Y-62908000D01*
X103919000Y-60028000D02*
X103919000Y-55786000D01*
X103879000Y-67130000D02*
X103879000Y-62908000D01*
X103879000Y-60028000D02*
X103879000Y-55806000D01*
X103839000Y-67110000D02*
X103839000Y-62908000D01*
X103839000Y-60028000D02*
X103839000Y-55826000D01*
X103799000Y-67090000D02*
X103799000Y-62908000D01*
X103799000Y-60028000D02*
X103799000Y-55846000D01*
X103759000Y-67069000D02*
X103759000Y-62908000D01*
X103759000Y-60028000D02*
X103759000Y-55867000D01*
X103719000Y-67048000D02*
X103719000Y-62908000D01*
X103719000Y-60028000D02*
X103719000Y-55888000D01*
X103679000Y-67026000D02*
X103679000Y-62908000D01*
X103679000Y-60028000D02*
X103679000Y-55910000D01*
X103639000Y-67004000D02*
X103639000Y-62908000D01*
X103639000Y-60028000D02*
X103639000Y-55932000D01*
X103599000Y-66982000D02*
X103599000Y-62908000D01*
X103599000Y-60028000D02*
X103599000Y-55954000D01*
X103559000Y-66959000D02*
X103559000Y-62908000D01*
X103559000Y-60028000D02*
X103559000Y-55977000D01*
X103519000Y-66936000D02*
X103519000Y-62908000D01*
X103519000Y-60028000D02*
X103519000Y-56000000D01*
X103479000Y-66913000D02*
X103479000Y-62908000D01*
X103479000Y-60028000D02*
X103479000Y-56023000D01*
X103439000Y-66889000D02*
X103439000Y-62908000D01*
X103439000Y-60028000D02*
X103439000Y-56047000D01*
X103399000Y-66865000D02*
X103399000Y-62908000D01*
X103399000Y-60028000D02*
X103399000Y-56071000D01*
X103359000Y-66840000D02*
X103359000Y-62908000D01*
X103359000Y-60028000D02*
X103359000Y-56096000D01*
X103319000Y-66815000D02*
X103319000Y-62908000D01*
X103319000Y-60028000D02*
X103319000Y-56121000D01*
X103279000Y-66790000D02*
X103279000Y-62908000D01*
X103279000Y-60028000D02*
X103279000Y-56146000D01*
X103239000Y-66764000D02*
X103239000Y-62908000D01*
X103239000Y-60028000D02*
X103239000Y-56172000D01*
X103199000Y-66738000D02*
X103199000Y-62908000D01*
X103199000Y-60028000D02*
X103199000Y-56198000D01*
X103159000Y-66711000D02*
X103159000Y-62908000D01*
X103159000Y-60028000D02*
X103159000Y-56225000D01*
X103119000Y-66684000D02*
X103119000Y-62908000D01*
X103119000Y-60028000D02*
X103119000Y-56252000D01*
X103079000Y-66656000D02*
X103079000Y-62908000D01*
X103079000Y-60028000D02*
X103079000Y-56280000D01*
X103039000Y-66628000D02*
X103039000Y-62908000D01*
X103039000Y-60028000D02*
X103039000Y-56308000D01*
X102999000Y-66599000D02*
X102999000Y-62908000D01*
X102999000Y-60028000D02*
X102999000Y-56337000D01*
X102959000Y-66570000D02*
X102959000Y-62908000D01*
X102959000Y-60028000D02*
X102959000Y-56366000D01*
X102919000Y-66541000D02*
X102919000Y-62908000D01*
X102919000Y-60028000D02*
X102919000Y-56395000D01*
X102879000Y-66511000D02*
X102879000Y-62908000D01*
X102879000Y-60028000D02*
X102879000Y-56425000D01*
X102839000Y-66480000D02*
X102839000Y-62908000D01*
X102839000Y-60028000D02*
X102839000Y-56456000D01*
X102799000Y-66450000D02*
X102799000Y-62908000D01*
X102799000Y-60028000D02*
X102799000Y-56486000D01*
X102759000Y-66418000D02*
X102759000Y-56518000D01*
X102719000Y-66386000D02*
X102719000Y-56550000D01*
X102679000Y-66353000D02*
X102679000Y-56583000D01*
X102639000Y-66320000D02*
X102639000Y-56616000D01*
X102599000Y-66287000D02*
X102599000Y-56649000D01*
X102559000Y-66253000D02*
X102559000Y-56683000D01*
X102519000Y-66218000D02*
X102519000Y-56718000D01*
X102479000Y-66182000D02*
X102479000Y-56754000D01*
X102439000Y-66146000D02*
X102439000Y-56790000D01*
X102399000Y-66110000D02*
X102399000Y-56826000D01*
X102359000Y-66073000D02*
X102359000Y-56863000D01*
X102319000Y-66035000D02*
X102319000Y-56901000D01*
X102279000Y-65996000D02*
X102279000Y-56940000D01*
X102239000Y-65957000D02*
X102239000Y-56979000D01*
X102199000Y-65917000D02*
X102199000Y-57019000D01*
X102159000Y-65876000D02*
X102159000Y-57060000D01*
X102119000Y-65835000D02*
X102119000Y-57101000D01*
X102079000Y-65793000D02*
X102079000Y-57143000D01*
X102039000Y-65750000D02*
X102039000Y-57186000D01*
X101999000Y-65706000D02*
X101999000Y-57230000D01*
X101959000Y-65662000D02*
X101959000Y-57274000D01*
X101919000Y-65616000D02*
X101919000Y-57320000D01*
X101879000Y-65570000D02*
X101879000Y-57366000D01*
X101839000Y-65523000D02*
X101839000Y-57413000D01*
X101799000Y-65475000D02*
X101799000Y-57461000D01*
X101759000Y-65425000D02*
X101759000Y-57511000D01*
X101719000Y-65375000D02*
X101719000Y-57561000D01*
X101679000Y-65324000D02*
X101679000Y-57612000D01*
X101639000Y-65272000D02*
X101639000Y-57664000D01*
X101599000Y-65218000D02*
X101599000Y-57718000D01*
X101559000Y-65164000D02*
X101559000Y-57772000D01*
X101519000Y-65108000D02*
X101519000Y-57828000D01*
X101479000Y-65051000D02*
X101479000Y-57885000D01*
X101439000Y-64992000D02*
X101439000Y-57944000D01*
X101399000Y-64932000D02*
X101399000Y-58004000D01*
X101359000Y-64870000D02*
X101359000Y-58066000D01*
X101319000Y-64807000D02*
X101319000Y-58129000D01*
X101279000Y-64743000D02*
X101279000Y-58193000D01*
X101239000Y-64676000D02*
X101239000Y-58260000D01*
X101199000Y-64608000D02*
X101199000Y-58328000D01*
X101159000Y-64537000D02*
X101159000Y-58399000D01*
X101119000Y-64464000D02*
X101119000Y-58472000D01*
X101079000Y-64389000D02*
X101079000Y-58547000D01*
X101039000Y-64312000D02*
X101039000Y-58624000D01*
X100999000Y-64232000D02*
X100999000Y-58704000D01*
X100959000Y-64149000D02*
X100959000Y-58787000D01*
X100919000Y-64062000D02*
X100919000Y-58874000D01*
X100879000Y-63972000D02*
X100879000Y-58964000D01*
X100839000Y-63878000D02*
X100839000Y-59058000D01*
X100799000Y-63780000D02*
X100799000Y-59156000D01*
X100759000Y-63677000D02*
X100759000Y-59259000D01*
X100719000Y-63568000D02*
X100719000Y-59368000D01*
X100679000Y-63452000D02*
X100679000Y-59484000D01*
X100639000Y-63329000D02*
X100639000Y-59607000D01*
X100599000Y-63196000D02*
X100599000Y-59740000D01*
X100559000Y-63051000D02*
X100559000Y-59885000D01*
X100519000Y-62890000D02*
X100519000Y-60046000D01*
X100479000Y-62709000D02*
X100479000Y-60227000D01*
X100439000Y-62496000D02*
X100439000Y-60440000D01*
X100399000Y-62225000D02*
X100399000Y-60711000D01*
X100359000Y-61785000D02*
X100359000Y-61151000D01*
X113537082Y-65043000D02*
X112287082Y-65043000D01*
X112912082Y-65668000D02*
X112912082Y-64418000D01*
%TO.C,J2*%
D12*
X174926666Y-65238380D02*
X174926666Y-65952666D01*
X174879047Y-66095523D01*
X174783809Y-66190761D01*
X174640952Y-66238380D01*
X174545714Y-66238380D01*
X175355238Y-65333619D02*
X175402857Y-65286000D01*
X175498095Y-65238380D01*
X175736190Y-65238380D01*
X175831428Y-65286000D01*
X175879047Y-65333619D01*
X175926666Y-65428857D01*
X175926666Y-65524095D01*
X175879047Y-65666952D01*
X175307619Y-66238380D01*
X175926666Y-66238380D01*
%TO.C,J1*%
X92249666Y-66508380D02*
X92249666Y-67222666D01*
X92202047Y-67365523D01*
X92106809Y-67460761D01*
X91963952Y-67508380D01*
X91868714Y-67508380D01*
X93249666Y-67508380D02*
X92678238Y-67508380D01*
X92963952Y-67508380D02*
X92963952Y-66508380D01*
X92868714Y-66651238D01*
X92773476Y-66746476D01*
X92678238Y-66794095D01*
%TO.C,C2*%
X116673333Y-56999142D02*
X116625714Y-57046761D01*
X116482857Y-57094380D01*
X116387619Y-57094380D01*
X116244761Y-57046761D01*
X116149523Y-56951523D01*
X116101904Y-56856285D01*
X116054285Y-56665809D01*
X116054285Y-56522952D01*
X116101904Y-56332476D01*
X116149523Y-56237238D01*
X116244761Y-56142000D01*
X116387619Y-56094380D01*
X116482857Y-56094380D01*
X116625714Y-56142000D01*
X116673333Y-56189619D01*
X117054285Y-56189619D02*
X117101904Y-56142000D01*
X117197142Y-56094380D01*
X117435238Y-56094380D01*
X117530476Y-56142000D01*
X117578095Y-56189619D01*
X117625714Y-56284857D01*
X117625714Y-56380095D01*
X117578095Y-56522952D01*
X117006666Y-57094380D01*
X117625714Y-57094380D01*
%TO.C,C5*%
X122007333Y-64619142D02*
X121959714Y-64666761D01*
X121816857Y-64714380D01*
X121721619Y-64714380D01*
X121578761Y-64666761D01*
X121483523Y-64571523D01*
X121435904Y-64476285D01*
X121388285Y-64285809D01*
X121388285Y-64142952D01*
X121435904Y-63952476D01*
X121483523Y-63857238D01*
X121578761Y-63762000D01*
X121721619Y-63714380D01*
X121816857Y-63714380D01*
X121959714Y-63762000D01*
X122007333Y-63809619D01*
X122912095Y-63714380D02*
X122435904Y-63714380D01*
X122388285Y-64190571D01*
X122435904Y-64142952D01*
X122531142Y-64095333D01*
X122769238Y-64095333D01*
X122864476Y-64142952D01*
X122912095Y-64190571D01*
X122959714Y-64285809D01*
X122959714Y-64523904D01*
X122912095Y-64619142D01*
X122864476Y-64666761D01*
X122769238Y-64714380D01*
X122531142Y-64714380D01*
X122435904Y-64666761D01*
X122388285Y-64619142D01*
%TO.C,R7*%
X139533333Y-62174380D02*
X139200000Y-61698190D01*
X138961904Y-62174380D02*
X138961904Y-61174380D01*
X139342857Y-61174380D01*
X139438095Y-61222000D01*
X139485714Y-61269619D01*
X139533333Y-61364857D01*
X139533333Y-61507714D01*
X139485714Y-61602952D01*
X139438095Y-61650571D01*
X139342857Y-61698190D01*
X138961904Y-61698190D01*
X139866666Y-61174380D02*
X140533333Y-61174380D01*
X140104761Y-62174380D01*
%TO.C,C8*%
X126247333Y-54332142D02*
X126199714Y-54379761D01*
X126056857Y-54427380D01*
X125961619Y-54427380D01*
X125818761Y-54379761D01*
X125723523Y-54284523D01*
X125675904Y-54189285D01*
X125628285Y-53998809D01*
X125628285Y-53855952D01*
X125675904Y-53665476D01*
X125723523Y-53570238D01*
X125818761Y-53475000D01*
X125961619Y-53427380D01*
X126056857Y-53427380D01*
X126199714Y-53475000D01*
X126247333Y-53522619D01*
X126818761Y-53855952D02*
X126723523Y-53808333D01*
X126675904Y-53760714D01*
X126628285Y-53665476D01*
X126628285Y-53617857D01*
X126675904Y-53522619D01*
X126723523Y-53475000D01*
X126818761Y-53427380D01*
X127009238Y-53427380D01*
X127104476Y-53475000D01*
X127152095Y-53522619D01*
X127199714Y-53617857D01*
X127199714Y-53665476D01*
X127152095Y-53760714D01*
X127104476Y-53808333D01*
X127009238Y-53855952D01*
X126818761Y-53855952D01*
X126723523Y-53903571D01*
X126675904Y-53951190D01*
X126628285Y-54046428D01*
X126628285Y-54236904D01*
X126675904Y-54332142D01*
X126723523Y-54379761D01*
X126818761Y-54427380D01*
X127009238Y-54427380D01*
X127104476Y-54379761D01*
X127152095Y-54332142D01*
X127199714Y-54236904D01*
X127199714Y-54046428D01*
X127152095Y-53951190D01*
X127104476Y-53903571D01*
X127009238Y-53855952D01*
%TO.C,U1*%
X130048095Y-64984380D02*
X130048095Y-65793904D01*
X130095714Y-65889142D01*
X130143333Y-65936761D01*
X130238571Y-65984380D01*
X130429047Y-65984380D01*
X130524285Y-65936761D01*
X130571904Y-65889142D01*
X130619523Y-65793904D01*
X130619523Y-64984380D01*
X131619523Y-65984380D02*
X131048095Y-65984380D01*
X131333809Y-65984380D02*
X131333809Y-64984380D01*
X131238571Y-65127238D01*
X131143333Y-65222476D01*
X131048095Y-65270095D01*
X127802095Y-59253380D02*
X127325904Y-59253380D01*
X127325904Y-58253380D01*
X128135428Y-59253380D02*
X128135428Y-58253380D01*
X128468761Y-58967666D01*
X128802095Y-58253380D01*
X128802095Y-59253380D01*
X129754476Y-58253380D02*
X129278285Y-58253380D01*
X129230666Y-58729571D01*
X129278285Y-58681952D01*
X129373523Y-58634333D01*
X129611619Y-58634333D01*
X129706857Y-58681952D01*
X129754476Y-58729571D01*
X129802095Y-58824809D01*
X129802095Y-59062904D01*
X129754476Y-59158142D01*
X129706857Y-59205761D01*
X129611619Y-59253380D01*
X129373523Y-59253380D01*
X129278285Y-59205761D01*
X129230666Y-59158142D01*
X130706857Y-58253380D02*
X130230666Y-58253380D01*
X130183047Y-58729571D01*
X130230666Y-58681952D01*
X130325904Y-58634333D01*
X130564000Y-58634333D01*
X130659238Y-58681952D01*
X130706857Y-58729571D01*
X130754476Y-58824809D01*
X130754476Y-59062904D01*
X130706857Y-59158142D01*
X130659238Y-59205761D01*
X130564000Y-59253380D01*
X130325904Y-59253380D01*
X130230666Y-59205761D01*
X130183047Y-59158142D01*
X131087809Y-58253380D02*
X131754476Y-58253380D01*
X131325904Y-59253380D01*
X132611619Y-58253380D02*
X132135428Y-58253380D01*
X132087809Y-58729571D01*
X132135428Y-58681952D01*
X132230666Y-58634333D01*
X132468761Y-58634333D01*
X132564000Y-58681952D01*
X132611619Y-58729571D01*
X132659238Y-58824809D01*
X132659238Y-59062904D01*
X132611619Y-59158142D01*
X132564000Y-59205761D01*
X132468761Y-59253380D01*
X132230666Y-59253380D01*
X132135428Y-59205761D01*
X132087809Y-59158142D01*
X133087809Y-59253380D02*
X133087809Y-58253380D01*
X133421142Y-58967666D01*
X133754476Y-58253380D01*
X133754476Y-59253380D01*
X134230666Y-59253380D02*
X134230666Y-58253380D01*
X134230666Y-58729571D02*
X134802095Y-58729571D01*
X134802095Y-59253380D02*
X134802095Y-58253380D01*
X130810000Y-61682380D02*
X130810000Y-61920476D01*
X130571904Y-61825238D02*
X130810000Y-61920476D01*
X131048095Y-61825238D01*
X130667142Y-62110952D02*
X130810000Y-61920476D01*
X130952857Y-62110952D01*
%TO.C,R6*%
X146010333Y-68016380D02*
X145677000Y-67540190D01*
X145438904Y-68016380D02*
X145438904Y-67016380D01*
X145819857Y-67016380D01*
X145915095Y-67064000D01*
X145962714Y-67111619D01*
X146010333Y-67206857D01*
X146010333Y-67349714D01*
X145962714Y-67444952D01*
X145915095Y-67492571D01*
X145819857Y-67540190D01*
X145438904Y-67540190D01*
X146867476Y-67016380D02*
X146677000Y-67016380D01*
X146581761Y-67064000D01*
X146534142Y-67111619D01*
X146438904Y-67254476D01*
X146391285Y-67444952D01*
X146391285Y-67825904D01*
X146438904Y-67921142D01*
X146486523Y-67968761D01*
X146581761Y-68016380D01*
X146772238Y-68016380D01*
X146867476Y-67968761D01*
X146915095Y-67921142D01*
X146962714Y-67825904D01*
X146962714Y-67587809D01*
X146915095Y-67492571D01*
X146867476Y-67444952D01*
X146772238Y-67397333D01*
X146581761Y-67397333D01*
X146486523Y-67444952D01*
X146438904Y-67492571D01*
X146391285Y-67587809D01*
%TO.C,R5*%
X150961333Y-71064380D02*
X150628000Y-70588190D01*
X150389904Y-71064380D02*
X150389904Y-70064380D01*
X150770857Y-70064380D01*
X150866095Y-70112000D01*
X150913714Y-70159619D01*
X150961333Y-70254857D01*
X150961333Y-70397714D01*
X150913714Y-70492952D01*
X150866095Y-70540571D01*
X150770857Y-70588190D01*
X150389904Y-70588190D01*
X151866095Y-70064380D02*
X151389904Y-70064380D01*
X151342285Y-70540571D01*
X151389904Y-70492952D01*
X151485142Y-70445333D01*
X151723238Y-70445333D01*
X151818476Y-70492952D01*
X151866095Y-70540571D01*
X151913714Y-70635809D01*
X151913714Y-70873904D01*
X151866095Y-70969142D01*
X151818476Y-71016761D01*
X151723238Y-71064380D01*
X151485142Y-71064380D01*
X151389904Y-71016761D01*
X151342285Y-70969142D01*
%TO.C,R4*%
X121753333Y-59126380D02*
X121420000Y-58650190D01*
X121181904Y-59126380D02*
X121181904Y-58126380D01*
X121562857Y-58126380D01*
X121658095Y-58174000D01*
X121705714Y-58221619D01*
X121753333Y-58316857D01*
X121753333Y-58459714D01*
X121705714Y-58554952D01*
X121658095Y-58602571D01*
X121562857Y-58650190D01*
X121181904Y-58650190D01*
X122610476Y-58459714D02*
X122610476Y-59126380D01*
X122372380Y-58078761D02*
X122134285Y-58793047D01*
X122753333Y-58793047D01*
%TO.C,R3*%
X126579333Y-66684880D02*
X126246000Y-66208690D01*
X126007904Y-66684880D02*
X126007904Y-65684880D01*
X126388857Y-65684880D01*
X126484095Y-65732500D01*
X126531714Y-65780119D01*
X126579333Y-65875357D01*
X126579333Y-66018214D01*
X126531714Y-66113452D01*
X126484095Y-66161071D01*
X126388857Y-66208690D01*
X126007904Y-66208690D01*
X126912666Y-65684880D02*
X127531714Y-65684880D01*
X127198380Y-66065833D01*
X127341238Y-66065833D01*
X127436476Y-66113452D01*
X127484095Y-66161071D01*
X127531714Y-66256309D01*
X127531714Y-66494404D01*
X127484095Y-66589642D01*
X127436476Y-66637261D01*
X127341238Y-66684880D01*
X127055523Y-66684880D01*
X126960285Y-66637261D01*
X126912666Y-66589642D01*
%TO.C,L1*%
X157313333Y-46172380D02*
X156837142Y-46172380D01*
X156837142Y-45172380D01*
X158170476Y-46172380D02*
X157599047Y-46172380D01*
X157884761Y-46172380D02*
X157884761Y-45172380D01*
X157789523Y-45315238D01*
X157694285Y-45410476D01*
X157599047Y-45458095D01*
%TO.C,D1*%
X142869904Y-52522380D02*
X142869904Y-51522380D01*
X143108000Y-51522380D01*
X143250857Y-51570000D01*
X143346095Y-51665238D01*
X143393714Y-51760476D01*
X143441333Y-51950952D01*
X143441333Y-52093809D01*
X143393714Y-52284285D01*
X143346095Y-52379523D01*
X143250857Y-52474761D01*
X143108000Y-52522380D01*
X142869904Y-52522380D01*
X144393714Y-52522380D02*
X143822285Y-52522380D01*
X144108000Y-52522380D02*
X144108000Y-51522380D01*
X144012761Y-51665238D01*
X143917523Y-51760476D01*
X143822285Y-51808095D01*
%TO.C,C11*%
X148455142Y-60555142D02*
X148407523Y-60602761D01*
X148264666Y-60650380D01*
X148169428Y-60650380D01*
X148026571Y-60602761D01*
X147931333Y-60507523D01*
X147883714Y-60412285D01*
X147836095Y-60221809D01*
X147836095Y-60078952D01*
X147883714Y-59888476D01*
X147931333Y-59793238D01*
X148026571Y-59698000D01*
X148169428Y-59650380D01*
X148264666Y-59650380D01*
X148407523Y-59698000D01*
X148455142Y-59745619D01*
X149407523Y-60650380D02*
X148836095Y-60650380D01*
X149121809Y-60650380D02*
X149121809Y-59650380D01*
X149026571Y-59793238D01*
X148931333Y-59888476D01*
X148836095Y-59936095D01*
X150359904Y-60650380D02*
X149788476Y-60650380D01*
X150074190Y-60650380D02*
X150074190Y-59650380D01*
X149978952Y-59793238D01*
X149883714Y-59888476D01*
X149788476Y-59936095D01*
%TO.C,C10*%
X157853142Y-60562142D02*
X157805523Y-60609761D01*
X157662666Y-60657380D01*
X157567428Y-60657380D01*
X157424571Y-60609761D01*
X157329333Y-60514523D01*
X157281714Y-60419285D01*
X157234095Y-60228809D01*
X157234095Y-60085952D01*
X157281714Y-59895476D01*
X157329333Y-59800238D01*
X157424571Y-59705000D01*
X157567428Y-59657380D01*
X157662666Y-59657380D01*
X157805523Y-59705000D01*
X157853142Y-59752619D01*
X158805523Y-60657380D02*
X158234095Y-60657380D01*
X158519809Y-60657380D02*
X158519809Y-59657380D01*
X158424571Y-59800238D01*
X158329333Y-59895476D01*
X158234095Y-59943095D01*
X159424571Y-59657380D02*
X159519809Y-59657380D01*
X159615047Y-59705000D01*
X159662666Y-59752619D01*
X159710285Y-59847857D01*
X159757904Y-60038333D01*
X159757904Y-60276428D01*
X159710285Y-60466904D01*
X159662666Y-60562142D01*
X159615047Y-60609761D01*
X159519809Y-60657380D01*
X159424571Y-60657380D01*
X159329333Y-60609761D01*
X159281714Y-60562142D01*
X159234095Y-60466904D01*
X159186476Y-60276428D01*
X159186476Y-60038333D01*
X159234095Y-59847857D01*
X159281714Y-59752619D01*
X159329333Y-59705000D01*
X159424571Y-59657380D01*
%TO.C,C9*%
X166711333Y-55729142D02*
X166663714Y-55776761D01*
X166520857Y-55824380D01*
X166425619Y-55824380D01*
X166282761Y-55776761D01*
X166187523Y-55681523D01*
X166139904Y-55586285D01*
X166092285Y-55395809D01*
X166092285Y-55252952D01*
X166139904Y-55062476D01*
X166187523Y-54967238D01*
X166282761Y-54872000D01*
X166425619Y-54824380D01*
X166520857Y-54824380D01*
X166663714Y-54872000D01*
X166711333Y-54919619D01*
X167187523Y-55824380D02*
X167378000Y-55824380D01*
X167473238Y-55776761D01*
X167520857Y-55729142D01*
X167616095Y-55586285D01*
X167663714Y-55395809D01*
X167663714Y-55014857D01*
X167616095Y-54919619D01*
X167568476Y-54872000D01*
X167473238Y-54824380D01*
X167282761Y-54824380D01*
X167187523Y-54872000D01*
X167139904Y-54919619D01*
X167092285Y-55014857D01*
X167092285Y-55252952D01*
X167139904Y-55348190D01*
X167187523Y-55395809D01*
X167282761Y-55443428D01*
X167473238Y-55443428D01*
X167568476Y-55395809D01*
X167616095Y-55348190D01*
X167663714Y-55252952D01*
%TO.C,C7*%
X132548333Y-54332142D02*
X132500714Y-54379761D01*
X132357857Y-54427380D01*
X132262619Y-54427380D01*
X132119761Y-54379761D01*
X132024523Y-54284523D01*
X131976904Y-54189285D01*
X131929285Y-53998809D01*
X131929285Y-53855952D01*
X131976904Y-53665476D01*
X132024523Y-53570238D01*
X132119761Y-53475000D01*
X132262619Y-53427380D01*
X132357857Y-53427380D01*
X132500714Y-53475000D01*
X132548333Y-53522619D01*
X132881666Y-53427380D02*
X133548333Y-53427380D01*
X133119761Y-54427380D01*
%TO.C,C4*%
X138263333Y-67032142D02*
X138215714Y-67079761D01*
X138072857Y-67127380D01*
X137977619Y-67127380D01*
X137834761Y-67079761D01*
X137739523Y-66984523D01*
X137691904Y-66889285D01*
X137644285Y-66698809D01*
X137644285Y-66555952D01*
X137691904Y-66365476D01*
X137739523Y-66270238D01*
X137834761Y-66175000D01*
X137977619Y-66127380D01*
X138072857Y-66127380D01*
X138215714Y-66175000D01*
X138263333Y-66222619D01*
X139120476Y-66460714D02*
X139120476Y-67127380D01*
X138882380Y-66079761D02*
X138644285Y-66794047D01*
X139263333Y-66794047D01*
%TO.C,C3*%
X131913333Y-67032142D02*
X131865714Y-67079761D01*
X131722857Y-67127380D01*
X131627619Y-67127380D01*
X131484761Y-67079761D01*
X131389523Y-66984523D01*
X131341904Y-66889285D01*
X131294285Y-66698809D01*
X131294285Y-66555952D01*
X131341904Y-66365476D01*
X131389523Y-66270238D01*
X131484761Y-66175000D01*
X131627619Y-66127380D01*
X131722857Y-66127380D01*
X131865714Y-66175000D01*
X131913333Y-66222619D01*
X132246666Y-66127380D02*
X132865714Y-66127380D01*
X132532380Y-66508333D01*
X132675238Y-66508333D01*
X132770476Y-66555952D01*
X132818095Y-66603571D01*
X132865714Y-66698809D01*
X132865714Y-66936904D01*
X132818095Y-67032142D01*
X132770476Y-67079761D01*
X132675238Y-67127380D01*
X132389523Y-67127380D01*
X132294285Y-67079761D01*
X132246666Y-67032142D01*
%TO.C,C1*%
X106513333Y-53697142D02*
X106465714Y-53744761D01*
X106322857Y-53792380D01*
X106227619Y-53792380D01*
X106084761Y-53744761D01*
X105989523Y-53649523D01*
X105941904Y-53554285D01*
X105894285Y-53363809D01*
X105894285Y-53220952D01*
X105941904Y-53030476D01*
X105989523Y-52935238D01*
X106084761Y-52840000D01*
X106227619Y-52792380D01*
X106322857Y-52792380D01*
X106465714Y-52840000D01*
X106513333Y-52887619D01*
X107465714Y-53792380D02*
X106894285Y-53792380D01*
X107180000Y-53792380D02*
X107180000Y-52792380D01*
X107084761Y-52935238D01*
X106989523Y-53030476D01*
X106894285Y-53078095D01*
%TD*%
M02*
