M48
METRIC,TZ
T1C0.400
T2C1.200
T3C1.300
%
G90
G05
T1
X117856Y-57404
X124714Y-70866
X129286Y-55880
X129540Y-61087
X130810Y-60198
X130810Y-62230
X130810Y-63881
X131953Y-61087
X133858Y-70358
X133858Y-71882
X135128Y-64680
X140208Y-71120
X141478Y-63881
X144272Y-69596
X161290Y-63754
X164846Y-64516
X166624Y-61214
T2
X104220Y-61468
X109220Y-61468
T3
X92837Y-57912
X92837Y-62992
X174752Y-56896
X174752Y-61976
T0
M30
