%TF.GenerationSoftware,KiCad,Pcbnew,(5.1.10)-1*%
%TF.CreationDate,2021-07-12T12:55:46+02:00*%
%TF.ProjectId,buckLM5575,6275636b-4c4d-4353-9537-352e6b696361,rev?*%
%TF.SameCoordinates,Original*%
%TF.FileFunction,Copper,L1,Top*%
%TF.FilePolarity,Positive*%
%FSLAX46Y46*%
G04 Gerber Fmt 4.6, Leading zero omitted, Abs format (unit mm)*
G04 Created by KiCad (PCBNEW (5.1.10)-1) date 2021-07-12 12:55:46*
%MOMM*%
%LPD*%
G01*
G04 APERTURE LIST*
%TA.AperFunction,ComponentPad*%
%ADD10C,2.600000*%
%TD*%
%TA.AperFunction,ComponentPad*%
%ADD11R,2.600000X2.600000*%
%TD*%
%TA.AperFunction,SMDPad,CuDef*%
%ADD12R,1.400000X0.449999*%
%TD*%
%TA.AperFunction,SMDPad,CuDef*%
%ADD13R,3.400001X5.000000*%
%TD*%
%TA.AperFunction,SMDPad,CuDef*%
%ADD14R,2.900000X5.400000*%
%TD*%
%TA.AperFunction,SMDPad,CuDef*%
%ADD15R,2.500000X3.300000*%
%TD*%
%TA.AperFunction,ComponentPad*%
%ADD16R,2.400000X2.400000*%
%TD*%
%TA.AperFunction,ComponentPad*%
%ADD17C,2.400000*%
%TD*%
%TA.AperFunction,ViaPad*%
%ADD18C,0.800000*%
%TD*%
%TA.AperFunction,Conductor*%
%ADD19C,0.250000*%
%TD*%
%TA.AperFunction,Conductor*%
%ADD20C,1.000000*%
%TD*%
%TA.AperFunction,Conductor*%
%ADD21C,0.750000*%
%TD*%
%TA.AperFunction,Conductor*%
%ADD22C,0.400000*%
%TD*%
%TA.AperFunction,Conductor*%
%ADD23C,0.500000*%
%TD*%
%TA.AperFunction,Conductor*%
%ADD24C,0.254000*%
%TD*%
%TA.AperFunction,Conductor*%
%ADD25C,0.100000*%
%TD*%
G04 APERTURE END LIST*
D10*
%TO.P,J2,2*%
%TO.N,+5V*%
X174752000Y-56896000D03*
D11*
%TO.P,J2,1*%
%TO.N,GND*%
X174752000Y-61976000D03*
%TD*%
D10*
%TO.P,J1,2*%
%TO.N,VCC*%
X92837000Y-62992000D03*
D11*
%TO.P,J1,1*%
%TO.N,GND*%
X92837000Y-57912000D03*
%TD*%
%TO.P,C2,2*%
%TO.N,GND*%
%TA.AperFunction,SMDPad,CuDef*%
G36*
G01*
X118290001Y-59864000D02*
X115389999Y-59864000D01*
G75*
G02*
X115140000Y-59614001I0J249999D01*
G01*
X115140000Y-58713999D01*
G75*
G02*
X115389999Y-58464000I249999J0D01*
G01*
X118290001Y-58464000D01*
G75*
G02*
X118540000Y-58713999I0J-249999D01*
G01*
X118540000Y-59614001D01*
G75*
G02*
X118290001Y-59864000I-249999J0D01*
G01*
G37*
%TD.AperFunction*%
%TO.P,C2,1*%
%TO.N,VCC*%
%TA.AperFunction,SMDPad,CuDef*%
G36*
G01*
X118290001Y-63964000D02*
X115389999Y-63964000D01*
G75*
G02*
X115140000Y-63714001I0J249999D01*
G01*
X115140000Y-62813999D01*
G75*
G02*
X115389999Y-62564000I249999J0D01*
G01*
X118290001Y-62564000D01*
G75*
G02*
X118540000Y-62813999I0J-249999D01*
G01*
X118540000Y-63714001D01*
G75*
G02*
X118290001Y-63964000I-249999J0D01*
G01*
G37*
%TD.AperFunction*%
%TD*%
%TO.P,C5,1*%
%TO.N,Net-(C5-Pad1)*%
%TA.AperFunction,SMDPad,CuDef*%
G36*
G01*
X124478000Y-65643999D02*
X124478000Y-66944001D01*
G75*
G02*
X124228001Y-67194000I-249999J0D01*
G01*
X123577999Y-67194000D01*
G75*
G02*
X123328000Y-66944001I0J249999D01*
G01*
X123328000Y-65643999D01*
G75*
G02*
X123577999Y-65394000I249999J0D01*
G01*
X124228001Y-65394000D01*
G75*
G02*
X124478000Y-65643999I0J-249999D01*
G01*
G37*
%TD.AperFunction*%
%TO.P,C5,2*%
%TO.N,Net-(C5-Pad2)*%
%TA.AperFunction,SMDPad,CuDef*%
G36*
G01*
X121528000Y-65643999D02*
X121528000Y-66944001D01*
G75*
G02*
X121278001Y-67194000I-249999J0D01*
G01*
X120627999Y-67194000D01*
G75*
G02*
X120378000Y-66944001I0J249999D01*
G01*
X120378000Y-65643999D01*
G75*
G02*
X120627999Y-65394000I249999J0D01*
G01*
X121278001Y-65394000D01*
G75*
G02*
X121528000Y-65643999I0J-249999D01*
G01*
G37*
%TD.AperFunction*%
%TD*%
%TO.P,R7,1*%
%TO.N,GND*%
%TA.AperFunction,SMDPad,CuDef*%
G36*
G01*
X140850000Y-62924003D02*
X140850000Y-60773997D01*
G75*
G02*
X141099997Y-60524000I249997J0D01*
G01*
X141725003Y-60524000D01*
G75*
G02*
X141975000Y-60773997I0J-249997D01*
G01*
X141975000Y-62924003D01*
G75*
G02*
X141725003Y-63174000I-249997J0D01*
G01*
X141099997Y-63174000D01*
G75*
G02*
X140850000Y-62924003I0J249997D01*
G01*
G37*
%TD.AperFunction*%
%TO.P,R7,2*%
%TO.N,Net-(C11-Pad2)*%
%TA.AperFunction,SMDPad,CuDef*%
G36*
G01*
X143775000Y-62924003D02*
X143775000Y-60773997D01*
G75*
G02*
X144024997Y-60524000I249997J0D01*
G01*
X144650003Y-60524000D01*
G75*
G02*
X144900000Y-60773997I0J-249997D01*
G01*
X144900000Y-62924003D01*
G75*
G02*
X144650003Y-63174000I-249997J0D01*
G01*
X144024997Y-63174000D01*
G75*
G02*
X143775000Y-62924003I0J249997D01*
G01*
G37*
%TD.AperFunction*%
%TD*%
%TO.P,C8,2*%
%TO.N,GND*%
%TA.AperFunction,SMDPad,CuDef*%
G36*
G01*
X127314000Y-56530001D02*
X127314000Y-55229999D01*
G75*
G02*
X127563999Y-54980000I249999J0D01*
G01*
X128214001Y-54980000D01*
G75*
G02*
X128464000Y-55229999I0J-249999D01*
G01*
X128464000Y-56530001D01*
G75*
G02*
X128214001Y-56780000I-249999J0D01*
G01*
X127563999Y-56780000D01*
G75*
G02*
X127314000Y-56530001I0J249999D01*
G01*
G37*
%TD.AperFunction*%
%TO.P,C8,1*%
%TO.N,Net-(C8-Pad1)*%
%TA.AperFunction,SMDPad,CuDef*%
G36*
G01*
X124364000Y-56530001D02*
X124364000Y-55229999D01*
G75*
G02*
X124613999Y-54980000I249999J0D01*
G01*
X125264001Y-54980000D01*
G75*
G02*
X125514000Y-55229999I0J-249999D01*
G01*
X125514000Y-56530001D01*
G75*
G02*
X125264001Y-56780000I-249999J0D01*
G01*
X124613999Y-56780000D01*
G75*
G02*
X124364000Y-56530001I0J249999D01*
G01*
G37*
%TD.AperFunction*%
%TD*%
D12*
%TO.P,U1,1*%
%TO.N,Net-(C8-Pad1)*%
X127860001Y-59954998D03*
%TO.P,U1,2*%
%TO.N,Net-(U1-Pad2)*%
X127860001Y-60604999D03*
%TO.P,U1,3*%
%TO.N,VCC*%
X127860001Y-61254998D03*
%TO.P,U1,4*%
%TO.N,Net-(U1-Pad4)*%
X127860001Y-61904999D03*
%TO.P,U1,5*%
%TO.N,Net-(R4-Pad2)*%
X127860001Y-62554998D03*
%TO.P,U1,6*%
%TO.N,Net-(C5-Pad1)*%
X127860001Y-63204999D03*
%TO.P,U1,7*%
%TO.N,Net-(R3-Pad1)*%
X127860001Y-63854998D03*
%TO.P,U1,8*%
%TO.N,Net-(C3-Pad1)*%
X127860001Y-64504999D03*
%TO.P,U1,9*%
%TO.N,GND*%
X133760002Y-64504999D03*
%TO.P,U1,10*%
%TO.N,Net-(C4-Pad1)*%
X133760002Y-63854998D03*
%TO.P,U1,11*%
%TO.N,+5V*%
X133760002Y-63204999D03*
%TO.P,U1,12*%
%TO.N,GND*%
X133760002Y-62554998D03*
%TO.P,U1,13*%
%TO.N,Net-(D1-Pad2)*%
X133760002Y-61904999D03*
%TO.P,U1,14*%
%TO.N,Net-(C11-Pad1)*%
X133760002Y-61254998D03*
%TO.P,U1,15*%
X133760002Y-60604999D03*
%TO.P,U1,16*%
%TO.N,Net-(C7-Pad1)*%
X133760002Y-59954998D03*
D13*
%TO.P,U1,17*%
%TO.N,GND*%
X130810000Y-62229997D03*
%TD*%
%TO.P,R6,1*%
%TO.N,Net-(C5-Pad1)*%
%TA.AperFunction,SMDPad,CuDef*%
G36*
G01*
X146802003Y-72829500D02*
X145551997Y-72829500D01*
G75*
G02*
X145302000Y-72579503I0J249997D01*
G01*
X145302000Y-71954497D01*
G75*
G02*
X145551997Y-71704500I249997J0D01*
G01*
X146802003Y-71704500D01*
G75*
G02*
X147052000Y-71954497I0J-249997D01*
G01*
X147052000Y-72579503D01*
G75*
G02*
X146802003Y-72829500I-249997J0D01*
G01*
G37*
%TD.AperFunction*%
%TO.P,R6,2*%
%TO.N,GND*%
%TA.AperFunction,SMDPad,CuDef*%
G36*
G01*
X146802003Y-69904500D02*
X145551997Y-69904500D01*
G75*
G02*
X145302000Y-69654503I0J249997D01*
G01*
X145302000Y-69029497D01*
G75*
G02*
X145551997Y-68779500I249997J0D01*
G01*
X146802003Y-68779500D01*
G75*
G02*
X147052000Y-69029497I0J-249997D01*
G01*
X147052000Y-69654503D01*
G75*
G02*
X146802003Y-69904500I-249997J0D01*
G01*
G37*
%TD.AperFunction*%
%TD*%
%TO.P,R5,1*%
%TO.N,Net-(C5-Pad1)*%
%TA.AperFunction,SMDPad,CuDef*%
G36*
G01*
X148976000Y-72888003D02*
X148976000Y-71637997D01*
G75*
G02*
X149225997Y-71388000I249997J0D01*
G01*
X149851003Y-71388000D01*
G75*
G02*
X150101000Y-71637997I0J-249997D01*
G01*
X150101000Y-72888003D01*
G75*
G02*
X149851003Y-73138000I-249997J0D01*
G01*
X149225997Y-73138000D01*
G75*
G02*
X148976000Y-72888003I0J249997D01*
G01*
G37*
%TD.AperFunction*%
%TO.P,R5,2*%
%TO.N,+5V*%
%TA.AperFunction,SMDPad,CuDef*%
G36*
G01*
X151901000Y-72888003D02*
X151901000Y-71637997D01*
G75*
G02*
X152150997Y-71388000I249997J0D01*
G01*
X152776003Y-71388000D01*
G75*
G02*
X153026000Y-71637997I0J-249997D01*
G01*
X153026000Y-72888003D01*
G75*
G02*
X152776003Y-73138000I-249997J0D01*
G01*
X152150997Y-73138000D01*
G75*
G02*
X151901000Y-72888003I0J249997D01*
G01*
G37*
%TD.AperFunction*%
%TD*%
%TO.P,R4,1*%
%TO.N,Net-(C5-Pad2)*%
%TA.AperFunction,SMDPad,CuDef*%
G36*
G01*
X119895000Y-61712003D02*
X119895000Y-60461997D01*
G75*
G02*
X120144997Y-60212000I249997J0D01*
G01*
X120770003Y-60212000D01*
G75*
G02*
X121020000Y-60461997I0J-249997D01*
G01*
X121020000Y-61712003D01*
G75*
G02*
X120770003Y-61962000I-249997J0D01*
G01*
X120144997Y-61962000D01*
G75*
G02*
X119895000Y-61712003I0J249997D01*
G01*
G37*
%TD.AperFunction*%
%TO.P,R4,2*%
%TO.N,Net-(R4-Pad2)*%
%TA.AperFunction,SMDPad,CuDef*%
G36*
G01*
X122820000Y-61712003D02*
X122820000Y-60461997D01*
G75*
G02*
X123069997Y-60212000I249997J0D01*
G01*
X123695003Y-60212000D01*
G75*
G02*
X123945000Y-60461997I0J-249997D01*
G01*
X123945000Y-61712003D01*
G75*
G02*
X123695003Y-61962000I-249997J0D01*
G01*
X123069997Y-61962000D01*
G75*
G02*
X122820000Y-61712003I0J249997D01*
G01*
G37*
%TD.AperFunction*%
%TD*%
%TO.P,R3,1*%
%TO.N,Net-(R3-Pad1)*%
%TA.AperFunction,SMDPad,CuDef*%
G36*
G01*
X126247997Y-67255500D02*
X127498003Y-67255500D01*
G75*
G02*
X127748000Y-67505497I0J-249997D01*
G01*
X127748000Y-68130503D01*
G75*
G02*
X127498003Y-68380500I-249997J0D01*
G01*
X126247997Y-68380500D01*
G75*
G02*
X125998000Y-68130503I0J249997D01*
G01*
X125998000Y-67505497D01*
G75*
G02*
X126247997Y-67255500I249997J0D01*
G01*
G37*
%TD.AperFunction*%
%TO.P,R3,2*%
%TO.N,GND*%
%TA.AperFunction,SMDPad,CuDef*%
G36*
G01*
X126247997Y-70180500D02*
X127498003Y-70180500D01*
G75*
G02*
X127748000Y-70430497I0J-249997D01*
G01*
X127748000Y-71055503D01*
G75*
G02*
X127498003Y-71305500I-249997J0D01*
G01*
X126247997Y-71305500D01*
G75*
G02*
X125998000Y-71055503I0J249997D01*
G01*
X125998000Y-70430497D01*
G75*
G02*
X126247997Y-70180500I249997J0D01*
G01*
G37*
%TD.AperFunction*%
%TD*%
D14*
%TO.P,L1,1*%
%TO.N,Net-(C11-Pad1)*%
X152530000Y-50800000D03*
%TO.P,L1,2*%
%TO.N,+5V*%
X162430000Y-50800000D03*
%TD*%
D15*
%TO.P,D1,1*%
%TO.N,Net-(C11-Pad1)*%
X147008000Y-56134000D03*
%TO.P,D1,2*%
%TO.N,Net-(D1-Pad2)*%
X140208000Y-56134000D03*
%TD*%
%TO.P,C11,1*%
%TO.N,Net-(C11-Pad1)*%
%TA.AperFunction,SMDPad,CuDef*%
G36*
G01*
X151910000Y-61325999D02*
X151910000Y-62626001D01*
G75*
G02*
X151660001Y-62876000I-249999J0D01*
G01*
X151009999Y-62876000D01*
G75*
G02*
X150760000Y-62626001I0J249999D01*
G01*
X150760000Y-61325999D01*
G75*
G02*
X151009999Y-61076000I249999J0D01*
G01*
X151660001Y-61076000D01*
G75*
G02*
X151910000Y-61325999I0J-249999D01*
G01*
G37*
%TD.AperFunction*%
%TO.P,C11,2*%
%TO.N,Net-(C11-Pad2)*%
%TA.AperFunction,SMDPad,CuDef*%
G36*
G01*
X148960000Y-61325999D02*
X148960000Y-62626001D01*
G75*
G02*
X148710001Y-62876000I-249999J0D01*
G01*
X148059999Y-62876000D01*
G75*
G02*
X147810000Y-62626001I0J249999D01*
G01*
X147810000Y-61325999D01*
G75*
G02*
X148059999Y-61076000I249999J0D01*
G01*
X148710001Y-61076000D01*
G75*
G02*
X148960000Y-61325999I0J-249999D01*
G01*
G37*
%TD.AperFunction*%
%TD*%
%TO.P,C10,2*%
%TO.N,GND*%
%TA.AperFunction,SMDPad,CuDef*%
G36*
G01*
X160150000Y-66105004D02*
X160150000Y-64704996D01*
G75*
G02*
X160399996Y-64455000I249996J0D01*
G01*
X164050004Y-64455000D01*
G75*
G02*
X164300000Y-64704996I0J-249996D01*
G01*
X164300000Y-66105004D01*
G75*
G02*
X164050004Y-66355000I-249996J0D01*
G01*
X160399996Y-66355000D01*
G75*
G02*
X160150000Y-66105004I0J249996D01*
G01*
G37*
%TD.AperFunction*%
%TO.P,C10,1*%
%TO.N,+5V*%
%TA.AperFunction,SMDPad,CuDef*%
G36*
G01*
X153200000Y-66105004D02*
X153200000Y-64704996D01*
G75*
G02*
X153449996Y-64455000I249996J0D01*
G01*
X157100004Y-64455000D01*
G75*
G02*
X157350000Y-64704996I0J-249996D01*
G01*
X157350000Y-66105004D01*
G75*
G02*
X157100004Y-66355000I-249996J0D01*
G01*
X153449996Y-66355000D01*
G75*
G02*
X153200000Y-66105004I0J249996D01*
G01*
G37*
%TD.AperFunction*%
%TD*%
%TO.P,C9,1*%
%TO.N,+5V*%
%TA.AperFunction,SMDPad,CuDef*%
G36*
G01*
X166227999Y-56370000D02*
X167528001Y-56370000D01*
G75*
G02*
X167778000Y-56619999I0J-249999D01*
G01*
X167778000Y-57270001D01*
G75*
G02*
X167528001Y-57520000I-249999J0D01*
G01*
X166227999Y-57520000D01*
G75*
G02*
X165978000Y-57270001I0J249999D01*
G01*
X165978000Y-56619999D01*
G75*
G02*
X166227999Y-56370000I249999J0D01*
G01*
G37*
%TD.AperFunction*%
%TO.P,C9,2*%
%TO.N,GND*%
%TA.AperFunction,SMDPad,CuDef*%
G36*
G01*
X166227999Y-59320000D02*
X167528001Y-59320000D01*
G75*
G02*
X167778000Y-59569999I0J-249999D01*
G01*
X167778000Y-60220001D01*
G75*
G02*
X167528001Y-60470000I-249999J0D01*
G01*
X166227999Y-60470000D01*
G75*
G02*
X165978000Y-60220001I0J249999D01*
G01*
X165978000Y-59569999D01*
G75*
G02*
X166227999Y-59320000I249999J0D01*
G01*
G37*
%TD.AperFunction*%
%TD*%
%TO.P,C7,2*%
%TO.N,Net-(C11-Pad1)*%
%TA.AperFunction,SMDPad,CuDef*%
G36*
G01*
X131815000Y-55229999D02*
X131815000Y-56530001D01*
G75*
G02*
X131565001Y-56780000I-249999J0D01*
G01*
X130914999Y-56780000D01*
G75*
G02*
X130665000Y-56530001I0J249999D01*
G01*
X130665000Y-55229999D01*
G75*
G02*
X130914999Y-54980000I249999J0D01*
G01*
X131565001Y-54980000D01*
G75*
G02*
X131815000Y-55229999I0J-249999D01*
G01*
G37*
%TD.AperFunction*%
%TO.P,C7,1*%
%TO.N,Net-(C7-Pad1)*%
%TA.AperFunction,SMDPad,CuDef*%
G36*
G01*
X134765000Y-55229999D02*
X134765000Y-56530001D01*
G75*
G02*
X134515001Y-56780000I-249999J0D01*
G01*
X133864999Y-56780000D01*
G75*
G02*
X133615000Y-56530001I0J249999D01*
G01*
X133615000Y-55229999D01*
G75*
G02*
X133864999Y-54980000I249999J0D01*
G01*
X134515001Y-54980000D01*
G75*
G02*
X134765000Y-55229999I0J-249999D01*
G01*
G37*
%TD.AperFunction*%
%TD*%
%TO.P,C4,1*%
%TO.N,Net-(C4-Pad1)*%
%TA.AperFunction,SMDPad,CuDef*%
G36*
G01*
X137779999Y-67800000D02*
X139080001Y-67800000D01*
G75*
G02*
X139330000Y-68049999I0J-249999D01*
G01*
X139330000Y-68700001D01*
G75*
G02*
X139080001Y-68950000I-249999J0D01*
G01*
X137779999Y-68950000D01*
G75*
G02*
X137530000Y-68700001I0J249999D01*
G01*
X137530000Y-68049999D01*
G75*
G02*
X137779999Y-67800000I249999J0D01*
G01*
G37*
%TD.AperFunction*%
%TO.P,C4,2*%
%TO.N,GND*%
%TA.AperFunction,SMDPad,CuDef*%
G36*
G01*
X137779999Y-70750000D02*
X139080001Y-70750000D01*
G75*
G02*
X139330000Y-70999999I0J-249999D01*
G01*
X139330000Y-71650001D01*
G75*
G02*
X139080001Y-71900000I-249999J0D01*
G01*
X137779999Y-71900000D01*
G75*
G02*
X137530000Y-71650001I0J249999D01*
G01*
X137530000Y-70999999D01*
G75*
G02*
X137779999Y-70750000I249999J0D01*
G01*
G37*
%TD.AperFunction*%
%TD*%
%TO.P,C3,2*%
%TO.N,GND*%
%TA.AperFunction,SMDPad,CuDef*%
G36*
G01*
X131429999Y-70545000D02*
X132730001Y-70545000D01*
G75*
G02*
X132980000Y-70794999I0J-249999D01*
G01*
X132980000Y-71445001D01*
G75*
G02*
X132730001Y-71695000I-249999J0D01*
G01*
X131429999Y-71695000D01*
G75*
G02*
X131180000Y-71445001I0J249999D01*
G01*
X131180000Y-70794999D01*
G75*
G02*
X131429999Y-70545000I249999J0D01*
G01*
G37*
%TD.AperFunction*%
%TO.P,C3,1*%
%TO.N,Net-(C3-Pad1)*%
%TA.AperFunction,SMDPad,CuDef*%
G36*
G01*
X131429999Y-67595000D02*
X132730001Y-67595000D01*
G75*
G02*
X132980000Y-67844999I0J-249999D01*
G01*
X132980000Y-68495001D01*
G75*
G02*
X132730001Y-68745000I-249999J0D01*
G01*
X131429999Y-68745000D01*
G75*
G02*
X131180000Y-68495001I0J249999D01*
G01*
X131180000Y-67844999D01*
G75*
G02*
X131429999Y-67595000I249999J0D01*
G01*
G37*
%TD.AperFunction*%
%TD*%
D16*
%TO.P,C1,1*%
%TO.N,VCC*%
X109220000Y-61468000D03*
D17*
%TO.P,C1,2*%
%TO.N,GND*%
X104220000Y-61468000D03*
%TD*%
D18*
%TO.N,GND*%
X129286000Y-55880000D03*
X135128000Y-64680000D03*
X133858000Y-70358000D03*
X133858000Y-71882000D03*
X140208000Y-71120000D03*
X161290000Y-63754000D03*
X164846000Y-64516000D03*
X166624000Y-61214000D03*
X124714000Y-70866000D03*
X117856000Y-57404000D03*
X144272000Y-69596000D03*
X141478000Y-63881000D03*
X130810000Y-60198000D03*
X129540000Y-61087000D03*
X131953000Y-61087000D03*
X130810000Y-63881000D03*
X130810000Y-62229997D03*
%TD*%
D19*
%TO.N,GND*%
X141412300Y-61849200D02*
X141412000Y-61849000D01*
D20*
X141478000Y-63500000D02*
X141478000Y-61660500D01*
D19*
X141478000Y-61914500D02*
X141412300Y-61849200D01*
X141412500Y-61849000D02*
X141412300Y-61849200D01*
X132900000Y-62555000D02*
X133760000Y-62555000D01*
X133760000Y-64680000D02*
X133075000Y-64680000D01*
X132735000Y-64340000D02*
X132735000Y-62720000D01*
X132735000Y-62720000D02*
X132900000Y-62555000D01*
X133760000Y-62555000D02*
X132900000Y-62555000D01*
X132900000Y-62555000D02*
X131135000Y-62555000D01*
X131135000Y-62555000D02*
X130810000Y-62230000D01*
X132080000Y-71120000D02*
X133096000Y-71120000D01*
X133096000Y-71120000D02*
X133858000Y-70358000D01*
X140003000Y-71325000D02*
X140208000Y-71120000D01*
X162225000Y-65405000D02*
X161417000Y-65405000D01*
X161417000Y-65405000D02*
X161290000Y-65278000D01*
X162225000Y-65405000D02*
X163957000Y-65405000D01*
X163957000Y-65405000D02*
X164846000Y-64516000D01*
X166624000Y-61468000D02*
X166624000Y-60276000D01*
X133075000Y-64680000D02*
X132735000Y-64340000D01*
X132842000Y-71882000D02*
X132080000Y-71120000D01*
X133858000Y-71882000D02*
X132842000Y-71882000D01*
X134952999Y-64504999D02*
X135128000Y-64680000D01*
X133760002Y-64504999D02*
X134952999Y-64504999D01*
X162225000Y-64689000D02*
X161290000Y-63754000D01*
X162225000Y-65405000D02*
X162225000Y-64689000D01*
X124845000Y-70735000D02*
X124714000Y-70866000D01*
X129286000Y-55880000D02*
X127889000Y-55880000D01*
X116840000Y-58420000D02*
X117856000Y-57404000D01*
X116840000Y-59164000D02*
X116840000Y-58420000D01*
X138430000Y-71325000D02*
X140003000Y-71325000D01*
X144526000Y-69342000D02*
X144272000Y-69596000D01*
X146177000Y-69342000D02*
X144526000Y-69342000D01*
X141478000Y-63500000D02*
X141478000Y-63881000D01*
X130810000Y-62229997D02*
X130810000Y-60198000D01*
X130682997Y-62229997D02*
X129540000Y-61087000D01*
X130810000Y-62229997D02*
X130682997Y-62229997D01*
X130810003Y-62229997D02*
X131953000Y-61087000D01*
X130810000Y-62229997D02*
X130810003Y-62229997D01*
X130810000Y-62229997D02*
X130810000Y-62484000D01*
X126750000Y-70866000D02*
X126873000Y-70743000D01*
X124714000Y-70866000D02*
X126750000Y-70866000D01*
D21*
%TO.N,VCC*%
X105918000Y-58166000D02*
X109220000Y-61468000D01*
X109220000Y-61468000D02*
X110995001Y-63243001D01*
X116819001Y-63243001D02*
X116840000Y-63264000D01*
X110995001Y-63243001D02*
X116819001Y-63243001D01*
X119767010Y-59636990D02*
X125449028Y-59636990D01*
X116840000Y-62564000D02*
X119767010Y-59636990D01*
X116840000Y-63264000D02*
X116840000Y-62564000D01*
D22*
X126864998Y-61254998D02*
X127860001Y-61254998D01*
D23*
X126864998Y-61254998D02*
X125449028Y-59839028D01*
D21*
X105791000Y-58039000D02*
X105918000Y-58166000D01*
X92837000Y-62992000D02*
X95377000Y-62992000D01*
X100330000Y-58039000D02*
X105791000Y-58039000D01*
X95377000Y-62992000D02*
X100330000Y-58039000D01*
D19*
%TO.N,Net-(C3-Pad1)*%
X128415000Y-64505000D02*
X127860000Y-64505000D01*
X132080000Y-68170000D02*
X130019000Y-68170000D01*
X127860001Y-66011001D02*
X127860001Y-64504999D01*
X130019000Y-68170000D02*
X127860001Y-66011001D01*
%TO.N,Net-(C4-Pad1)*%
X134620000Y-63855000D02*
X133760000Y-63855000D01*
X134710000Y-63855000D02*
X134620000Y-63855000D01*
X134620000Y-63855000D02*
X133760000Y-63855000D01*
X134710000Y-63855000D02*
X134620000Y-63855000D01*
X138430000Y-68375000D02*
X138430000Y-66294000D01*
X135991000Y-63855000D02*
X134710000Y-63855000D01*
X134620000Y-63855000D02*
X133760000Y-63855000D01*
X138430000Y-66294000D02*
X135991000Y-63855000D01*
%TO.N,Net-(C5-Pad2)*%
X120457500Y-65798500D02*
X120953000Y-66294000D01*
X120457500Y-61087000D02*
X120457500Y-65798500D01*
D21*
%TO.N,Net-(D1-Pad2)*%
X140208000Y-56896000D02*
X140208000Y-56134000D01*
X135199000Y-61905000D02*
X140208000Y-56896000D01*
D22*
X133760002Y-61904999D02*
X134041000Y-61905000D01*
D23*
X134845005Y-61905000D02*
X134845004Y-61904999D01*
D22*
X134295000Y-61905000D02*
X135199000Y-61905000D01*
X133760002Y-61904999D02*
X134295000Y-61905000D01*
D19*
%TO.N,Net-(C5-Pad1)*%
X149538000Y-72263000D02*
X149538500Y-72263000D01*
X146181000Y-72263000D02*
X146177000Y-72267000D01*
X125009001Y-63204999D02*
X127860001Y-63204999D01*
X123903000Y-64311000D02*
X125009001Y-63204999D01*
X123903000Y-66294000D02*
X123903000Y-64311000D01*
X149534500Y-72267000D02*
X149538500Y-72263000D01*
D20*
X146177000Y-72267000D02*
X149534500Y-72267000D01*
D19*
X145614500Y-72829500D02*
X146177000Y-72267000D01*
X125604498Y-72829500D02*
X145614500Y-72829500D01*
X123903000Y-71128002D02*
X125604498Y-72829500D01*
X123903000Y-66294000D02*
X123903000Y-71128002D01*
%TO.N,Net-(C11-Pad1)*%
X133760000Y-60605000D02*
X133760000Y-61255000D01*
X131527010Y-54654990D02*
X131240000Y-54942000D01*
X136918009Y-59150511D02*
X136918009Y-56429533D01*
X135463521Y-60604999D02*
X136918009Y-59150511D01*
X136918009Y-55938989D02*
X138697999Y-54158999D01*
X145032999Y-54158999D02*
X147008000Y-56134000D01*
X138697999Y-54158999D02*
X145032999Y-54158999D01*
X136918009Y-56429533D02*
X136918009Y-55938989D01*
X131240000Y-54942000D02*
X131240000Y-55880000D01*
D20*
X147008000Y-56134000D02*
X147828000Y-56134000D01*
X151335000Y-59641000D02*
X151335000Y-61976000D01*
X147828000Y-56134000D02*
X151335000Y-59641000D01*
X147008000Y-56134000D02*
X147008000Y-53144000D01*
X149352000Y-50800000D02*
X152530000Y-50800000D01*
X147008000Y-53144000D02*
X149352000Y-50800000D01*
D19*
X135634010Y-54654990D02*
X136918009Y-55938989D01*
X131527010Y-54654990D02*
X135634010Y-54654990D01*
X133760002Y-60604999D02*
X135463521Y-60604999D01*
%TO.N,Net-(C8-Pad1)*%
X125574000Y-56515000D02*
X124939000Y-55880000D01*
X127860001Y-59954998D02*
X126756998Y-59954998D01*
X124939000Y-58137000D02*
X124939000Y-55880000D01*
X126756998Y-59954998D02*
X124939000Y-58137000D01*
%TO.N,Net-(C11-Pad2)*%
X144338000Y-61849000D02*
X144337500Y-61849000D01*
D20*
X144464500Y-61976000D02*
X144337500Y-61849000D01*
X148385000Y-61976000D02*
X144464500Y-61976000D01*
D19*
%TO.N,Net-(R3-Pad1)*%
X127000001Y-63854998D02*
X127860001Y-63854998D01*
X126310500Y-64544499D02*
X127000001Y-63854998D01*
X126310500Y-67255500D02*
X126310500Y-64544499D01*
X126873000Y-67818000D02*
X126310500Y-67255500D01*
%TO.N,Net-(R4-Pad2)*%
X122936500Y-61340500D02*
X122936500Y-61341000D01*
X122936500Y-61340500D02*
X122936000Y-61341000D01*
X124850498Y-62554998D02*
X127860001Y-62554998D01*
X123382500Y-61087000D02*
X124850498Y-62554998D01*
D22*
%TO.N,Net-(C7-Pad1)*%
X135372000Y-55880000D02*
X134190000Y-55880000D01*
X135890000Y-56398000D02*
X135372000Y-55880000D01*
X135890000Y-59436000D02*
X135890000Y-56398000D01*
X135371000Y-59955000D02*
X135890000Y-59436000D01*
X133760000Y-59955000D02*
X135371000Y-59955000D01*
D19*
%TO.N,+5V*%
X152463500Y-72263000D02*
X152464000Y-72263000D01*
D20*
X161063000Y-59616800D02*
X155275000Y-65405000D01*
D19*
X146177000Y-65405000D02*
X146050000Y-65405000D01*
D20*
X155275000Y-65405000D02*
X146177000Y-65405000D01*
X146050000Y-65405000D02*
X138760000Y-65405000D01*
X136559999Y-63204999D02*
X138760000Y-65405000D01*
D22*
X133760002Y-63204999D02*
X136559999Y-63204999D01*
D20*
X162430000Y-50800000D02*
X166110000Y-50800000D01*
X164206200Y-59616800D02*
X166878000Y-56945000D01*
X161063000Y-59616800D02*
X164206200Y-59616800D01*
X166110000Y-56177000D02*
X166878000Y-56945000D01*
X166110000Y-50800000D02*
X166110000Y-56177000D01*
X152463500Y-68216500D02*
X155275000Y-65405000D01*
X152463500Y-72263000D02*
X152463500Y-68216500D01*
X174703000Y-56945000D02*
X174752000Y-56896000D01*
X166878000Y-56945000D02*
X174703000Y-56945000D01*
%TD*%
D24*
%TO.N,VCC*%
X127940700Y-54341928D02*
X127563999Y-54341928D01*
X127390745Y-54358992D01*
X127224149Y-54409528D01*
X127070613Y-54491595D01*
X126936038Y-54602038D01*
X126825595Y-54736613D01*
X126743528Y-54890149D01*
X126692992Y-55056745D01*
X126675928Y-55229999D01*
X126675928Y-56530001D01*
X126692992Y-56703255D01*
X126743528Y-56869851D01*
X126825595Y-57023387D01*
X126936038Y-57157962D01*
X127070613Y-57268405D01*
X127224149Y-57350472D01*
X127390745Y-57401008D01*
X127563999Y-57418072D01*
X128019576Y-57418072D01*
X128062495Y-59091927D01*
X127160001Y-59091927D01*
X127035519Y-59104187D01*
X126993681Y-59116878D01*
X125699000Y-57822199D01*
X125699000Y-57299614D01*
X125757387Y-57268405D01*
X125786067Y-57244868D01*
X125866246Y-57220546D01*
X125998276Y-57149974D01*
X126114001Y-57055001D01*
X126208974Y-56939276D01*
X126279546Y-56807246D01*
X126323003Y-56663986D01*
X126337677Y-56515000D01*
X126323003Y-56366014D01*
X126279546Y-56222753D01*
X126208974Y-56090724D01*
X126152072Y-56021389D01*
X126152072Y-55229999D01*
X126135008Y-55056745D01*
X126084472Y-54890149D01*
X126002405Y-54736613D01*
X125891962Y-54602038D01*
X125757387Y-54491595D01*
X125603851Y-54409528D01*
X125437255Y-54358992D01*
X125264001Y-54341928D01*
X124613999Y-54341928D01*
X124440745Y-54358992D01*
X124274149Y-54409528D01*
X124120613Y-54491595D01*
X123986038Y-54602038D01*
X123875595Y-54736613D01*
X123793528Y-54890149D01*
X123742992Y-55056745D01*
X123725928Y-55229999D01*
X123725928Y-56530001D01*
X123742992Y-56703255D01*
X123793528Y-56869851D01*
X123875595Y-57023387D01*
X123986038Y-57157962D01*
X124120613Y-57268405D01*
X124179000Y-57299614D01*
X124179000Y-58099677D01*
X124175324Y-58137000D01*
X124179000Y-58174322D01*
X124179000Y-58174332D01*
X124189997Y-58285985D01*
X124200681Y-58321205D01*
X124233454Y-58429246D01*
X124304026Y-58561276D01*
X124310353Y-58568985D01*
X124398999Y-58677001D01*
X124428002Y-58700803D01*
X126193203Y-60466006D01*
X126216997Y-60494999D01*
X126245990Y-60518793D01*
X126245994Y-60518797D01*
X126280359Y-60546999D01*
X126332722Y-60589972D01*
X126464751Y-60660544D01*
X126521929Y-60677888D01*
X126521929Y-60829998D01*
X126532103Y-60933300D01*
X126525001Y-60998249D01*
X126557248Y-61030496D01*
X126570499Y-61074178D01*
X126629464Y-61184492D01*
X126687327Y-61254999D01*
X126629464Y-61325506D01*
X126570499Y-61435820D01*
X126557249Y-61479499D01*
X126525001Y-61511747D01*
X126532103Y-61576696D01*
X126521929Y-61680000D01*
X126521929Y-61794998D01*
X125165300Y-61794998D01*
X124583072Y-61212771D01*
X124583072Y-60461997D01*
X124566008Y-60288743D01*
X124515472Y-60122148D01*
X124433405Y-59968612D01*
X124322963Y-59834037D01*
X124188388Y-59723595D01*
X124034852Y-59641528D01*
X123868257Y-59590992D01*
X123695003Y-59573928D01*
X123069997Y-59573928D01*
X122896743Y-59590992D01*
X122730148Y-59641528D01*
X122576612Y-59723595D01*
X122442037Y-59834037D01*
X122331595Y-59968612D01*
X122249528Y-60122148D01*
X122198992Y-60288743D01*
X122181928Y-60461997D01*
X122181928Y-61243491D01*
X122172324Y-61341000D01*
X122181928Y-61438509D01*
X122181928Y-61712003D01*
X122198992Y-61885257D01*
X122249528Y-62051852D01*
X122331595Y-62205388D01*
X122442037Y-62339963D01*
X122576612Y-62450405D01*
X122730148Y-62532472D01*
X122896743Y-62583008D01*
X123069997Y-62600072D01*
X123695003Y-62600072D01*
X123809494Y-62588796D01*
X124179948Y-62959250D01*
X123391998Y-63747201D01*
X123363000Y-63770999D01*
X123339202Y-63799997D01*
X123339201Y-63799998D01*
X123268026Y-63886724D01*
X123197454Y-64018754D01*
X123153998Y-64162015D01*
X123139324Y-64311000D01*
X123143001Y-64348332D01*
X123143001Y-64874386D01*
X123084613Y-64905595D01*
X122950038Y-65016038D01*
X122839595Y-65150613D01*
X122757528Y-65304149D01*
X122706992Y-65470745D01*
X122689928Y-65643999D01*
X122689928Y-66944001D01*
X122706992Y-67117255D01*
X122757528Y-67283851D01*
X122839595Y-67437387D01*
X122950038Y-67571962D01*
X123084613Y-67682405D01*
X123143000Y-67713614D01*
X123143001Y-71090670D01*
X123139324Y-71128002D01*
X123153998Y-71276987D01*
X123197454Y-71420248D01*
X123268026Y-71552278D01*
X123319503Y-71615002D01*
X123363000Y-71668003D01*
X123391998Y-71691801D01*
X123709197Y-72009000D01*
X92583000Y-72009000D01*
X92583000Y-64913697D01*
X92887729Y-64935701D01*
X93265951Y-64888457D01*
X93627690Y-64768333D01*
X93874683Y-64636312D01*
X94006619Y-64341224D01*
X92837000Y-63171605D01*
X92822858Y-63185748D01*
X92643253Y-63006143D01*
X92657395Y-62992000D01*
X93016605Y-62992000D01*
X94186224Y-64161619D01*
X94481312Y-64029683D01*
X94514246Y-63964000D01*
X114501928Y-63964000D01*
X114514188Y-64088482D01*
X114550498Y-64208180D01*
X114609463Y-64318494D01*
X114688815Y-64415185D01*
X114785506Y-64494537D01*
X114895820Y-64553502D01*
X115015518Y-64589812D01*
X115140000Y-64602072D01*
X116554250Y-64599000D01*
X116713000Y-64440250D01*
X116713000Y-63391000D01*
X116967000Y-63391000D01*
X116967000Y-64440250D01*
X117125750Y-64599000D01*
X118540000Y-64602072D01*
X118664482Y-64589812D01*
X118784180Y-64553502D01*
X118894494Y-64494537D01*
X118991185Y-64415185D01*
X119070537Y-64318494D01*
X119129502Y-64208180D01*
X119165812Y-64088482D01*
X119178072Y-63964000D01*
X119175000Y-63549750D01*
X119016250Y-63391000D01*
X116967000Y-63391000D01*
X116713000Y-63391000D01*
X114663750Y-63391000D01*
X114505000Y-63549750D01*
X114501928Y-63964000D01*
X94514246Y-63964000D01*
X94652159Y-63688955D01*
X94753250Y-63321443D01*
X94780701Y-62941271D01*
X94733457Y-62563049D01*
X94613333Y-62201310D01*
X94481312Y-61954317D01*
X94186224Y-61822381D01*
X93016605Y-62992000D01*
X92657395Y-62992000D01*
X92643253Y-62977858D01*
X92822858Y-62798253D01*
X92837000Y-62812395D01*
X94006619Y-61642776D01*
X93874683Y-61347688D01*
X93754185Y-61287268D01*
X102385000Y-61287268D01*
X102385000Y-61648732D01*
X102455518Y-62003250D01*
X102593844Y-62337199D01*
X102794662Y-62637744D01*
X103050256Y-62893338D01*
X103350801Y-63094156D01*
X103684750Y-63232482D01*
X104039268Y-63303000D01*
X104400732Y-63303000D01*
X104755250Y-63232482D01*
X105089199Y-63094156D01*
X105389744Y-62893338D01*
X105615082Y-62668000D01*
X107381928Y-62668000D01*
X107394188Y-62792482D01*
X107430498Y-62912180D01*
X107489463Y-63022494D01*
X107568815Y-63119185D01*
X107665506Y-63198537D01*
X107775820Y-63257502D01*
X107895518Y-63293812D01*
X108020000Y-63306072D01*
X108934250Y-63303000D01*
X109093000Y-63144250D01*
X109093000Y-61595000D01*
X109347000Y-61595000D01*
X109347000Y-63144250D01*
X109505750Y-63303000D01*
X110420000Y-63306072D01*
X110544482Y-63293812D01*
X110664180Y-63257502D01*
X110774494Y-63198537D01*
X110871185Y-63119185D01*
X110950537Y-63022494D01*
X111009502Y-62912180D01*
X111045812Y-62792482D01*
X111058072Y-62668000D01*
X111057723Y-62564000D01*
X114501928Y-62564000D01*
X114505000Y-62978250D01*
X114663750Y-63137000D01*
X116713000Y-63137000D01*
X116713000Y-62087750D01*
X116967000Y-62087750D01*
X116967000Y-63137000D01*
X119016250Y-63137000D01*
X119175000Y-62978250D01*
X119178072Y-62564000D01*
X119165812Y-62439518D01*
X119129502Y-62319820D01*
X119070537Y-62209506D01*
X118991185Y-62112815D01*
X118894494Y-62033463D01*
X118784180Y-61974498D01*
X118664482Y-61938188D01*
X118540000Y-61925928D01*
X117125750Y-61929000D01*
X116967000Y-62087750D01*
X116713000Y-62087750D01*
X116554250Y-61929000D01*
X115140000Y-61925928D01*
X115015518Y-61938188D01*
X114895820Y-61974498D01*
X114785506Y-62033463D01*
X114688815Y-62112815D01*
X114609463Y-62209506D01*
X114550498Y-62319820D01*
X114514188Y-62439518D01*
X114501928Y-62564000D01*
X111057723Y-62564000D01*
X111055000Y-61753750D01*
X110896250Y-61595000D01*
X109347000Y-61595000D01*
X109093000Y-61595000D01*
X107543750Y-61595000D01*
X107385000Y-61753750D01*
X107381928Y-62668000D01*
X105615082Y-62668000D01*
X105645338Y-62637744D01*
X105846156Y-62337199D01*
X105984482Y-62003250D01*
X106055000Y-61648732D01*
X106055000Y-61287268D01*
X105984482Y-60932750D01*
X105846156Y-60598801D01*
X105645338Y-60298256D01*
X105615082Y-60268000D01*
X107381928Y-60268000D01*
X107385000Y-61182250D01*
X107543750Y-61341000D01*
X109093000Y-61341000D01*
X109093000Y-59791750D01*
X109347000Y-59791750D01*
X109347000Y-61341000D01*
X110896250Y-61341000D01*
X111055000Y-61182250D01*
X111058072Y-60268000D01*
X111045812Y-60143518D01*
X111009502Y-60023820D01*
X110950537Y-59913506D01*
X110871185Y-59816815D01*
X110774494Y-59737463D01*
X110664180Y-59678498D01*
X110544482Y-59642188D01*
X110420000Y-59629928D01*
X109505750Y-59633000D01*
X109347000Y-59791750D01*
X109093000Y-59791750D01*
X108934250Y-59633000D01*
X108020000Y-59629928D01*
X107895518Y-59642188D01*
X107775820Y-59678498D01*
X107665506Y-59737463D01*
X107568815Y-59816815D01*
X107489463Y-59913506D01*
X107430498Y-60023820D01*
X107394188Y-60143518D01*
X107381928Y-60268000D01*
X105615082Y-60268000D01*
X105389744Y-60042662D01*
X105089199Y-59841844D01*
X104755250Y-59703518D01*
X104400732Y-59633000D01*
X104039268Y-59633000D01*
X103684750Y-59703518D01*
X103350801Y-59841844D01*
X103050256Y-60042662D01*
X102794662Y-60298256D01*
X102593844Y-60598801D01*
X102455518Y-60932750D01*
X102385000Y-61287268D01*
X93754185Y-61287268D01*
X93533955Y-61176841D01*
X93166443Y-61075750D01*
X92786271Y-61048299D01*
X92583000Y-61073690D01*
X92583000Y-59850072D01*
X94137000Y-59850072D01*
X94261482Y-59837812D01*
X94381180Y-59801502D01*
X94491494Y-59742537D01*
X94588185Y-59663185D01*
X94667537Y-59566494D01*
X94726502Y-59456180D01*
X94762812Y-59336482D01*
X94775072Y-59212000D01*
X94775072Y-58713999D01*
X114501928Y-58713999D01*
X114501928Y-59614001D01*
X114518992Y-59787255D01*
X114569528Y-59953851D01*
X114651595Y-60107387D01*
X114762038Y-60241962D01*
X114896613Y-60352405D01*
X115050149Y-60434472D01*
X115216745Y-60485008D01*
X115389999Y-60502072D01*
X118290001Y-60502072D01*
X118463255Y-60485008D01*
X118539112Y-60461997D01*
X119256928Y-60461997D01*
X119256928Y-61712003D01*
X119273992Y-61885257D01*
X119324528Y-62051852D01*
X119406595Y-62205388D01*
X119517037Y-62339963D01*
X119651612Y-62450405D01*
X119697500Y-62474933D01*
X119697501Y-65761168D01*
X119693824Y-65798500D01*
X119708498Y-65947485D01*
X119739928Y-66051100D01*
X119739928Y-66944001D01*
X119756992Y-67117255D01*
X119807528Y-67283851D01*
X119889595Y-67437387D01*
X120000038Y-67571962D01*
X120134613Y-67682405D01*
X120288149Y-67764472D01*
X120454745Y-67815008D01*
X120627999Y-67832072D01*
X121278001Y-67832072D01*
X121451255Y-67815008D01*
X121617851Y-67764472D01*
X121771387Y-67682405D01*
X121905962Y-67571962D01*
X122016405Y-67437387D01*
X122098472Y-67283851D01*
X122149008Y-67117255D01*
X122166072Y-66944001D01*
X122166072Y-65643999D01*
X122149008Y-65470745D01*
X122098472Y-65304149D01*
X122016405Y-65150613D01*
X121905962Y-65016038D01*
X121771387Y-64905595D01*
X121617851Y-64823528D01*
X121451255Y-64772992D01*
X121278001Y-64755928D01*
X121217500Y-64755928D01*
X121217500Y-62474933D01*
X121263388Y-62450405D01*
X121397963Y-62339963D01*
X121508405Y-62205388D01*
X121590472Y-62051852D01*
X121641008Y-61885257D01*
X121658072Y-61712003D01*
X121658072Y-60461997D01*
X121641008Y-60288743D01*
X121590472Y-60122148D01*
X121508405Y-59968612D01*
X121397963Y-59834037D01*
X121263388Y-59723595D01*
X121109852Y-59641528D01*
X120943257Y-59590992D01*
X120770003Y-59573928D01*
X120144997Y-59573928D01*
X119971743Y-59590992D01*
X119805148Y-59641528D01*
X119651612Y-59723595D01*
X119517037Y-59834037D01*
X119406595Y-59968612D01*
X119324528Y-60122148D01*
X119273992Y-60288743D01*
X119256928Y-60461997D01*
X118539112Y-60461997D01*
X118629851Y-60434472D01*
X118783387Y-60352405D01*
X118917962Y-60241962D01*
X119028405Y-60107387D01*
X119110472Y-59953851D01*
X119161008Y-59787255D01*
X119178072Y-59614001D01*
X119178072Y-58713999D01*
X119161008Y-58540745D01*
X119110472Y-58374149D01*
X119028405Y-58220613D01*
X118917962Y-58086038D01*
X118783387Y-57975595D01*
X118735838Y-57950180D01*
X118773205Y-57894256D01*
X118851226Y-57705898D01*
X118891000Y-57505939D01*
X118891000Y-57302061D01*
X118851226Y-57102102D01*
X118773205Y-56913744D01*
X118659937Y-56744226D01*
X118515774Y-56600063D01*
X118346256Y-56486795D01*
X118157898Y-56408774D01*
X117957939Y-56369000D01*
X117754061Y-56369000D01*
X117554102Y-56408774D01*
X117365744Y-56486795D01*
X117196226Y-56600063D01*
X117052063Y-56744226D01*
X116938795Y-56913744D01*
X116860774Y-57102102D01*
X116821000Y-57302061D01*
X116821000Y-57364198D01*
X116359271Y-57825928D01*
X115389999Y-57825928D01*
X115216745Y-57842992D01*
X115050149Y-57893528D01*
X114896613Y-57975595D01*
X114762038Y-58086038D01*
X114651595Y-58220613D01*
X114569528Y-58374149D01*
X114518992Y-58540745D01*
X114501928Y-58713999D01*
X94775072Y-58713999D01*
X94775072Y-56612000D01*
X94762812Y-56487518D01*
X94726502Y-56367820D01*
X94667537Y-56257506D01*
X94588185Y-56160815D01*
X94491494Y-56081463D01*
X94381180Y-56022498D01*
X94261482Y-55986188D01*
X94137000Y-55973928D01*
X92583000Y-55973928D01*
X92583000Y-52451000D01*
X127892215Y-52451000D01*
X127940700Y-54341928D01*
%TA.AperFunction,Conductor*%
D25*
G36*
X127940700Y-54341928D02*
G01*
X127563999Y-54341928D01*
X127390745Y-54358992D01*
X127224149Y-54409528D01*
X127070613Y-54491595D01*
X126936038Y-54602038D01*
X126825595Y-54736613D01*
X126743528Y-54890149D01*
X126692992Y-55056745D01*
X126675928Y-55229999D01*
X126675928Y-56530001D01*
X126692992Y-56703255D01*
X126743528Y-56869851D01*
X126825595Y-57023387D01*
X126936038Y-57157962D01*
X127070613Y-57268405D01*
X127224149Y-57350472D01*
X127390745Y-57401008D01*
X127563999Y-57418072D01*
X128019576Y-57418072D01*
X128062495Y-59091927D01*
X127160001Y-59091927D01*
X127035519Y-59104187D01*
X126993681Y-59116878D01*
X125699000Y-57822199D01*
X125699000Y-57299614D01*
X125757387Y-57268405D01*
X125786067Y-57244868D01*
X125866246Y-57220546D01*
X125998276Y-57149974D01*
X126114001Y-57055001D01*
X126208974Y-56939276D01*
X126279546Y-56807246D01*
X126323003Y-56663986D01*
X126337677Y-56515000D01*
X126323003Y-56366014D01*
X126279546Y-56222753D01*
X126208974Y-56090724D01*
X126152072Y-56021389D01*
X126152072Y-55229999D01*
X126135008Y-55056745D01*
X126084472Y-54890149D01*
X126002405Y-54736613D01*
X125891962Y-54602038D01*
X125757387Y-54491595D01*
X125603851Y-54409528D01*
X125437255Y-54358992D01*
X125264001Y-54341928D01*
X124613999Y-54341928D01*
X124440745Y-54358992D01*
X124274149Y-54409528D01*
X124120613Y-54491595D01*
X123986038Y-54602038D01*
X123875595Y-54736613D01*
X123793528Y-54890149D01*
X123742992Y-55056745D01*
X123725928Y-55229999D01*
X123725928Y-56530001D01*
X123742992Y-56703255D01*
X123793528Y-56869851D01*
X123875595Y-57023387D01*
X123986038Y-57157962D01*
X124120613Y-57268405D01*
X124179000Y-57299614D01*
X124179000Y-58099677D01*
X124175324Y-58137000D01*
X124179000Y-58174322D01*
X124179000Y-58174332D01*
X124189997Y-58285985D01*
X124200681Y-58321205D01*
X124233454Y-58429246D01*
X124304026Y-58561276D01*
X124310353Y-58568985D01*
X124398999Y-58677001D01*
X124428002Y-58700803D01*
X126193203Y-60466006D01*
X126216997Y-60494999D01*
X126245990Y-60518793D01*
X126245994Y-60518797D01*
X126280359Y-60546999D01*
X126332722Y-60589972D01*
X126464751Y-60660544D01*
X126521929Y-60677888D01*
X126521929Y-60829998D01*
X126532103Y-60933300D01*
X126525001Y-60998249D01*
X126557248Y-61030496D01*
X126570499Y-61074178D01*
X126629464Y-61184492D01*
X126687327Y-61254999D01*
X126629464Y-61325506D01*
X126570499Y-61435820D01*
X126557249Y-61479499D01*
X126525001Y-61511747D01*
X126532103Y-61576696D01*
X126521929Y-61680000D01*
X126521929Y-61794998D01*
X125165300Y-61794998D01*
X124583072Y-61212771D01*
X124583072Y-60461997D01*
X124566008Y-60288743D01*
X124515472Y-60122148D01*
X124433405Y-59968612D01*
X124322963Y-59834037D01*
X124188388Y-59723595D01*
X124034852Y-59641528D01*
X123868257Y-59590992D01*
X123695003Y-59573928D01*
X123069997Y-59573928D01*
X122896743Y-59590992D01*
X122730148Y-59641528D01*
X122576612Y-59723595D01*
X122442037Y-59834037D01*
X122331595Y-59968612D01*
X122249528Y-60122148D01*
X122198992Y-60288743D01*
X122181928Y-60461997D01*
X122181928Y-61243491D01*
X122172324Y-61341000D01*
X122181928Y-61438509D01*
X122181928Y-61712003D01*
X122198992Y-61885257D01*
X122249528Y-62051852D01*
X122331595Y-62205388D01*
X122442037Y-62339963D01*
X122576612Y-62450405D01*
X122730148Y-62532472D01*
X122896743Y-62583008D01*
X123069997Y-62600072D01*
X123695003Y-62600072D01*
X123809494Y-62588796D01*
X124179948Y-62959250D01*
X123391998Y-63747201D01*
X123363000Y-63770999D01*
X123339202Y-63799997D01*
X123339201Y-63799998D01*
X123268026Y-63886724D01*
X123197454Y-64018754D01*
X123153998Y-64162015D01*
X123139324Y-64311000D01*
X123143001Y-64348332D01*
X123143001Y-64874386D01*
X123084613Y-64905595D01*
X122950038Y-65016038D01*
X122839595Y-65150613D01*
X122757528Y-65304149D01*
X122706992Y-65470745D01*
X122689928Y-65643999D01*
X122689928Y-66944001D01*
X122706992Y-67117255D01*
X122757528Y-67283851D01*
X122839595Y-67437387D01*
X122950038Y-67571962D01*
X123084613Y-67682405D01*
X123143000Y-67713614D01*
X123143001Y-71090670D01*
X123139324Y-71128002D01*
X123153998Y-71276987D01*
X123197454Y-71420248D01*
X123268026Y-71552278D01*
X123319503Y-71615002D01*
X123363000Y-71668003D01*
X123391998Y-71691801D01*
X123709197Y-72009000D01*
X92583000Y-72009000D01*
X92583000Y-64913697D01*
X92887729Y-64935701D01*
X93265951Y-64888457D01*
X93627690Y-64768333D01*
X93874683Y-64636312D01*
X94006619Y-64341224D01*
X92837000Y-63171605D01*
X92822858Y-63185748D01*
X92643253Y-63006143D01*
X92657395Y-62992000D01*
X93016605Y-62992000D01*
X94186224Y-64161619D01*
X94481312Y-64029683D01*
X94514246Y-63964000D01*
X114501928Y-63964000D01*
X114514188Y-64088482D01*
X114550498Y-64208180D01*
X114609463Y-64318494D01*
X114688815Y-64415185D01*
X114785506Y-64494537D01*
X114895820Y-64553502D01*
X115015518Y-64589812D01*
X115140000Y-64602072D01*
X116554250Y-64599000D01*
X116713000Y-64440250D01*
X116713000Y-63391000D01*
X116967000Y-63391000D01*
X116967000Y-64440250D01*
X117125750Y-64599000D01*
X118540000Y-64602072D01*
X118664482Y-64589812D01*
X118784180Y-64553502D01*
X118894494Y-64494537D01*
X118991185Y-64415185D01*
X119070537Y-64318494D01*
X119129502Y-64208180D01*
X119165812Y-64088482D01*
X119178072Y-63964000D01*
X119175000Y-63549750D01*
X119016250Y-63391000D01*
X116967000Y-63391000D01*
X116713000Y-63391000D01*
X114663750Y-63391000D01*
X114505000Y-63549750D01*
X114501928Y-63964000D01*
X94514246Y-63964000D01*
X94652159Y-63688955D01*
X94753250Y-63321443D01*
X94780701Y-62941271D01*
X94733457Y-62563049D01*
X94613333Y-62201310D01*
X94481312Y-61954317D01*
X94186224Y-61822381D01*
X93016605Y-62992000D01*
X92657395Y-62992000D01*
X92643253Y-62977858D01*
X92822858Y-62798253D01*
X92837000Y-62812395D01*
X94006619Y-61642776D01*
X93874683Y-61347688D01*
X93754185Y-61287268D01*
X102385000Y-61287268D01*
X102385000Y-61648732D01*
X102455518Y-62003250D01*
X102593844Y-62337199D01*
X102794662Y-62637744D01*
X103050256Y-62893338D01*
X103350801Y-63094156D01*
X103684750Y-63232482D01*
X104039268Y-63303000D01*
X104400732Y-63303000D01*
X104755250Y-63232482D01*
X105089199Y-63094156D01*
X105389744Y-62893338D01*
X105615082Y-62668000D01*
X107381928Y-62668000D01*
X107394188Y-62792482D01*
X107430498Y-62912180D01*
X107489463Y-63022494D01*
X107568815Y-63119185D01*
X107665506Y-63198537D01*
X107775820Y-63257502D01*
X107895518Y-63293812D01*
X108020000Y-63306072D01*
X108934250Y-63303000D01*
X109093000Y-63144250D01*
X109093000Y-61595000D01*
X109347000Y-61595000D01*
X109347000Y-63144250D01*
X109505750Y-63303000D01*
X110420000Y-63306072D01*
X110544482Y-63293812D01*
X110664180Y-63257502D01*
X110774494Y-63198537D01*
X110871185Y-63119185D01*
X110950537Y-63022494D01*
X111009502Y-62912180D01*
X111045812Y-62792482D01*
X111058072Y-62668000D01*
X111057723Y-62564000D01*
X114501928Y-62564000D01*
X114505000Y-62978250D01*
X114663750Y-63137000D01*
X116713000Y-63137000D01*
X116713000Y-62087750D01*
X116967000Y-62087750D01*
X116967000Y-63137000D01*
X119016250Y-63137000D01*
X119175000Y-62978250D01*
X119178072Y-62564000D01*
X119165812Y-62439518D01*
X119129502Y-62319820D01*
X119070537Y-62209506D01*
X118991185Y-62112815D01*
X118894494Y-62033463D01*
X118784180Y-61974498D01*
X118664482Y-61938188D01*
X118540000Y-61925928D01*
X117125750Y-61929000D01*
X116967000Y-62087750D01*
X116713000Y-62087750D01*
X116554250Y-61929000D01*
X115140000Y-61925928D01*
X115015518Y-61938188D01*
X114895820Y-61974498D01*
X114785506Y-62033463D01*
X114688815Y-62112815D01*
X114609463Y-62209506D01*
X114550498Y-62319820D01*
X114514188Y-62439518D01*
X114501928Y-62564000D01*
X111057723Y-62564000D01*
X111055000Y-61753750D01*
X110896250Y-61595000D01*
X109347000Y-61595000D01*
X109093000Y-61595000D01*
X107543750Y-61595000D01*
X107385000Y-61753750D01*
X107381928Y-62668000D01*
X105615082Y-62668000D01*
X105645338Y-62637744D01*
X105846156Y-62337199D01*
X105984482Y-62003250D01*
X106055000Y-61648732D01*
X106055000Y-61287268D01*
X105984482Y-60932750D01*
X105846156Y-60598801D01*
X105645338Y-60298256D01*
X105615082Y-60268000D01*
X107381928Y-60268000D01*
X107385000Y-61182250D01*
X107543750Y-61341000D01*
X109093000Y-61341000D01*
X109093000Y-59791750D01*
X109347000Y-59791750D01*
X109347000Y-61341000D01*
X110896250Y-61341000D01*
X111055000Y-61182250D01*
X111058072Y-60268000D01*
X111045812Y-60143518D01*
X111009502Y-60023820D01*
X110950537Y-59913506D01*
X110871185Y-59816815D01*
X110774494Y-59737463D01*
X110664180Y-59678498D01*
X110544482Y-59642188D01*
X110420000Y-59629928D01*
X109505750Y-59633000D01*
X109347000Y-59791750D01*
X109093000Y-59791750D01*
X108934250Y-59633000D01*
X108020000Y-59629928D01*
X107895518Y-59642188D01*
X107775820Y-59678498D01*
X107665506Y-59737463D01*
X107568815Y-59816815D01*
X107489463Y-59913506D01*
X107430498Y-60023820D01*
X107394188Y-60143518D01*
X107381928Y-60268000D01*
X105615082Y-60268000D01*
X105389744Y-60042662D01*
X105089199Y-59841844D01*
X104755250Y-59703518D01*
X104400732Y-59633000D01*
X104039268Y-59633000D01*
X103684750Y-59703518D01*
X103350801Y-59841844D01*
X103050256Y-60042662D01*
X102794662Y-60298256D01*
X102593844Y-60598801D01*
X102455518Y-60932750D01*
X102385000Y-61287268D01*
X93754185Y-61287268D01*
X93533955Y-61176841D01*
X93166443Y-61075750D01*
X92786271Y-61048299D01*
X92583000Y-61073690D01*
X92583000Y-59850072D01*
X94137000Y-59850072D01*
X94261482Y-59837812D01*
X94381180Y-59801502D01*
X94491494Y-59742537D01*
X94588185Y-59663185D01*
X94667537Y-59566494D01*
X94726502Y-59456180D01*
X94762812Y-59336482D01*
X94775072Y-59212000D01*
X94775072Y-58713999D01*
X114501928Y-58713999D01*
X114501928Y-59614001D01*
X114518992Y-59787255D01*
X114569528Y-59953851D01*
X114651595Y-60107387D01*
X114762038Y-60241962D01*
X114896613Y-60352405D01*
X115050149Y-60434472D01*
X115216745Y-60485008D01*
X115389999Y-60502072D01*
X118290001Y-60502072D01*
X118463255Y-60485008D01*
X118539112Y-60461997D01*
X119256928Y-60461997D01*
X119256928Y-61712003D01*
X119273992Y-61885257D01*
X119324528Y-62051852D01*
X119406595Y-62205388D01*
X119517037Y-62339963D01*
X119651612Y-62450405D01*
X119697500Y-62474933D01*
X119697501Y-65761168D01*
X119693824Y-65798500D01*
X119708498Y-65947485D01*
X119739928Y-66051100D01*
X119739928Y-66944001D01*
X119756992Y-67117255D01*
X119807528Y-67283851D01*
X119889595Y-67437387D01*
X120000038Y-67571962D01*
X120134613Y-67682405D01*
X120288149Y-67764472D01*
X120454745Y-67815008D01*
X120627999Y-67832072D01*
X121278001Y-67832072D01*
X121451255Y-67815008D01*
X121617851Y-67764472D01*
X121771387Y-67682405D01*
X121905962Y-67571962D01*
X122016405Y-67437387D01*
X122098472Y-67283851D01*
X122149008Y-67117255D01*
X122166072Y-66944001D01*
X122166072Y-65643999D01*
X122149008Y-65470745D01*
X122098472Y-65304149D01*
X122016405Y-65150613D01*
X121905962Y-65016038D01*
X121771387Y-64905595D01*
X121617851Y-64823528D01*
X121451255Y-64772992D01*
X121278001Y-64755928D01*
X121217500Y-64755928D01*
X121217500Y-62474933D01*
X121263388Y-62450405D01*
X121397963Y-62339963D01*
X121508405Y-62205388D01*
X121590472Y-62051852D01*
X121641008Y-61885257D01*
X121658072Y-61712003D01*
X121658072Y-60461997D01*
X121641008Y-60288743D01*
X121590472Y-60122148D01*
X121508405Y-59968612D01*
X121397963Y-59834037D01*
X121263388Y-59723595D01*
X121109852Y-59641528D01*
X120943257Y-59590992D01*
X120770003Y-59573928D01*
X120144997Y-59573928D01*
X119971743Y-59590992D01*
X119805148Y-59641528D01*
X119651612Y-59723595D01*
X119517037Y-59834037D01*
X119406595Y-59968612D01*
X119324528Y-60122148D01*
X119273992Y-60288743D01*
X119256928Y-60461997D01*
X118539112Y-60461997D01*
X118629851Y-60434472D01*
X118783387Y-60352405D01*
X118917962Y-60241962D01*
X119028405Y-60107387D01*
X119110472Y-59953851D01*
X119161008Y-59787255D01*
X119178072Y-59614001D01*
X119178072Y-58713999D01*
X119161008Y-58540745D01*
X119110472Y-58374149D01*
X119028405Y-58220613D01*
X118917962Y-58086038D01*
X118783387Y-57975595D01*
X118735838Y-57950180D01*
X118773205Y-57894256D01*
X118851226Y-57705898D01*
X118891000Y-57505939D01*
X118891000Y-57302061D01*
X118851226Y-57102102D01*
X118773205Y-56913744D01*
X118659937Y-56744226D01*
X118515774Y-56600063D01*
X118346256Y-56486795D01*
X118157898Y-56408774D01*
X117957939Y-56369000D01*
X117754061Y-56369000D01*
X117554102Y-56408774D01*
X117365744Y-56486795D01*
X117196226Y-56600063D01*
X117052063Y-56744226D01*
X116938795Y-56913744D01*
X116860774Y-57102102D01*
X116821000Y-57302061D01*
X116821000Y-57364198D01*
X116359271Y-57825928D01*
X115389999Y-57825928D01*
X115216745Y-57842992D01*
X115050149Y-57893528D01*
X114896613Y-57975595D01*
X114762038Y-58086038D01*
X114651595Y-58220613D01*
X114569528Y-58374149D01*
X114518992Y-58540745D01*
X114501928Y-58713999D01*
X94775072Y-58713999D01*
X94775072Y-56612000D01*
X94762812Y-56487518D01*
X94726502Y-56367820D01*
X94667537Y-56257506D01*
X94588185Y-56160815D01*
X94491494Y-56081463D01*
X94381180Y-56022498D01*
X94261482Y-55986188D01*
X94137000Y-55973928D01*
X92583000Y-55973928D01*
X92583000Y-52451000D01*
X127892215Y-52451000D01*
X127940700Y-54341928D01*
G37*
%TD.AperFunction*%
%TD*%
D24*
%TO.N,+5V*%
X160345000Y-50514250D02*
X160503750Y-50673000D01*
X162303000Y-50673000D01*
X162303000Y-50653000D01*
X162557000Y-50653000D01*
X162557000Y-50673000D01*
X164356250Y-50673000D01*
X164515000Y-50514250D01*
X164517060Y-48895000D01*
X174625000Y-48895000D01*
X174625000Y-54961826D01*
X174323049Y-54999543D01*
X173961310Y-55119667D01*
X173714317Y-55251688D01*
X173582381Y-55546776D01*
X174625000Y-56589395D01*
X174625000Y-57202605D01*
X173582381Y-58245224D01*
X173714317Y-58540312D01*
X174055045Y-58711159D01*
X174422557Y-58812250D01*
X174625000Y-58826868D01*
X174625000Y-60037928D01*
X173452000Y-60037928D01*
X173327518Y-60050188D01*
X173207820Y-60086498D01*
X173097506Y-60145463D01*
X173000815Y-60224815D01*
X172921463Y-60321506D01*
X172862498Y-60431820D01*
X172826188Y-60551518D01*
X172813928Y-60676000D01*
X172813928Y-63276000D01*
X172826188Y-63400482D01*
X172862498Y-63520180D01*
X172921463Y-63630494D01*
X173000815Y-63727185D01*
X173097506Y-63806537D01*
X173207820Y-63865502D01*
X173327518Y-63901812D01*
X173452000Y-63914072D01*
X174625000Y-63914072D01*
X174625000Y-73025000D01*
X153663483Y-73025000D01*
X153661000Y-72548750D01*
X153502250Y-72390000D01*
X152590500Y-72390000D01*
X152590500Y-72410000D01*
X152336500Y-72410000D01*
X152336500Y-72390000D01*
X151424750Y-72390000D01*
X151266000Y-72548750D01*
X151263517Y-73025000D01*
X150725579Y-73025000D01*
X150739072Y-72888003D01*
X150739072Y-71637997D01*
X150722008Y-71464743D01*
X150698729Y-71388000D01*
X151262928Y-71388000D01*
X151266000Y-71977250D01*
X151424750Y-72136000D01*
X152336500Y-72136000D01*
X152336500Y-70911750D01*
X152590500Y-70911750D01*
X152590500Y-72136000D01*
X153502250Y-72136000D01*
X153661000Y-71977250D01*
X153664072Y-71388000D01*
X153651812Y-71263518D01*
X153615502Y-71143820D01*
X153556537Y-71033506D01*
X153477185Y-70936815D01*
X153380494Y-70857463D01*
X153270180Y-70798498D01*
X153150482Y-70762188D01*
X153026000Y-70749928D01*
X152749250Y-70753000D01*
X152590500Y-70911750D01*
X152336500Y-70911750D01*
X152177750Y-70753000D01*
X151901000Y-70749928D01*
X151776518Y-70762188D01*
X151656820Y-70798498D01*
X151546506Y-70857463D01*
X151449815Y-70936815D01*
X151370463Y-71033506D01*
X151311498Y-71143820D01*
X151275188Y-71263518D01*
X151262928Y-71388000D01*
X150698729Y-71388000D01*
X150671472Y-71298148D01*
X150589405Y-71144612D01*
X150478963Y-71010037D01*
X150344388Y-70899595D01*
X150190852Y-70817528D01*
X150024257Y-70766992D01*
X149851003Y-70749928D01*
X149225997Y-70749928D01*
X149052743Y-70766992D01*
X148886148Y-70817528D01*
X148732612Y-70899595D01*
X148598037Y-71010037D01*
X148497945Y-71132000D01*
X147135167Y-71132000D01*
X146975257Y-71083492D01*
X146802003Y-71066428D01*
X145551997Y-71066428D01*
X145378743Y-71083492D01*
X145212148Y-71134028D01*
X145058612Y-71216095D01*
X144924037Y-71326537D01*
X144813595Y-71461112D01*
X144731528Y-71614648D01*
X144680992Y-71781243D01*
X144663928Y-71954497D01*
X144663928Y-72069500D01*
X140620290Y-72069500D01*
X140698256Y-72037205D01*
X140867774Y-71923937D01*
X141011937Y-71779774D01*
X141125205Y-71610256D01*
X141203226Y-71421898D01*
X141243000Y-71221939D01*
X141243000Y-71018061D01*
X141203226Y-70818102D01*
X141125205Y-70629744D01*
X141011937Y-70460226D01*
X140867774Y-70316063D01*
X140698256Y-70202795D01*
X140509898Y-70124774D01*
X140309939Y-70085000D01*
X140106061Y-70085000D01*
X139906102Y-70124774D01*
X139717744Y-70202795D01*
X139598679Y-70282352D01*
X139573387Y-70261595D01*
X139419851Y-70179528D01*
X139253255Y-70128992D01*
X139080001Y-70111928D01*
X137779999Y-70111928D01*
X137606745Y-70128992D01*
X137440149Y-70179528D01*
X137286613Y-70261595D01*
X137152038Y-70372038D01*
X137041595Y-70506613D01*
X136959528Y-70660149D01*
X136908992Y-70826745D01*
X136891928Y-70999999D01*
X136891928Y-71650001D01*
X136908992Y-71823255D01*
X136959528Y-71989851D01*
X137002101Y-72069500D01*
X134875981Y-72069500D01*
X134893000Y-71983939D01*
X134893000Y-71780061D01*
X134853226Y-71580102D01*
X134775205Y-71391744D01*
X134661937Y-71222226D01*
X134559711Y-71120000D01*
X134661937Y-71017774D01*
X134775205Y-70848256D01*
X134853226Y-70659898D01*
X134893000Y-70459939D01*
X134893000Y-70256061D01*
X134853226Y-70056102D01*
X134775205Y-69867744D01*
X134661937Y-69698226D01*
X134517774Y-69554063D01*
X134348256Y-69440795D01*
X134159898Y-69362774D01*
X133959939Y-69323000D01*
X133756061Y-69323000D01*
X133556102Y-69362774D01*
X133367744Y-69440795D01*
X133223000Y-69537510D01*
X133223000Y-69233612D01*
X133223387Y-69233405D01*
X133357962Y-69122962D01*
X133468405Y-68988387D01*
X133550472Y-68834851D01*
X133601008Y-68668255D01*
X133618072Y-68495001D01*
X133618072Y-67844999D01*
X133601008Y-67671745D01*
X133550472Y-67505149D01*
X133468405Y-67351613D01*
X133357962Y-67217038D01*
X133223387Y-67106595D01*
X133223000Y-67106388D01*
X133223000Y-65440000D01*
X133797333Y-65440000D01*
X133908986Y-65429003D01*
X134052247Y-65385546D01*
X134084942Y-65368070D01*
X134352359Y-65368070D01*
X134468226Y-65483937D01*
X134637744Y-65597205D01*
X134826102Y-65675226D01*
X135026061Y-65715000D01*
X135229939Y-65715000D01*
X135429898Y-65675226D01*
X135618256Y-65597205D01*
X135787774Y-65483937D01*
X135931937Y-65339774D01*
X136045205Y-65170256D01*
X136099757Y-65038558D01*
X137670001Y-66608803D01*
X137670001Y-67172762D01*
X137606745Y-67178992D01*
X137440149Y-67229528D01*
X137286613Y-67311595D01*
X137152038Y-67422038D01*
X137041595Y-67556613D01*
X136959528Y-67710149D01*
X136908992Y-67876745D01*
X136891928Y-68049999D01*
X136891928Y-68700001D01*
X136908992Y-68873255D01*
X136959528Y-69039851D01*
X137041595Y-69193387D01*
X137152038Y-69327962D01*
X137286613Y-69438405D01*
X137440149Y-69520472D01*
X137606745Y-69571008D01*
X137779999Y-69588072D01*
X139080001Y-69588072D01*
X139253255Y-69571008D01*
X139419851Y-69520472D01*
X139469262Y-69494061D01*
X143237000Y-69494061D01*
X143237000Y-69697939D01*
X143276774Y-69897898D01*
X143354795Y-70086256D01*
X143468063Y-70255774D01*
X143612226Y-70399937D01*
X143781744Y-70513205D01*
X143970102Y-70591226D01*
X144170061Y-70631000D01*
X144373939Y-70631000D01*
X144573898Y-70591226D01*
X144762256Y-70513205D01*
X144931774Y-70399937D01*
X144992809Y-70338902D01*
X145058612Y-70392905D01*
X145212148Y-70474972D01*
X145378743Y-70525508D01*
X145551997Y-70542572D01*
X146802003Y-70542572D01*
X146975257Y-70525508D01*
X147141852Y-70474972D01*
X147295388Y-70392905D01*
X147429963Y-70282463D01*
X147540405Y-70147888D01*
X147622472Y-69994352D01*
X147673008Y-69827757D01*
X147690072Y-69654503D01*
X147690072Y-69029497D01*
X147673008Y-68856243D01*
X147622472Y-68689648D01*
X147540405Y-68536112D01*
X147429963Y-68401537D01*
X147295388Y-68291095D01*
X147141852Y-68209028D01*
X146975257Y-68158492D01*
X146802003Y-68141428D01*
X145551997Y-68141428D01*
X145378743Y-68158492D01*
X145212148Y-68209028D01*
X145058612Y-68291095D01*
X144924037Y-68401537D01*
X144813595Y-68536112D01*
X144789067Y-68582000D01*
X144563322Y-68582000D01*
X144525999Y-68578324D01*
X144488676Y-68582000D01*
X144488667Y-68582000D01*
X144482545Y-68582603D01*
X144373939Y-68561000D01*
X144170061Y-68561000D01*
X143970102Y-68600774D01*
X143781744Y-68678795D01*
X143612226Y-68792063D01*
X143468063Y-68936226D01*
X143354795Y-69105744D01*
X143276774Y-69294102D01*
X143237000Y-69494061D01*
X139469262Y-69494061D01*
X139573387Y-69438405D01*
X139707962Y-69327962D01*
X139818405Y-69193387D01*
X139900472Y-69039851D01*
X139951008Y-68873255D01*
X139968072Y-68700001D01*
X139968072Y-68049999D01*
X139951008Y-67876745D01*
X139900472Y-67710149D01*
X139818405Y-67556613D01*
X139707962Y-67422038D01*
X139573387Y-67311595D01*
X139419851Y-67229528D01*
X139253255Y-67178992D01*
X139190000Y-67172762D01*
X139190000Y-66355000D01*
X152561928Y-66355000D01*
X152574188Y-66479482D01*
X152610498Y-66599180D01*
X152669463Y-66709494D01*
X152748815Y-66806185D01*
X152845506Y-66885537D01*
X152955820Y-66944502D01*
X153075518Y-66980812D01*
X153200000Y-66993072D01*
X154989250Y-66990000D01*
X155148000Y-66831250D01*
X155148000Y-65532000D01*
X155402000Y-65532000D01*
X155402000Y-66831250D01*
X155560750Y-66990000D01*
X157350000Y-66993072D01*
X157474482Y-66980812D01*
X157594180Y-66944502D01*
X157704494Y-66885537D01*
X157801185Y-66806185D01*
X157880537Y-66709494D01*
X157939502Y-66599180D01*
X157975812Y-66479482D01*
X157988072Y-66355000D01*
X157985000Y-65690750D01*
X157826250Y-65532000D01*
X155402000Y-65532000D01*
X155148000Y-65532000D01*
X152723750Y-65532000D01*
X152565000Y-65690750D01*
X152561928Y-66355000D01*
X139190000Y-66355000D01*
X139190000Y-66331323D01*
X139193676Y-66294000D01*
X139190000Y-66256677D01*
X139190000Y-66256667D01*
X139179003Y-66145014D01*
X139135546Y-66001753D01*
X139064974Y-65869723D01*
X138993799Y-65782997D01*
X138970001Y-65753999D01*
X138941003Y-65730201D01*
X136554804Y-63344003D01*
X136531001Y-63314999D01*
X136415276Y-63220026D01*
X136283247Y-63149454D01*
X136139986Y-63105997D01*
X136028333Y-63095000D01*
X136028322Y-63095000D01*
X135991000Y-63091324D01*
X135953678Y-63095000D01*
X135095002Y-63095000D01*
X135095002Y-63077997D01*
X135020736Y-63077997D01*
X135049504Y-63024177D01*
X135062754Y-62980498D01*
X135095002Y-62948250D01*
X135090734Y-62909223D01*
X135199000Y-62919886D01*
X135396994Y-62900385D01*
X135587379Y-62842632D01*
X135762840Y-62748846D01*
X135878099Y-62654256D01*
X137758358Y-60773997D01*
X140211928Y-60773997D01*
X140211928Y-62924003D01*
X140228992Y-63097257D01*
X140279528Y-63263852D01*
X140343000Y-63382599D01*
X140343000Y-63555751D01*
X140359423Y-63722498D01*
X140424324Y-63936446D01*
X140443000Y-63971387D01*
X140443000Y-63982939D01*
X140482774Y-64182898D01*
X140560795Y-64371256D01*
X140674063Y-64540774D01*
X140818226Y-64684937D01*
X140987744Y-64798205D01*
X141176102Y-64876226D01*
X141376061Y-64916000D01*
X141579939Y-64916000D01*
X141779898Y-64876226D01*
X141968256Y-64798205D01*
X142137774Y-64684937D01*
X142281937Y-64540774D01*
X142339249Y-64455000D01*
X152561928Y-64455000D01*
X152565000Y-65119250D01*
X152723750Y-65278000D01*
X155148000Y-65278000D01*
X155148000Y-63978750D01*
X155402000Y-63978750D01*
X155402000Y-65278000D01*
X157826250Y-65278000D01*
X157985000Y-65119250D01*
X157986915Y-64704996D01*
X159511928Y-64704996D01*
X159511928Y-66105004D01*
X159528992Y-66278257D01*
X159579528Y-66444853D01*
X159661594Y-66598388D01*
X159772037Y-66732963D01*
X159906612Y-66843406D01*
X160060147Y-66925472D01*
X160226743Y-66976008D01*
X160399996Y-66993072D01*
X164050004Y-66993072D01*
X164223257Y-66976008D01*
X164389853Y-66925472D01*
X164543388Y-66843406D01*
X164677963Y-66732963D01*
X164788406Y-66598388D01*
X164870472Y-66444853D01*
X164921008Y-66278257D01*
X164938072Y-66105004D01*
X164938072Y-65551000D01*
X164947939Y-65551000D01*
X165147898Y-65511226D01*
X165336256Y-65433205D01*
X165505774Y-65319937D01*
X165649937Y-65175774D01*
X165763205Y-65006256D01*
X165841226Y-64817898D01*
X165881000Y-64617939D01*
X165881000Y-64414061D01*
X165841226Y-64214102D01*
X165763205Y-64025744D01*
X165649937Y-63856226D01*
X165505774Y-63712063D01*
X165336256Y-63598795D01*
X165147898Y-63520774D01*
X164947939Y-63481000D01*
X164744061Y-63481000D01*
X164544102Y-63520774D01*
X164355744Y-63598795D01*
X164186226Y-63712063D01*
X164078550Y-63819739D01*
X164050004Y-63816928D01*
X162427730Y-63816928D01*
X162325000Y-63714198D01*
X162325000Y-63652061D01*
X162285226Y-63452102D01*
X162207205Y-63263744D01*
X162093937Y-63094226D01*
X161949774Y-62950063D01*
X161780256Y-62836795D01*
X161591898Y-62758774D01*
X161391939Y-62719000D01*
X161188061Y-62719000D01*
X160988102Y-62758774D01*
X160799744Y-62836795D01*
X160630226Y-62950063D01*
X160486063Y-63094226D01*
X160372795Y-63263744D01*
X160294774Y-63452102D01*
X160255000Y-63652061D01*
X160255000Y-63831209D01*
X160226743Y-63833992D01*
X160060147Y-63884528D01*
X159906612Y-63966594D01*
X159772037Y-64077037D01*
X159661594Y-64211612D01*
X159579528Y-64365147D01*
X159528992Y-64531743D01*
X159511928Y-64704996D01*
X157986915Y-64704996D01*
X157988072Y-64455000D01*
X157975812Y-64330518D01*
X157939502Y-64210820D01*
X157880537Y-64100506D01*
X157801185Y-64003815D01*
X157704494Y-63924463D01*
X157594180Y-63865498D01*
X157474482Y-63829188D01*
X157350000Y-63816928D01*
X155560750Y-63820000D01*
X155402000Y-63978750D01*
X155148000Y-63978750D01*
X154989250Y-63820000D01*
X153200000Y-63816928D01*
X153075518Y-63829188D01*
X152955820Y-63865498D01*
X152845506Y-63924463D01*
X152748815Y-64003815D01*
X152669463Y-64100506D01*
X152610498Y-64210820D01*
X152574188Y-64330518D01*
X152561928Y-64455000D01*
X142339249Y-64455000D01*
X142395205Y-64371256D01*
X142473226Y-64182898D01*
X142513000Y-63982939D01*
X142513000Y-63971388D01*
X142531676Y-63936447D01*
X142596577Y-63722499D01*
X142613000Y-63555752D01*
X142613000Y-62924734D01*
X142613072Y-62924003D01*
X142613072Y-60773997D01*
X143136928Y-60773997D01*
X143136928Y-62924003D01*
X143153992Y-63097257D01*
X143204528Y-63263852D01*
X143286595Y-63417388D01*
X143397037Y-63551963D01*
X143531612Y-63662405D01*
X143685148Y-63744472D01*
X143851743Y-63795008D01*
X144024997Y-63812072D01*
X144650003Y-63812072D01*
X144823257Y-63795008D01*
X144989852Y-63744472D01*
X145143388Y-63662405D01*
X145277963Y-63551963D01*
X145388405Y-63417388D01*
X145470472Y-63263852D01*
X145516839Y-63111000D01*
X147317112Y-63111000D01*
X147321595Y-63119387D01*
X147432038Y-63253962D01*
X147566613Y-63364405D01*
X147720149Y-63446472D01*
X147886745Y-63497008D01*
X148059999Y-63514072D01*
X148710001Y-63514072D01*
X148883255Y-63497008D01*
X149049851Y-63446472D01*
X149203387Y-63364405D01*
X149337962Y-63253962D01*
X149448405Y-63119387D01*
X149530472Y-62965851D01*
X149581008Y-62799255D01*
X149598072Y-62626001D01*
X149598072Y-61325999D01*
X149581008Y-61152745D01*
X149530472Y-60986149D01*
X149448405Y-60832613D01*
X149337962Y-60698038D01*
X149203387Y-60587595D01*
X149049851Y-60505528D01*
X148883255Y-60454992D01*
X148710001Y-60437928D01*
X148059999Y-60437928D01*
X147886745Y-60454992D01*
X147720149Y-60505528D01*
X147566613Y-60587595D01*
X147432038Y-60698038D01*
X147321595Y-60832613D01*
X147317112Y-60841000D01*
X145538072Y-60841000D01*
X145538072Y-60773997D01*
X145521008Y-60600743D01*
X145470472Y-60434148D01*
X145388405Y-60280612D01*
X145277963Y-60146037D01*
X145143388Y-60035595D01*
X144989852Y-59953528D01*
X144823257Y-59902992D01*
X144650003Y-59885928D01*
X144024997Y-59885928D01*
X143851743Y-59902992D01*
X143685148Y-59953528D01*
X143531612Y-60035595D01*
X143397037Y-60146037D01*
X143286595Y-60280612D01*
X143204528Y-60434148D01*
X143153992Y-60600743D01*
X143136928Y-60773997D01*
X142613072Y-60773997D01*
X142596008Y-60600743D01*
X142545472Y-60434148D01*
X142463405Y-60280612D01*
X142352963Y-60146037D01*
X142218388Y-60035595D01*
X142064852Y-59953528D01*
X141898257Y-59902992D01*
X141725003Y-59885928D01*
X141099997Y-59885928D01*
X140926743Y-59902992D01*
X140760148Y-59953528D01*
X140606612Y-60035595D01*
X140472037Y-60146037D01*
X140361595Y-60280612D01*
X140279528Y-60434148D01*
X140228992Y-60600743D01*
X140211928Y-60773997D01*
X137758358Y-60773997D01*
X140110284Y-58422072D01*
X141458000Y-58422072D01*
X141582482Y-58409812D01*
X141702180Y-58373502D01*
X141812494Y-58314537D01*
X141909185Y-58235185D01*
X141988537Y-58138494D01*
X142047502Y-58028180D01*
X142083812Y-57908482D01*
X142096072Y-57784000D01*
X142096072Y-54918999D01*
X144718198Y-54918999D01*
X145119928Y-55320729D01*
X145119928Y-57784000D01*
X145132188Y-57908482D01*
X145168498Y-58028180D01*
X145227463Y-58138494D01*
X145306815Y-58235185D01*
X145403506Y-58314537D01*
X145513820Y-58373502D01*
X145633518Y-58409812D01*
X145758000Y-58422072D01*
X148258000Y-58422072D01*
X148382482Y-58409812D01*
X148471636Y-58382767D01*
X150200000Y-60111132D01*
X150200001Y-60966556D01*
X150189528Y-60986149D01*
X150138992Y-61152745D01*
X150121928Y-61325999D01*
X150121928Y-62626001D01*
X150138992Y-62799255D01*
X150189528Y-62965851D01*
X150271595Y-63119387D01*
X150382038Y-63253962D01*
X150516613Y-63364405D01*
X150670149Y-63446472D01*
X150836745Y-63497008D01*
X151009999Y-63514072D01*
X151660001Y-63514072D01*
X151833255Y-63497008D01*
X151999851Y-63446472D01*
X152153387Y-63364405D01*
X152287962Y-63253962D01*
X152398405Y-63119387D01*
X152480472Y-62965851D01*
X152531008Y-62799255D01*
X152548072Y-62626001D01*
X152548072Y-61325999D01*
X152531008Y-61152745D01*
X152480472Y-60986149D01*
X152470000Y-60966557D01*
X152470000Y-59696751D01*
X152475491Y-59641000D01*
X152468499Y-59569999D01*
X165339928Y-59569999D01*
X165339928Y-60220001D01*
X165356992Y-60393255D01*
X165407528Y-60559851D01*
X165489595Y-60713387D01*
X165600038Y-60847962D01*
X165641311Y-60881834D01*
X165628774Y-60912102D01*
X165589000Y-61112061D01*
X165589000Y-61315939D01*
X165628774Y-61515898D01*
X165706795Y-61704256D01*
X165820063Y-61873774D01*
X165964226Y-62017937D01*
X166133744Y-62131205D01*
X166322102Y-62209226D01*
X166522061Y-62249000D01*
X166725939Y-62249000D01*
X166925898Y-62209226D01*
X167114256Y-62131205D01*
X167283774Y-62017937D01*
X167427937Y-61873774D01*
X167541205Y-61704256D01*
X167619226Y-61515898D01*
X167659000Y-61315939D01*
X167659000Y-61112061D01*
X167655705Y-61095494D01*
X167701255Y-61091008D01*
X167867851Y-61040472D01*
X168021387Y-60958405D01*
X168155962Y-60847962D01*
X168266405Y-60713387D01*
X168348472Y-60559851D01*
X168399008Y-60393255D01*
X168416072Y-60220001D01*
X168416072Y-59569999D01*
X168399008Y-59396745D01*
X168348472Y-59230149D01*
X168266405Y-59076613D01*
X168155962Y-58942038D01*
X168021387Y-58831595D01*
X167867851Y-58749528D01*
X167701255Y-58698992D01*
X167528001Y-58681928D01*
X166227999Y-58681928D01*
X166054745Y-58698992D01*
X165888149Y-58749528D01*
X165734613Y-58831595D01*
X165600038Y-58942038D01*
X165489595Y-59076613D01*
X165407528Y-59230149D01*
X165356992Y-59396745D01*
X165339928Y-59569999D01*
X152468499Y-59569999D01*
X152453577Y-59418501D01*
X152388676Y-59204553D01*
X152359790Y-59150511D01*
X152283284Y-59007377D01*
X152141449Y-58834551D01*
X152098141Y-58799009D01*
X150819132Y-57520000D01*
X165339928Y-57520000D01*
X165352188Y-57644482D01*
X165388498Y-57764180D01*
X165447463Y-57874494D01*
X165526815Y-57971185D01*
X165623506Y-58050537D01*
X165733820Y-58109502D01*
X165853518Y-58145812D01*
X165978000Y-58158072D01*
X166592250Y-58155000D01*
X166751000Y-57996250D01*
X166751000Y-57072000D01*
X167005000Y-57072000D01*
X167005000Y-57996250D01*
X167163750Y-58155000D01*
X167778000Y-58158072D01*
X167902482Y-58145812D01*
X168022180Y-58109502D01*
X168132494Y-58050537D01*
X168229185Y-57971185D01*
X168308537Y-57874494D01*
X168367502Y-57764180D01*
X168403812Y-57644482D01*
X168416072Y-57520000D01*
X168413000Y-57230750D01*
X168254250Y-57072000D01*
X167005000Y-57072000D01*
X166751000Y-57072000D01*
X165501750Y-57072000D01*
X165343000Y-57230750D01*
X165339928Y-57520000D01*
X150819132Y-57520000D01*
X150245861Y-56946729D01*
X172808299Y-56946729D01*
X172855543Y-57324951D01*
X172975667Y-57686690D01*
X173107688Y-57933683D01*
X173402776Y-58065619D01*
X174572395Y-56896000D01*
X173402776Y-55726381D01*
X173107688Y-55858317D01*
X172936841Y-56199045D01*
X172835750Y-56566557D01*
X172808299Y-56946729D01*
X150245861Y-56946729D01*
X149669132Y-56370000D01*
X165339928Y-56370000D01*
X165343000Y-56659250D01*
X165501750Y-56818000D01*
X166751000Y-56818000D01*
X166751000Y-55893750D01*
X167005000Y-55893750D01*
X167005000Y-56818000D01*
X168254250Y-56818000D01*
X168413000Y-56659250D01*
X168416072Y-56370000D01*
X168403812Y-56245518D01*
X168367502Y-56125820D01*
X168308537Y-56015506D01*
X168229185Y-55918815D01*
X168132494Y-55839463D01*
X168022180Y-55780498D01*
X167902482Y-55744188D01*
X167778000Y-55731928D01*
X167163750Y-55735000D01*
X167005000Y-55893750D01*
X166751000Y-55893750D01*
X166592250Y-55735000D01*
X165978000Y-55731928D01*
X165853518Y-55744188D01*
X165733820Y-55780498D01*
X165623506Y-55839463D01*
X165526815Y-55918815D01*
X165447463Y-56015506D01*
X165388498Y-56125820D01*
X165352188Y-56245518D01*
X165339928Y-56370000D01*
X149669132Y-56370000D01*
X148896072Y-55596941D01*
X148896072Y-54484000D01*
X148883812Y-54359518D01*
X148847502Y-54239820D01*
X148788537Y-54129506D01*
X148709185Y-54032815D01*
X148612494Y-53953463D01*
X148502180Y-53894498D01*
X148382482Y-53858188D01*
X148258000Y-53845928D01*
X148143000Y-53845928D01*
X148143000Y-53614131D01*
X149822133Y-51935000D01*
X150441928Y-51935000D01*
X150441928Y-53500000D01*
X150454188Y-53624482D01*
X150490498Y-53744180D01*
X150549463Y-53854494D01*
X150628815Y-53951185D01*
X150725506Y-54030537D01*
X150835820Y-54089502D01*
X150955518Y-54125812D01*
X151080000Y-54138072D01*
X153980000Y-54138072D01*
X154104482Y-54125812D01*
X154224180Y-54089502D01*
X154334494Y-54030537D01*
X154431185Y-53951185D01*
X154510537Y-53854494D01*
X154569502Y-53744180D01*
X154605812Y-53624482D01*
X154618072Y-53500000D01*
X160341928Y-53500000D01*
X160354188Y-53624482D01*
X160390498Y-53744180D01*
X160449463Y-53854494D01*
X160528815Y-53951185D01*
X160625506Y-54030537D01*
X160735820Y-54089502D01*
X160855518Y-54125812D01*
X160980000Y-54138072D01*
X162144250Y-54135000D01*
X162303000Y-53976250D01*
X162303000Y-50927000D01*
X162557000Y-50927000D01*
X162557000Y-53976250D01*
X162715750Y-54135000D01*
X163880000Y-54138072D01*
X164004482Y-54125812D01*
X164124180Y-54089502D01*
X164234494Y-54030537D01*
X164331185Y-53951185D01*
X164410537Y-53854494D01*
X164469502Y-53744180D01*
X164505812Y-53624482D01*
X164518072Y-53500000D01*
X164515000Y-51085750D01*
X164356250Y-50927000D01*
X162557000Y-50927000D01*
X162303000Y-50927000D01*
X160503750Y-50927000D01*
X160345000Y-51085750D01*
X160341928Y-53500000D01*
X154618072Y-53500000D01*
X154618072Y-48895000D01*
X160342940Y-48895000D01*
X160345000Y-50514250D01*
%TA.AperFunction,Conductor*%
D25*
G36*
X160345000Y-50514250D02*
G01*
X160503750Y-50673000D01*
X162303000Y-50673000D01*
X162303000Y-50653000D01*
X162557000Y-50653000D01*
X162557000Y-50673000D01*
X164356250Y-50673000D01*
X164515000Y-50514250D01*
X164517060Y-48895000D01*
X174625000Y-48895000D01*
X174625000Y-54961826D01*
X174323049Y-54999543D01*
X173961310Y-55119667D01*
X173714317Y-55251688D01*
X173582381Y-55546776D01*
X174625000Y-56589395D01*
X174625000Y-57202605D01*
X173582381Y-58245224D01*
X173714317Y-58540312D01*
X174055045Y-58711159D01*
X174422557Y-58812250D01*
X174625000Y-58826868D01*
X174625000Y-60037928D01*
X173452000Y-60037928D01*
X173327518Y-60050188D01*
X173207820Y-60086498D01*
X173097506Y-60145463D01*
X173000815Y-60224815D01*
X172921463Y-60321506D01*
X172862498Y-60431820D01*
X172826188Y-60551518D01*
X172813928Y-60676000D01*
X172813928Y-63276000D01*
X172826188Y-63400482D01*
X172862498Y-63520180D01*
X172921463Y-63630494D01*
X173000815Y-63727185D01*
X173097506Y-63806537D01*
X173207820Y-63865502D01*
X173327518Y-63901812D01*
X173452000Y-63914072D01*
X174625000Y-63914072D01*
X174625000Y-73025000D01*
X153663483Y-73025000D01*
X153661000Y-72548750D01*
X153502250Y-72390000D01*
X152590500Y-72390000D01*
X152590500Y-72410000D01*
X152336500Y-72410000D01*
X152336500Y-72390000D01*
X151424750Y-72390000D01*
X151266000Y-72548750D01*
X151263517Y-73025000D01*
X150725579Y-73025000D01*
X150739072Y-72888003D01*
X150739072Y-71637997D01*
X150722008Y-71464743D01*
X150698729Y-71388000D01*
X151262928Y-71388000D01*
X151266000Y-71977250D01*
X151424750Y-72136000D01*
X152336500Y-72136000D01*
X152336500Y-70911750D01*
X152590500Y-70911750D01*
X152590500Y-72136000D01*
X153502250Y-72136000D01*
X153661000Y-71977250D01*
X153664072Y-71388000D01*
X153651812Y-71263518D01*
X153615502Y-71143820D01*
X153556537Y-71033506D01*
X153477185Y-70936815D01*
X153380494Y-70857463D01*
X153270180Y-70798498D01*
X153150482Y-70762188D01*
X153026000Y-70749928D01*
X152749250Y-70753000D01*
X152590500Y-70911750D01*
X152336500Y-70911750D01*
X152177750Y-70753000D01*
X151901000Y-70749928D01*
X151776518Y-70762188D01*
X151656820Y-70798498D01*
X151546506Y-70857463D01*
X151449815Y-70936815D01*
X151370463Y-71033506D01*
X151311498Y-71143820D01*
X151275188Y-71263518D01*
X151262928Y-71388000D01*
X150698729Y-71388000D01*
X150671472Y-71298148D01*
X150589405Y-71144612D01*
X150478963Y-71010037D01*
X150344388Y-70899595D01*
X150190852Y-70817528D01*
X150024257Y-70766992D01*
X149851003Y-70749928D01*
X149225997Y-70749928D01*
X149052743Y-70766992D01*
X148886148Y-70817528D01*
X148732612Y-70899595D01*
X148598037Y-71010037D01*
X148497945Y-71132000D01*
X147135167Y-71132000D01*
X146975257Y-71083492D01*
X146802003Y-71066428D01*
X145551997Y-71066428D01*
X145378743Y-71083492D01*
X145212148Y-71134028D01*
X145058612Y-71216095D01*
X144924037Y-71326537D01*
X144813595Y-71461112D01*
X144731528Y-71614648D01*
X144680992Y-71781243D01*
X144663928Y-71954497D01*
X144663928Y-72069500D01*
X140620290Y-72069500D01*
X140698256Y-72037205D01*
X140867774Y-71923937D01*
X141011937Y-71779774D01*
X141125205Y-71610256D01*
X141203226Y-71421898D01*
X141243000Y-71221939D01*
X141243000Y-71018061D01*
X141203226Y-70818102D01*
X141125205Y-70629744D01*
X141011937Y-70460226D01*
X140867774Y-70316063D01*
X140698256Y-70202795D01*
X140509898Y-70124774D01*
X140309939Y-70085000D01*
X140106061Y-70085000D01*
X139906102Y-70124774D01*
X139717744Y-70202795D01*
X139598679Y-70282352D01*
X139573387Y-70261595D01*
X139419851Y-70179528D01*
X139253255Y-70128992D01*
X139080001Y-70111928D01*
X137779999Y-70111928D01*
X137606745Y-70128992D01*
X137440149Y-70179528D01*
X137286613Y-70261595D01*
X137152038Y-70372038D01*
X137041595Y-70506613D01*
X136959528Y-70660149D01*
X136908992Y-70826745D01*
X136891928Y-70999999D01*
X136891928Y-71650001D01*
X136908992Y-71823255D01*
X136959528Y-71989851D01*
X137002101Y-72069500D01*
X134875981Y-72069500D01*
X134893000Y-71983939D01*
X134893000Y-71780061D01*
X134853226Y-71580102D01*
X134775205Y-71391744D01*
X134661937Y-71222226D01*
X134559711Y-71120000D01*
X134661937Y-71017774D01*
X134775205Y-70848256D01*
X134853226Y-70659898D01*
X134893000Y-70459939D01*
X134893000Y-70256061D01*
X134853226Y-70056102D01*
X134775205Y-69867744D01*
X134661937Y-69698226D01*
X134517774Y-69554063D01*
X134348256Y-69440795D01*
X134159898Y-69362774D01*
X133959939Y-69323000D01*
X133756061Y-69323000D01*
X133556102Y-69362774D01*
X133367744Y-69440795D01*
X133223000Y-69537510D01*
X133223000Y-69233612D01*
X133223387Y-69233405D01*
X133357962Y-69122962D01*
X133468405Y-68988387D01*
X133550472Y-68834851D01*
X133601008Y-68668255D01*
X133618072Y-68495001D01*
X133618072Y-67844999D01*
X133601008Y-67671745D01*
X133550472Y-67505149D01*
X133468405Y-67351613D01*
X133357962Y-67217038D01*
X133223387Y-67106595D01*
X133223000Y-67106388D01*
X133223000Y-65440000D01*
X133797333Y-65440000D01*
X133908986Y-65429003D01*
X134052247Y-65385546D01*
X134084942Y-65368070D01*
X134352359Y-65368070D01*
X134468226Y-65483937D01*
X134637744Y-65597205D01*
X134826102Y-65675226D01*
X135026061Y-65715000D01*
X135229939Y-65715000D01*
X135429898Y-65675226D01*
X135618256Y-65597205D01*
X135787774Y-65483937D01*
X135931937Y-65339774D01*
X136045205Y-65170256D01*
X136099757Y-65038558D01*
X137670001Y-66608803D01*
X137670001Y-67172762D01*
X137606745Y-67178992D01*
X137440149Y-67229528D01*
X137286613Y-67311595D01*
X137152038Y-67422038D01*
X137041595Y-67556613D01*
X136959528Y-67710149D01*
X136908992Y-67876745D01*
X136891928Y-68049999D01*
X136891928Y-68700001D01*
X136908992Y-68873255D01*
X136959528Y-69039851D01*
X137041595Y-69193387D01*
X137152038Y-69327962D01*
X137286613Y-69438405D01*
X137440149Y-69520472D01*
X137606745Y-69571008D01*
X137779999Y-69588072D01*
X139080001Y-69588072D01*
X139253255Y-69571008D01*
X139419851Y-69520472D01*
X139469262Y-69494061D01*
X143237000Y-69494061D01*
X143237000Y-69697939D01*
X143276774Y-69897898D01*
X143354795Y-70086256D01*
X143468063Y-70255774D01*
X143612226Y-70399937D01*
X143781744Y-70513205D01*
X143970102Y-70591226D01*
X144170061Y-70631000D01*
X144373939Y-70631000D01*
X144573898Y-70591226D01*
X144762256Y-70513205D01*
X144931774Y-70399937D01*
X144992809Y-70338902D01*
X145058612Y-70392905D01*
X145212148Y-70474972D01*
X145378743Y-70525508D01*
X145551997Y-70542572D01*
X146802003Y-70542572D01*
X146975257Y-70525508D01*
X147141852Y-70474972D01*
X147295388Y-70392905D01*
X147429963Y-70282463D01*
X147540405Y-70147888D01*
X147622472Y-69994352D01*
X147673008Y-69827757D01*
X147690072Y-69654503D01*
X147690072Y-69029497D01*
X147673008Y-68856243D01*
X147622472Y-68689648D01*
X147540405Y-68536112D01*
X147429963Y-68401537D01*
X147295388Y-68291095D01*
X147141852Y-68209028D01*
X146975257Y-68158492D01*
X146802003Y-68141428D01*
X145551997Y-68141428D01*
X145378743Y-68158492D01*
X145212148Y-68209028D01*
X145058612Y-68291095D01*
X144924037Y-68401537D01*
X144813595Y-68536112D01*
X144789067Y-68582000D01*
X144563322Y-68582000D01*
X144525999Y-68578324D01*
X144488676Y-68582000D01*
X144488667Y-68582000D01*
X144482545Y-68582603D01*
X144373939Y-68561000D01*
X144170061Y-68561000D01*
X143970102Y-68600774D01*
X143781744Y-68678795D01*
X143612226Y-68792063D01*
X143468063Y-68936226D01*
X143354795Y-69105744D01*
X143276774Y-69294102D01*
X143237000Y-69494061D01*
X139469262Y-69494061D01*
X139573387Y-69438405D01*
X139707962Y-69327962D01*
X139818405Y-69193387D01*
X139900472Y-69039851D01*
X139951008Y-68873255D01*
X139968072Y-68700001D01*
X139968072Y-68049999D01*
X139951008Y-67876745D01*
X139900472Y-67710149D01*
X139818405Y-67556613D01*
X139707962Y-67422038D01*
X139573387Y-67311595D01*
X139419851Y-67229528D01*
X139253255Y-67178992D01*
X139190000Y-67172762D01*
X139190000Y-66355000D01*
X152561928Y-66355000D01*
X152574188Y-66479482D01*
X152610498Y-66599180D01*
X152669463Y-66709494D01*
X152748815Y-66806185D01*
X152845506Y-66885537D01*
X152955820Y-66944502D01*
X153075518Y-66980812D01*
X153200000Y-66993072D01*
X154989250Y-66990000D01*
X155148000Y-66831250D01*
X155148000Y-65532000D01*
X155402000Y-65532000D01*
X155402000Y-66831250D01*
X155560750Y-66990000D01*
X157350000Y-66993072D01*
X157474482Y-66980812D01*
X157594180Y-66944502D01*
X157704494Y-66885537D01*
X157801185Y-66806185D01*
X157880537Y-66709494D01*
X157939502Y-66599180D01*
X157975812Y-66479482D01*
X157988072Y-66355000D01*
X157985000Y-65690750D01*
X157826250Y-65532000D01*
X155402000Y-65532000D01*
X155148000Y-65532000D01*
X152723750Y-65532000D01*
X152565000Y-65690750D01*
X152561928Y-66355000D01*
X139190000Y-66355000D01*
X139190000Y-66331323D01*
X139193676Y-66294000D01*
X139190000Y-66256677D01*
X139190000Y-66256667D01*
X139179003Y-66145014D01*
X139135546Y-66001753D01*
X139064974Y-65869723D01*
X138993799Y-65782997D01*
X138970001Y-65753999D01*
X138941003Y-65730201D01*
X136554804Y-63344003D01*
X136531001Y-63314999D01*
X136415276Y-63220026D01*
X136283247Y-63149454D01*
X136139986Y-63105997D01*
X136028333Y-63095000D01*
X136028322Y-63095000D01*
X135991000Y-63091324D01*
X135953678Y-63095000D01*
X135095002Y-63095000D01*
X135095002Y-63077997D01*
X135020736Y-63077997D01*
X135049504Y-63024177D01*
X135062754Y-62980498D01*
X135095002Y-62948250D01*
X135090734Y-62909223D01*
X135199000Y-62919886D01*
X135396994Y-62900385D01*
X135587379Y-62842632D01*
X135762840Y-62748846D01*
X135878099Y-62654256D01*
X137758358Y-60773997D01*
X140211928Y-60773997D01*
X140211928Y-62924003D01*
X140228992Y-63097257D01*
X140279528Y-63263852D01*
X140343000Y-63382599D01*
X140343000Y-63555751D01*
X140359423Y-63722498D01*
X140424324Y-63936446D01*
X140443000Y-63971387D01*
X140443000Y-63982939D01*
X140482774Y-64182898D01*
X140560795Y-64371256D01*
X140674063Y-64540774D01*
X140818226Y-64684937D01*
X140987744Y-64798205D01*
X141176102Y-64876226D01*
X141376061Y-64916000D01*
X141579939Y-64916000D01*
X141779898Y-64876226D01*
X141968256Y-64798205D01*
X142137774Y-64684937D01*
X142281937Y-64540774D01*
X142339249Y-64455000D01*
X152561928Y-64455000D01*
X152565000Y-65119250D01*
X152723750Y-65278000D01*
X155148000Y-65278000D01*
X155148000Y-63978750D01*
X155402000Y-63978750D01*
X155402000Y-65278000D01*
X157826250Y-65278000D01*
X157985000Y-65119250D01*
X157986915Y-64704996D01*
X159511928Y-64704996D01*
X159511928Y-66105004D01*
X159528992Y-66278257D01*
X159579528Y-66444853D01*
X159661594Y-66598388D01*
X159772037Y-66732963D01*
X159906612Y-66843406D01*
X160060147Y-66925472D01*
X160226743Y-66976008D01*
X160399996Y-66993072D01*
X164050004Y-66993072D01*
X164223257Y-66976008D01*
X164389853Y-66925472D01*
X164543388Y-66843406D01*
X164677963Y-66732963D01*
X164788406Y-66598388D01*
X164870472Y-66444853D01*
X164921008Y-66278257D01*
X164938072Y-66105004D01*
X164938072Y-65551000D01*
X164947939Y-65551000D01*
X165147898Y-65511226D01*
X165336256Y-65433205D01*
X165505774Y-65319937D01*
X165649937Y-65175774D01*
X165763205Y-65006256D01*
X165841226Y-64817898D01*
X165881000Y-64617939D01*
X165881000Y-64414061D01*
X165841226Y-64214102D01*
X165763205Y-64025744D01*
X165649937Y-63856226D01*
X165505774Y-63712063D01*
X165336256Y-63598795D01*
X165147898Y-63520774D01*
X164947939Y-63481000D01*
X164744061Y-63481000D01*
X164544102Y-63520774D01*
X164355744Y-63598795D01*
X164186226Y-63712063D01*
X164078550Y-63819739D01*
X164050004Y-63816928D01*
X162427730Y-63816928D01*
X162325000Y-63714198D01*
X162325000Y-63652061D01*
X162285226Y-63452102D01*
X162207205Y-63263744D01*
X162093937Y-63094226D01*
X161949774Y-62950063D01*
X161780256Y-62836795D01*
X161591898Y-62758774D01*
X161391939Y-62719000D01*
X161188061Y-62719000D01*
X160988102Y-62758774D01*
X160799744Y-62836795D01*
X160630226Y-62950063D01*
X160486063Y-63094226D01*
X160372795Y-63263744D01*
X160294774Y-63452102D01*
X160255000Y-63652061D01*
X160255000Y-63831209D01*
X160226743Y-63833992D01*
X160060147Y-63884528D01*
X159906612Y-63966594D01*
X159772037Y-64077037D01*
X159661594Y-64211612D01*
X159579528Y-64365147D01*
X159528992Y-64531743D01*
X159511928Y-64704996D01*
X157986915Y-64704996D01*
X157988072Y-64455000D01*
X157975812Y-64330518D01*
X157939502Y-64210820D01*
X157880537Y-64100506D01*
X157801185Y-64003815D01*
X157704494Y-63924463D01*
X157594180Y-63865498D01*
X157474482Y-63829188D01*
X157350000Y-63816928D01*
X155560750Y-63820000D01*
X155402000Y-63978750D01*
X155148000Y-63978750D01*
X154989250Y-63820000D01*
X153200000Y-63816928D01*
X153075518Y-63829188D01*
X152955820Y-63865498D01*
X152845506Y-63924463D01*
X152748815Y-64003815D01*
X152669463Y-64100506D01*
X152610498Y-64210820D01*
X152574188Y-64330518D01*
X152561928Y-64455000D01*
X142339249Y-64455000D01*
X142395205Y-64371256D01*
X142473226Y-64182898D01*
X142513000Y-63982939D01*
X142513000Y-63971388D01*
X142531676Y-63936447D01*
X142596577Y-63722499D01*
X142613000Y-63555752D01*
X142613000Y-62924734D01*
X142613072Y-62924003D01*
X142613072Y-60773997D01*
X143136928Y-60773997D01*
X143136928Y-62924003D01*
X143153992Y-63097257D01*
X143204528Y-63263852D01*
X143286595Y-63417388D01*
X143397037Y-63551963D01*
X143531612Y-63662405D01*
X143685148Y-63744472D01*
X143851743Y-63795008D01*
X144024997Y-63812072D01*
X144650003Y-63812072D01*
X144823257Y-63795008D01*
X144989852Y-63744472D01*
X145143388Y-63662405D01*
X145277963Y-63551963D01*
X145388405Y-63417388D01*
X145470472Y-63263852D01*
X145516839Y-63111000D01*
X147317112Y-63111000D01*
X147321595Y-63119387D01*
X147432038Y-63253962D01*
X147566613Y-63364405D01*
X147720149Y-63446472D01*
X147886745Y-63497008D01*
X148059999Y-63514072D01*
X148710001Y-63514072D01*
X148883255Y-63497008D01*
X149049851Y-63446472D01*
X149203387Y-63364405D01*
X149337962Y-63253962D01*
X149448405Y-63119387D01*
X149530472Y-62965851D01*
X149581008Y-62799255D01*
X149598072Y-62626001D01*
X149598072Y-61325999D01*
X149581008Y-61152745D01*
X149530472Y-60986149D01*
X149448405Y-60832613D01*
X149337962Y-60698038D01*
X149203387Y-60587595D01*
X149049851Y-60505528D01*
X148883255Y-60454992D01*
X148710001Y-60437928D01*
X148059999Y-60437928D01*
X147886745Y-60454992D01*
X147720149Y-60505528D01*
X147566613Y-60587595D01*
X147432038Y-60698038D01*
X147321595Y-60832613D01*
X147317112Y-60841000D01*
X145538072Y-60841000D01*
X145538072Y-60773997D01*
X145521008Y-60600743D01*
X145470472Y-60434148D01*
X145388405Y-60280612D01*
X145277963Y-60146037D01*
X145143388Y-60035595D01*
X144989852Y-59953528D01*
X144823257Y-59902992D01*
X144650003Y-59885928D01*
X144024997Y-59885928D01*
X143851743Y-59902992D01*
X143685148Y-59953528D01*
X143531612Y-60035595D01*
X143397037Y-60146037D01*
X143286595Y-60280612D01*
X143204528Y-60434148D01*
X143153992Y-60600743D01*
X143136928Y-60773997D01*
X142613072Y-60773997D01*
X142596008Y-60600743D01*
X142545472Y-60434148D01*
X142463405Y-60280612D01*
X142352963Y-60146037D01*
X142218388Y-60035595D01*
X142064852Y-59953528D01*
X141898257Y-59902992D01*
X141725003Y-59885928D01*
X141099997Y-59885928D01*
X140926743Y-59902992D01*
X140760148Y-59953528D01*
X140606612Y-60035595D01*
X140472037Y-60146037D01*
X140361595Y-60280612D01*
X140279528Y-60434148D01*
X140228992Y-60600743D01*
X140211928Y-60773997D01*
X137758358Y-60773997D01*
X140110284Y-58422072D01*
X141458000Y-58422072D01*
X141582482Y-58409812D01*
X141702180Y-58373502D01*
X141812494Y-58314537D01*
X141909185Y-58235185D01*
X141988537Y-58138494D01*
X142047502Y-58028180D01*
X142083812Y-57908482D01*
X142096072Y-57784000D01*
X142096072Y-54918999D01*
X144718198Y-54918999D01*
X145119928Y-55320729D01*
X145119928Y-57784000D01*
X145132188Y-57908482D01*
X145168498Y-58028180D01*
X145227463Y-58138494D01*
X145306815Y-58235185D01*
X145403506Y-58314537D01*
X145513820Y-58373502D01*
X145633518Y-58409812D01*
X145758000Y-58422072D01*
X148258000Y-58422072D01*
X148382482Y-58409812D01*
X148471636Y-58382767D01*
X150200000Y-60111132D01*
X150200001Y-60966556D01*
X150189528Y-60986149D01*
X150138992Y-61152745D01*
X150121928Y-61325999D01*
X150121928Y-62626001D01*
X150138992Y-62799255D01*
X150189528Y-62965851D01*
X150271595Y-63119387D01*
X150382038Y-63253962D01*
X150516613Y-63364405D01*
X150670149Y-63446472D01*
X150836745Y-63497008D01*
X151009999Y-63514072D01*
X151660001Y-63514072D01*
X151833255Y-63497008D01*
X151999851Y-63446472D01*
X152153387Y-63364405D01*
X152287962Y-63253962D01*
X152398405Y-63119387D01*
X152480472Y-62965851D01*
X152531008Y-62799255D01*
X152548072Y-62626001D01*
X152548072Y-61325999D01*
X152531008Y-61152745D01*
X152480472Y-60986149D01*
X152470000Y-60966557D01*
X152470000Y-59696751D01*
X152475491Y-59641000D01*
X152468499Y-59569999D01*
X165339928Y-59569999D01*
X165339928Y-60220001D01*
X165356992Y-60393255D01*
X165407528Y-60559851D01*
X165489595Y-60713387D01*
X165600038Y-60847962D01*
X165641311Y-60881834D01*
X165628774Y-60912102D01*
X165589000Y-61112061D01*
X165589000Y-61315939D01*
X165628774Y-61515898D01*
X165706795Y-61704256D01*
X165820063Y-61873774D01*
X165964226Y-62017937D01*
X166133744Y-62131205D01*
X166322102Y-62209226D01*
X166522061Y-62249000D01*
X166725939Y-62249000D01*
X166925898Y-62209226D01*
X167114256Y-62131205D01*
X167283774Y-62017937D01*
X167427937Y-61873774D01*
X167541205Y-61704256D01*
X167619226Y-61515898D01*
X167659000Y-61315939D01*
X167659000Y-61112061D01*
X167655705Y-61095494D01*
X167701255Y-61091008D01*
X167867851Y-61040472D01*
X168021387Y-60958405D01*
X168155962Y-60847962D01*
X168266405Y-60713387D01*
X168348472Y-60559851D01*
X168399008Y-60393255D01*
X168416072Y-60220001D01*
X168416072Y-59569999D01*
X168399008Y-59396745D01*
X168348472Y-59230149D01*
X168266405Y-59076613D01*
X168155962Y-58942038D01*
X168021387Y-58831595D01*
X167867851Y-58749528D01*
X167701255Y-58698992D01*
X167528001Y-58681928D01*
X166227999Y-58681928D01*
X166054745Y-58698992D01*
X165888149Y-58749528D01*
X165734613Y-58831595D01*
X165600038Y-58942038D01*
X165489595Y-59076613D01*
X165407528Y-59230149D01*
X165356992Y-59396745D01*
X165339928Y-59569999D01*
X152468499Y-59569999D01*
X152453577Y-59418501D01*
X152388676Y-59204553D01*
X152359790Y-59150511D01*
X152283284Y-59007377D01*
X152141449Y-58834551D01*
X152098141Y-58799009D01*
X150819132Y-57520000D01*
X165339928Y-57520000D01*
X165352188Y-57644482D01*
X165388498Y-57764180D01*
X165447463Y-57874494D01*
X165526815Y-57971185D01*
X165623506Y-58050537D01*
X165733820Y-58109502D01*
X165853518Y-58145812D01*
X165978000Y-58158072D01*
X166592250Y-58155000D01*
X166751000Y-57996250D01*
X166751000Y-57072000D01*
X167005000Y-57072000D01*
X167005000Y-57996250D01*
X167163750Y-58155000D01*
X167778000Y-58158072D01*
X167902482Y-58145812D01*
X168022180Y-58109502D01*
X168132494Y-58050537D01*
X168229185Y-57971185D01*
X168308537Y-57874494D01*
X168367502Y-57764180D01*
X168403812Y-57644482D01*
X168416072Y-57520000D01*
X168413000Y-57230750D01*
X168254250Y-57072000D01*
X167005000Y-57072000D01*
X166751000Y-57072000D01*
X165501750Y-57072000D01*
X165343000Y-57230750D01*
X165339928Y-57520000D01*
X150819132Y-57520000D01*
X150245861Y-56946729D01*
X172808299Y-56946729D01*
X172855543Y-57324951D01*
X172975667Y-57686690D01*
X173107688Y-57933683D01*
X173402776Y-58065619D01*
X174572395Y-56896000D01*
X173402776Y-55726381D01*
X173107688Y-55858317D01*
X172936841Y-56199045D01*
X172835750Y-56566557D01*
X172808299Y-56946729D01*
X150245861Y-56946729D01*
X149669132Y-56370000D01*
X165339928Y-56370000D01*
X165343000Y-56659250D01*
X165501750Y-56818000D01*
X166751000Y-56818000D01*
X166751000Y-55893750D01*
X167005000Y-55893750D01*
X167005000Y-56818000D01*
X168254250Y-56818000D01*
X168413000Y-56659250D01*
X168416072Y-56370000D01*
X168403812Y-56245518D01*
X168367502Y-56125820D01*
X168308537Y-56015506D01*
X168229185Y-55918815D01*
X168132494Y-55839463D01*
X168022180Y-55780498D01*
X167902482Y-55744188D01*
X167778000Y-55731928D01*
X167163750Y-55735000D01*
X167005000Y-55893750D01*
X166751000Y-55893750D01*
X166592250Y-55735000D01*
X165978000Y-55731928D01*
X165853518Y-55744188D01*
X165733820Y-55780498D01*
X165623506Y-55839463D01*
X165526815Y-55918815D01*
X165447463Y-56015506D01*
X165388498Y-56125820D01*
X165352188Y-56245518D01*
X165339928Y-56370000D01*
X149669132Y-56370000D01*
X148896072Y-55596941D01*
X148896072Y-54484000D01*
X148883812Y-54359518D01*
X148847502Y-54239820D01*
X148788537Y-54129506D01*
X148709185Y-54032815D01*
X148612494Y-53953463D01*
X148502180Y-53894498D01*
X148382482Y-53858188D01*
X148258000Y-53845928D01*
X148143000Y-53845928D01*
X148143000Y-53614131D01*
X149822133Y-51935000D01*
X150441928Y-51935000D01*
X150441928Y-53500000D01*
X150454188Y-53624482D01*
X150490498Y-53744180D01*
X150549463Y-53854494D01*
X150628815Y-53951185D01*
X150725506Y-54030537D01*
X150835820Y-54089502D01*
X150955518Y-54125812D01*
X151080000Y-54138072D01*
X153980000Y-54138072D01*
X154104482Y-54125812D01*
X154224180Y-54089502D01*
X154334494Y-54030537D01*
X154431185Y-53951185D01*
X154510537Y-53854494D01*
X154569502Y-53744180D01*
X154605812Y-53624482D01*
X154618072Y-53500000D01*
X160341928Y-53500000D01*
X160354188Y-53624482D01*
X160390498Y-53744180D01*
X160449463Y-53854494D01*
X160528815Y-53951185D01*
X160625506Y-54030537D01*
X160735820Y-54089502D01*
X160855518Y-54125812D01*
X160980000Y-54138072D01*
X162144250Y-54135000D01*
X162303000Y-53976250D01*
X162303000Y-50927000D01*
X162557000Y-50927000D01*
X162557000Y-53976250D01*
X162715750Y-54135000D01*
X163880000Y-54138072D01*
X164004482Y-54125812D01*
X164124180Y-54089502D01*
X164234494Y-54030537D01*
X164331185Y-53951185D01*
X164410537Y-53854494D01*
X164469502Y-53744180D01*
X164505812Y-53624482D01*
X164518072Y-53500000D01*
X164515000Y-51085750D01*
X164356250Y-50927000D01*
X162557000Y-50927000D01*
X162303000Y-50927000D01*
X160503750Y-50927000D01*
X160345000Y-51085750D01*
X160341928Y-53500000D01*
X154618072Y-53500000D01*
X154618072Y-48895000D01*
X160342940Y-48895000D01*
X160345000Y-50514250D01*
G37*
%TD.AperFunction*%
%TD*%
M02*
